G04 #@! TF.GenerationSoftware,KiCad,Pcbnew,(5.1.10)-1*
G04 #@! TF.CreationDate,2022-01-24T23:11:23-05:00*
G04 #@! TF.ProjectId,EmotionLampBoard_V1,456d6f74-696f-46e4-9c61-6d70426f6172,rev?*
G04 #@! TF.SameCoordinates,Original*
G04 #@! TF.FileFunction,Copper,L1,Top*
G04 #@! TF.FilePolarity,Positive*
%FSLAX46Y46*%
G04 Gerber Fmt 4.6, Leading zero omitted, Abs format (unit mm)*
G04 Created by KiCad (PCBNEW (5.1.10)-1) date 2022-01-24 23:11:23*
%MOMM*%
%LPD*%
G01*
G04 APERTURE LIST*
G04 #@! TA.AperFunction,ComponentPad*
%ADD10R,1.295400X1.295400*%
G04 #@! TD*
G04 #@! TA.AperFunction,ComponentPad*
%ADD11C,1.295400*%
G04 #@! TD*
G04 #@! TA.AperFunction,ComponentPad*
%ADD12R,1.950000X1.950000*%
G04 #@! TD*
G04 #@! TA.AperFunction,ComponentPad*
%ADD13C,1.950000*%
G04 #@! TD*
G04 #@! TA.AperFunction,ComponentPad*
%ADD14C,1.600000*%
G04 #@! TD*
G04 #@! TA.AperFunction,ComponentPad*
%ADD15O,1.600000X1.600000*%
G04 #@! TD*
G04 #@! TA.AperFunction,ComponentPad*
%ADD16O,2.000000X1.600000*%
G04 #@! TD*
G04 #@! TA.AperFunction,ComponentPad*
%ADD17R,2.000000X2.000000*%
G04 #@! TD*
G04 #@! TA.AperFunction,ComponentPad*
%ADD18R,1.700000X1.700000*%
G04 #@! TD*
G04 #@! TA.AperFunction,ComponentPad*
%ADD19O,1.700000X1.700000*%
G04 #@! TD*
G04 #@! TA.AperFunction,Conductor*
%ADD20C,0.250000*%
G04 #@! TD*
G04 #@! TA.AperFunction,Conductor*
%ADD21C,0.254000*%
G04 #@! TD*
G04 #@! TA.AperFunction,Conductor*
%ADD22C,0.150000*%
G04 #@! TD*
G04 APERTURE END LIST*
D10*
X147828000Y-74168000D03*
D11*
X147828000Y-76708000D03*
X147828000Y-79248000D03*
X147828000Y-81788000D03*
X147828000Y-84328000D03*
X147828000Y-86868000D03*
X147828000Y-89408000D03*
X155448000Y-89408000D03*
X155448000Y-86868000D03*
X155448000Y-84328000D03*
X155448000Y-81788000D03*
X155448000Y-79248000D03*
X155448000Y-76708000D03*
X155448000Y-74168000D03*
D12*
X169180000Y-83820000D03*
D13*
X169180000Y-78820000D03*
X169180000Y-73820000D03*
D12*
X169180000Y-95000000D03*
D13*
X169180000Y-90000000D03*
D14*
X160528000Y-74676000D03*
D15*
X160528000Y-82296000D03*
D16*
X143000000Y-90932000D03*
D17*
X143000000Y-93472000D03*
D16*
X143000000Y-88392000D03*
X143000000Y-85852000D03*
X143000000Y-83312000D03*
X143000000Y-80772000D03*
X143000000Y-78232000D03*
X143000000Y-75692000D03*
X120140000Y-75692000D03*
X120140000Y-78232000D03*
X120140000Y-80772000D03*
X120140000Y-83312000D03*
X120140000Y-85852000D03*
X120140000Y-88392000D03*
X120140000Y-90932000D03*
X120140000Y-93472000D03*
D18*
X148844000Y-98044000D03*
D19*
X151384000Y-98044000D03*
X153924000Y-98044000D03*
D20*
X166036000Y-78820000D02*
X166544000Y-78820000D01*
X162560000Y-82296000D02*
X166036000Y-78820000D01*
X160528000Y-82296000D02*
X162560000Y-82296000D01*
X169180000Y-78820000D02*
X166544000Y-78820000D01*
X151384000Y-96012000D02*
X151384000Y-98044000D01*
X147004000Y-94996000D02*
X150368000Y-94996000D01*
X150368000Y-94996000D02*
X151384000Y-96012000D01*
X146000000Y-93992000D02*
X147004000Y-94996000D01*
X146000000Y-89000000D02*
X146000000Y-93992000D01*
X145392000Y-88392000D02*
X146000000Y-89000000D01*
X143000000Y-88392000D02*
X145392000Y-88392000D01*
X151384000Y-71628000D02*
X152400000Y-70612000D01*
X151384000Y-78232000D02*
X151384000Y-71628000D01*
X152400000Y-70612000D02*
X156464000Y-70612000D01*
X150368000Y-79248000D02*
X151384000Y-78232000D01*
X147828000Y-79248000D02*
X150368000Y-79248000D01*
X160528000Y-74676000D02*
X160528000Y-73152000D01*
X160528000Y-73152000D02*
X157988000Y-70612000D01*
X157988000Y-70612000D02*
X156464000Y-70612000D01*
D21*
X173453893Y-61707670D02*
X173890498Y-61839489D01*
X174293185Y-62053600D01*
X174646612Y-62341848D01*
X174937327Y-62693261D01*
X175154242Y-63094439D01*
X175289106Y-63530113D01*
X175340000Y-64014344D01*
X175340001Y-103967711D01*
X175292330Y-104453894D01*
X175160512Y-104890497D01*
X174946399Y-105293186D01*
X174658150Y-105646613D01*
X174306739Y-105937327D01*
X173905564Y-106154240D01*
X173469886Y-106289106D01*
X172985664Y-106340000D01*
X116032279Y-106340000D01*
X115546106Y-106292330D01*
X115109503Y-106160512D01*
X114706814Y-105946399D01*
X114353387Y-105658150D01*
X114062673Y-105306739D01*
X113845760Y-104905564D01*
X113710894Y-104469886D01*
X113660000Y-103985664D01*
X113660000Y-102779872D01*
X114765000Y-102779872D01*
X114765000Y-103220128D01*
X114850890Y-103651925D01*
X115019369Y-104058669D01*
X115263962Y-104424729D01*
X115575271Y-104736038D01*
X115941331Y-104980631D01*
X116348075Y-105149110D01*
X116779872Y-105235000D01*
X117220128Y-105235000D01*
X117651925Y-105149110D01*
X118058669Y-104980631D01*
X118424729Y-104736038D01*
X118736038Y-104424729D01*
X118980631Y-104058669D01*
X119149110Y-103651925D01*
X119235000Y-103220128D01*
X119235000Y-102779872D01*
X169765000Y-102779872D01*
X169765000Y-103220128D01*
X169850890Y-103651925D01*
X170019369Y-104058669D01*
X170263962Y-104424729D01*
X170575271Y-104736038D01*
X170941331Y-104980631D01*
X171348075Y-105149110D01*
X171779872Y-105235000D01*
X172220128Y-105235000D01*
X172651925Y-105149110D01*
X173058669Y-104980631D01*
X173424729Y-104736038D01*
X173736038Y-104424729D01*
X173980631Y-104058669D01*
X174149110Y-103651925D01*
X174235000Y-103220128D01*
X174235000Y-102779872D01*
X174149110Y-102348075D01*
X173980631Y-101941331D01*
X173736038Y-101575271D01*
X173424729Y-101263962D01*
X173058669Y-101019369D01*
X172651925Y-100850890D01*
X172220128Y-100765000D01*
X171779872Y-100765000D01*
X171348075Y-100850890D01*
X170941331Y-101019369D01*
X170575271Y-101263962D01*
X170263962Y-101575271D01*
X170019369Y-101941331D01*
X169850890Y-102348075D01*
X169765000Y-102779872D01*
X119235000Y-102779872D01*
X119149110Y-102348075D01*
X118980631Y-101941331D01*
X118736038Y-101575271D01*
X118424729Y-101263962D01*
X118058669Y-101019369D01*
X117651925Y-100850890D01*
X117220128Y-100765000D01*
X116779872Y-100765000D01*
X116348075Y-100850890D01*
X115941331Y-101019369D01*
X115575271Y-101263962D01*
X115263962Y-101575271D01*
X115019369Y-101941331D01*
X114850890Y-102348075D01*
X114765000Y-102779872D01*
X113660000Y-102779872D01*
X113660000Y-80772000D01*
X118498057Y-80772000D01*
X118525764Y-81053309D01*
X118607818Y-81323808D01*
X118741068Y-81573101D01*
X118920392Y-81791608D01*
X119138899Y-81970932D01*
X119271858Y-82042000D01*
X119138899Y-82113068D01*
X118920392Y-82292392D01*
X118741068Y-82510899D01*
X118607818Y-82760192D01*
X118525764Y-83030691D01*
X118498057Y-83312000D01*
X118525764Y-83593309D01*
X118607818Y-83863808D01*
X118741068Y-84113101D01*
X118920392Y-84331608D01*
X119138899Y-84510932D01*
X119271858Y-84582000D01*
X119138899Y-84653068D01*
X118920392Y-84832392D01*
X118741068Y-85050899D01*
X118607818Y-85300192D01*
X118525764Y-85570691D01*
X118498057Y-85852000D01*
X118525764Y-86133309D01*
X118607818Y-86403808D01*
X118741068Y-86653101D01*
X118920392Y-86871608D01*
X119138899Y-87050932D01*
X119271858Y-87122000D01*
X119138899Y-87193068D01*
X118920392Y-87372392D01*
X118741068Y-87590899D01*
X118607818Y-87840192D01*
X118525764Y-88110691D01*
X118498057Y-88392000D01*
X118525764Y-88673309D01*
X118607818Y-88943808D01*
X118741068Y-89193101D01*
X118920392Y-89411608D01*
X119138899Y-89590932D01*
X119271858Y-89662000D01*
X119138899Y-89733068D01*
X118920392Y-89912392D01*
X118741068Y-90130899D01*
X118607818Y-90380192D01*
X118525764Y-90650691D01*
X118498057Y-90932000D01*
X118525764Y-91213309D01*
X118607818Y-91483808D01*
X118741068Y-91733101D01*
X118920392Y-91951608D01*
X119138899Y-92130932D01*
X119271858Y-92202000D01*
X119138899Y-92273068D01*
X118920392Y-92452392D01*
X118741068Y-92670899D01*
X118607818Y-92920192D01*
X118525764Y-93190691D01*
X118498057Y-93472000D01*
X118525764Y-93753309D01*
X118607818Y-94023808D01*
X118741068Y-94273101D01*
X118920392Y-94491608D01*
X119138899Y-94670932D01*
X119388192Y-94804182D01*
X119658691Y-94886236D01*
X119869508Y-94907000D01*
X120410492Y-94907000D01*
X120621309Y-94886236D01*
X120891808Y-94804182D01*
X121141101Y-94670932D01*
X121359608Y-94491608D01*
X121538932Y-94273101D01*
X121672182Y-94023808D01*
X121754236Y-93753309D01*
X121781943Y-93472000D01*
X121754236Y-93190691D01*
X121672182Y-92920192D01*
X121538932Y-92670899D01*
X121359608Y-92452392D01*
X121141101Y-92273068D01*
X121008142Y-92202000D01*
X121141101Y-92130932D01*
X121359608Y-91951608D01*
X121538932Y-91733101D01*
X121672182Y-91483808D01*
X121754236Y-91213309D01*
X121781943Y-90932000D01*
X121754236Y-90650691D01*
X121672182Y-90380192D01*
X121538932Y-90130899D01*
X121359608Y-89912392D01*
X121141101Y-89733068D01*
X121008142Y-89662000D01*
X121141101Y-89590932D01*
X121359608Y-89411608D01*
X121538932Y-89193101D01*
X121672182Y-88943808D01*
X121754236Y-88673309D01*
X121781943Y-88392000D01*
X121754236Y-88110691D01*
X121672182Y-87840192D01*
X121538932Y-87590899D01*
X121359608Y-87372392D01*
X121141101Y-87193068D01*
X121008142Y-87122000D01*
X121141101Y-87050932D01*
X121359608Y-86871608D01*
X121538932Y-86653101D01*
X121672182Y-86403808D01*
X121754236Y-86133309D01*
X121781943Y-85852000D01*
X121754236Y-85570691D01*
X121672182Y-85300192D01*
X121538932Y-85050899D01*
X121359608Y-84832392D01*
X121141101Y-84653068D01*
X121008142Y-84582000D01*
X121141101Y-84510932D01*
X121359608Y-84331608D01*
X121538932Y-84113101D01*
X121672182Y-83863808D01*
X121754236Y-83593309D01*
X121781943Y-83312000D01*
X121754236Y-83030691D01*
X121672182Y-82760192D01*
X121538932Y-82510899D01*
X121359608Y-82292392D01*
X121141101Y-82113068D01*
X121008142Y-82042000D01*
X121141101Y-81970932D01*
X121359608Y-81791608D01*
X121538932Y-81573101D01*
X121672182Y-81323808D01*
X121754236Y-81053309D01*
X121781943Y-80772000D01*
X121754236Y-80490691D01*
X121672182Y-80220192D01*
X121538932Y-79970899D01*
X121359608Y-79752392D01*
X121141101Y-79573068D01*
X121011655Y-79503878D01*
X121029227Y-79496430D01*
X121262662Y-79337673D01*
X121460639Y-79136425D01*
X121615551Y-78900421D01*
X121721444Y-78638730D01*
X121731904Y-78581039D01*
X121609915Y-78359000D01*
X120267000Y-78359000D01*
X120267000Y-78379000D01*
X120013000Y-78379000D01*
X120013000Y-78359000D01*
X118670085Y-78359000D01*
X118548096Y-78581039D01*
X118558556Y-78638730D01*
X118664449Y-78900421D01*
X118819361Y-79136425D01*
X119017338Y-79337673D01*
X119250773Y-79496430D01*
X119268345Y-79503878D01*
X119138899Y-79573068D01*
X118920392Y-79752392D01*
X118741068Y-79970899D01*
X118607818Y-80220192D01*
X118525764Y-80490691D01*
X118498057Y-80772000D01*
X113660000Y-80772000D01*
X113660000Y-75692000D01*
X118498057Y-75692000D01*
X118525764Y-75973309D01*
X118607818Y-76243808D01*
X118741068Y-76493101D01*
X118920392Y-76711608D01*
X119138899Y-76890932D01*
X119268345Y-76960122D01*
X119250773Y-76967570D01*
X119017338Y-77126327D01*
X118819361Y-77327575D01*
X118664449Y-77563579D01*
X118558556Y-77825270D01*
X118548096Y-77882961D01*
X118670085Y-78105000D01*
X120013000Y-78105000D01*
X120013000Y-78085000D01*
X120267000Y-78085000D01*
X120267000Y-78105000D01*
X121609915Y-78105000D01*
X121731904Y-77882961D01*
X121721444Y-77825270D01*
X121615551Y-77563579D01*
X121460639Y-77327575D01*
X121262662Y-77126327D01*
X121029227Y-76967570D01*
X121011655Y-76960122D01*
X121141101Y-76890932D01*
X121359608Y-76711608D01*
X121538932Y-76493101D01*
X121672182Y-76243808D01*
X121754236Y-75973309D01*
X121781943Y-75692000D01*
X141358057Y-75692000D01*
X141385764Y-75973309D01*
X141467818Y-76243808D01*
X141601068Y-76493101D01*
X141780392Y-76711608D01*
X141998899Y-76890932D01*
X142131858Y-76962000D01*
X141998899Y-77033068D01*
X141780392Y-77212392D01*
X141601068Y-77430899D01*
X141467818Y-77680192D01*
X141385764Y-77950691D01*
X141358057Y-78232000D01*
X141385764Y-78513309D01*
X141467818Y-78783808D01*
X141601068Y-79033101D01*
X141780392Y-79251608D01*
X141998899Y-79430932D01*
X142131858Y-79502000D01*
X141998899Y-79573068D01*
X141780392Y-79752392D01*
X141601068Y-79970899D01*
X141467818Y-80220192D01*
X141385764Y-80490691D01*
X141358057Y-80772000D01*
X141385764Y-81053309D01*
X141467818Y-81323808D01*
X141601068Y-81573101D01*
X141780392Y-81791608D01*
X141998899Y-81970932D01*
X142131858Y-82042000D01*
X141998899Y-82113068D01*
X141780392Y-82292392D01*
X141601068Y-82510899D01*
X141467818Y-82760192D01*
X141385764Y-83030691D01*
X141358057Y-83312000D01*
X141385764Y-83593309D01*
X141467818Y-83863808D01*
X141601068Y-84113101D01*
X141780392Y-84331608D01*
X141998899Y-84510932D01*
X142131858Y-84582000D01*
X141998899Y-84653068D01*
X141780392Y-84832392D01*
X141601068Y-85050899D01*
X141467818Y-85300192D01*
X141385764Y-85570691D01*
X141358057Y-85852000D01*
X141385764Y-86133309D01*
X141467818Y-86403808D01*
X141601068Y-86653101D01*
X141780392Y-86871608D01*
X141998899Y-87050932D01*
X142131858Y-87122000D01*
X141998899Y-87193068D01*
X141780392Y-87372392D01*
X141601068Y-87590899D01*
X141467818Y-87840192D01*
X141385764Y-88110691D01*
X141358057Y-88392000D01*
X141385764Y-88673309D01*
X141467818Y-88943808D01*
X141601068Y-89193101D01*
X141780392Y-89411608D01*
X141998899Y-89590932D01*
X142131858Y-89662000D01*
X141998899Y-89733068D01*
X141780392Y-89912392D01*
X141601068Y-90130899D01*
X141467818Y-90380192D01*
X141385764Y-90650691D01*
X141358057Y-90932000D01*
X141385764Y-91213309D01*
X141467818Y-91483808D01*
X141601068Y-91733101D01*
X141733476Y-91894441D01*
X141645506Y-91941463D01*
X141548815Y-92020815D01*
X141469463Y-92117506D01*
X141410498Y-92227820D01*
X141374188Y-92347518D01*
X141361928Y-92472000D01*
X141361928Y-94472000D01*
X141374188Y-94596482D01*
X141410498Y-94716180D01*
X141469463Y-94826494D01*
X141548815Y-94923185D01*
X141645506Y-95002537D01*
X141755820Y-95061502D01*
X141875518Y-95097812D01*
X142000000Y-95110072D01*
X144000000Y-95110072D01*
X144124482Y-95097812D01*
X144244180Y-95061502D01*
X144354494Y-95002537D01*
X144451185Y-94923185D01*
X144530537Y-94826494D01*
X144589502Y-94716180D01*
X144625812Y-94596482D01*
X144638072Y-94472000D01*
X144638072Y-92472000D01*
X144625812Y-92347518D01*
X144589502Y-92227820D01*
X144530537Y-92117506D01*
X144451185Y-92020815D01*
X144354494Y-91941463D01*
X144266524Y-91894441D01*
X144398932Y-91733101D01*
X144532182Y-91483808D01*
X144614236Y-91213309D01*
X144641943Y-90932000D01*
X144614236Y-90650691D01*
X144532182Y-90380192D01*
X144398932Y-90130899D01*
X144219608Y-89912392D01*
X144001101Y-89733068D01*
X143868142Y-89662000D01*
X144001101Y-89590932D01*
X144219608Y-89411608D01*
X144398932Y-89193101D01*
X144420901Y-89152000D01*
X145077199Y-89152000D01*
X145240000Y-89314802D01*
X145240001Y-93954668D01*
X145236324Y-93992000D01*
X145250998Y-94140985D01*
X145294454Y-94284246D01*
X145365026Y-94416276D01*
X145410758Y-94472000D01*
X145460000Y-94532001D01*
X145488998Y-94555799D01*
X146440205Y-95507008D01*
X146463999Y-95536001D01*
X146492992Y-95559795D01*
X146492996Y-95559799D01*
X146563685Y-95617811D01*
X146579724Y-95630974D01*
X146711753Y-95701546D01*
X146855014Y-95745003D01*
X146966667Y-95756000D01*
X146966676Y-95756000D01*
X147003999Y-95759676D01*
X147041322Y-95756000D01*
X150053199Y-95756000D01*
X150624000Y-96326802D01*
X150624000Y-96765821D01*
X150437368Y-96890525D01*
X150305513Y-97022380D01*
X150283502Y-96949820D01*
X150224537Y-96839506D01*
X150145185Y-96742815D01*
X150048494Y-96663463D01*
X149938180Y-96604498D01*
X149818482Y-96568188D01*
X149694000Y-96555928D01*
X147994000Y-96555928D01*
X147869518Y-96568188D01*
X147749820Y-96604498D01*
X147639506Y-96663463D01*
X147542815Y-96742815D01*
X147463463Y-96839506D01*
X147404498Y-96949820D01*
X147368188Y-97069518D01*
X147355928Y-97194000D01*
X147355928Y-98894000D01*
X147368188Y-99018482D01*
X147404498Y-99138180D01*
X147463463Y-99248494D01*
X147542815Y-99345185D01*
X147639506Y-99424537D01*
X147749820Y-99483502D01*
X147869518Y-99519812D01*
X147994000Y-99532072D01*
X149694000Y-99532072D01*
X149818482Y-99519812D01*
X149938180Y-99483502D01*
X150048494Y-99424537D01*
X150145185Y-99345185D01*
X150224537Y-99248494D01*
X150283502Y-99138180D01*
X150305513Y-99065620D01*
X150437368Y-99197475D01*
X150680589Y-99359990D01*
X150950842Y-99471932D01*
X151237740Y-99529000D01*
X151530260Y-99529000D01*
X151817158Y-99471932D01*
X152087411Y-99359990D01*
X152330632Y-99197475D01*
X152537475Y-98990632D01*
X152659195Y-98808466D01*
X152728822Y-98925355D01*
X152923731Y-99141588D01*
X153157080Y-99315641D01*
X153419901Y-99440825D01*
X153567110Y-99485476D01*
X153797000Y-99364155D01*
X153797000Y-98171000D01*
X154051000Y-98171000D01*
X154051000Y-99364155D01*
X154280890Y-99485476D01*
X154428099Y-99440825D01*
X154690920Y-99315641D01*
X154924269Y-99141588D01*
X155119178Y-98925355D01*
X155268157Y-98675252D01*
X155365481Y-98400891D01*
X155244814Y-98171000D01*
X154051000Y-98171000D01*
X153797000Y-98171000D01*
X153777000Y-98171000D01*
X153777000Y-97917000D01*
X153797000Y-97917000D01*
X153797000Y-96723845D01*
X154051000Y-96723845D01*
X154051000Y-97917000D01*
X155244814Y-97917000D01*
X155365481Y-97687109D01*
X155268157Y-97412748D01*
X155119178Y-97162645D01*
X154924269Y-96946412D01*
X154690920Y-96772359D01*
X154428099Y-96647175D01*
X154280890Y-96602524D01*
X154051000Y-96723845D01*
X153797000Y-96723845D01*
X153567110Y-96602524D01*
X153419901Y-96647175D01*
X153157080Y-96772359D01*
X152923731Y-96946412D01*
X152728822Y-97162645D01*
X152659195Y-97279534D01*
X152537475Y-97097368D01*
X152330632Y-96890525D01*
X152144000Y-96765822D01*
X152144000Y-96049322D01*
X152147676Y-96012000D01*
X152144000Y-95974677D01*
X152144000Y-95974667D01*
X152133003Y-95863014D01*
X152089546Y-95719753D01*
X152079814Y-95701546D01*
X152018974Y-95587723D01*
X151947799Y-95500997D01*
X151924001Y-95471999D01*
X151895004Y-95448202D01*
X150931804Y-94485002D01*
X150908001Y-94455999D01*
X150792276Y-94361026D01*
X150660247Y-94290454D01*
X150516986Y-94246997D01*
X150405333Y-94236000D01*
X150405322Y-94236000D01*
X150368000Y-94232324D01*
X150330678Y-94236000D01*
X147318803Y-94236000D01*
X147107803Y-94025000D01*
X167566928Y-94025000D01*
X167566928Y-95975000D01*
X167579188Y-96099482D01*
X167615498Y-96219180D01*
X167674463Y-96329494D01*
X167753815Y-96426185D01*
X167850506Y-96505537D01*
X167960820Y-96564502D01*
X168080518Y-96600812D01*
X168205000Y-96613072D01*
X170155000Y-96613072D01*
X170279482Y-96600812D01*
X170399180Y-96564502D01*
X170509494Y-96505537D01*
X170606185Y-96426185D01*
X170685537Y-96329494D01*
X170744502Y-96219180D01*
X170780812Y-96099482D01*
X170793072Y-95975000D01*
X170793072Y-94025000D01*
X170780812Y-93900518D01*
X170744502Y-93780820D01*
X170685537Y-93670506D01*
X170606185Y-93573815D01*
X170509494Y-93494463D01*
X170399180Y-93435498D01*
X170279482Y-93399188D01*
X170155000Y-93386928D01*
X168205000Y-93386928D01*
X168080518Y-93399188D01*
X167960820Y-93435498D01*
X167850506Y-93494463D01*
X167753815Y-93573815D01*
X167674463Y-93670506D01*
X167615498Y-93780820D01*
X167579188Y-93900518D01*
X167566928Y-94025000D01*
X147107803Y-94025000D01*
X146760000Y-93677199D01*
X146760000Y-91117584D01*
X168242021Y-91117584D01*
X168334766Y-91379429D01*
X168620120Y-91517820D01*
X168926990Y-91597883D01*
X169243584Y-91616540D01*
X169557733Y-91573074D01*
X169857367Y-91469156D01*
X170025234Y-91379429D01*
X170117979Y-91117584D01*
X169180000Y-90179605D01*
X168242021Y-91117584D01*
X146760000Y-91117584D01*
X146760000Y-90291882D01*
X147123723Y-90291882D01*
X147176832Y-90520321D01*
X147406347Y-90625985D01*
X147652066Y-90684843D01*
X147904546Y-90694631D01*
X148154084Y-90654975D01*
X148391092Y-90567399D01*
X148479168Y-90520321D01*
X148532277Y-90291882D01*
X147828000Y-89587605D01*
X147123723Y-90291882D01*
X146760000Y-90291882D01*
X146760000Y-90069472D01*
X146944118Y-90112277D01*
X147648395Y-89408000D01*
X148007605Y-89408000D01*
X148711882Y-90112277D01*
X148940321Y-90059168D01*
X149045985Y-89829653D01*
X149104843Y-89583934D01*
X149114631Y-89331454D01*
X149106719Y-89281665D01*
X154165300Y-89281665D01*
X154165300Y-89534335D01*
X154214594Y-89782150D01*
X154311286Y-90015586D01*
X154451662Y-90225673D01*
X154630327Y-90404338D01*
X154840414Y-90544714D01*
X155073850Y-90641406D01*
X155321665Y-90690700D01*
X155574335Y-90690700D01*
X155822150Y-90641406D01*
X156055586Y-90544714D01*
X156265673Y-90404338D01*
X156444338Y-90225673D01*
X156552642Y-90063584D01*
X167563460Y-90063584D01*
X167606926Y-90377733D01*
X167710844Y-90677367D01*
X167800571Y-90845234D01*
X168062416Y-90937979D01*
X169000395Y-90000000D01*
X169359605Y-90000000D01*
X170297584Y-90937979D01*
X170559429Y-90845234D01*
X170697820Y-90559880D01*
X170777883Y-90253010D01*
X170796540Y-89936416D01*
X170753074Y-89622267D01*
X170649156Y-89322633D01*
X170559429Y-89154766D01*
X170297584Y-89062021D01*
X169359605Y-90000000D01*
X169000395Y-90000000D01*
X168062416Y-89062021D01*
X167800571Y-89154766D01*
X167662180Y-89440120D01*
X167582117Y-89746990D01*
X167563460Y-90063584D01*
X156552642Y-90063584D01*
X156584714Y-90015586D01*
X156681406Y-89782150D01*
X156730700Y-89534335D01*
X156730700Y-89281665D01*
X156681406Y-89033850D01*
X156618681Y-88882416D01*
X168242021Y-88882416D01*
X169180000Y-89820395D01*
X170117979Y-88882416D01*
X170025234Y-88620571D01*
X169739880Y-88482180D01*
X169433010Y-88402117D01*
X169116416Y-88383460D01*
X168802267Y-88426926D01*
X168502633Y-88530844D01*
X168334766Y-88620571D01*
X168242021Y-88882416D01*
X156618681Y-88882416D01*
X156584714Y-88800414D01*
X156444338Y-88590327D01*
X156265673Y-88411662D01*
X156055586Y-88271286D01*
X155822150Y-88174594D01*
X155634192Y-88137206D01*
X155774084Y-88114975D01*
X156011092Y-88027399D01*
X156099168Y-87980321D01*
X156152277Y-87751882D01*
X155448000Y-87047605D01*
X154743723Y-87751882D01*
X154796832Y-87980321D01*
X155026347Y-88085985D01*
X155249995Y-88139556D01*
X155073850Y-88174594D01*
X154840414Y-88271286D01*
X154630327Y-88411662D01*
X154451662Y-88590327D01*
X154311286Y-88800414D01*
X154214594Y-89033850D01*
X154165300Y-89281665D01*
X149106719Y-89281665D01*
X149074975Y-89081916D01*
X148987399Y-88844908D01*
X148940321Y-88756832D01*
X148711882Y-88703723D01*
X148007605Y-89408000D01*
X147648395Y-89408000D01*
X146944118Y-88703723D01*
X146720120Y-88755799D01*
X146705546Y-88707753D01*
X146634974Y-88575724D01*
X146540001Y-88459999D01*
X146511004Y-88436202D01*
X145955803Y-87881002D01*
X145932001Y-87851999D01*
X145816276Y-87757026D01*
X145684247Y-87686454D01*
X145540986Y-87642997D01*
X145429333Y-87632000D01*
X145429322Y-87632000D01*
X145392000Y-87628324D01*
X145354678Y-87632000D01*
X144420901Y-87632000D01*
X144398932Y-87590899D01*
X144219608Y-87372392D01*
X144001101Y-87193068D01*
X143868142Y-87122000D01*
X144001101Y-87050932D01*
X144219608Y-86871608D01*
X144326249Y-86741665D01*
X146545300Y-86741665D01*
X146545300Y-86994335D01*
X146594594Y-87242150D01*
X146691286Y-87475586D01*
X146831662Y-87685673D01*
X147010327Y-87864338D01*
X147220414Y-88004714D01*
X147453850Y-88101406D01*
X147641808Y-88138794D01*
X147501916Y-88161025D01*
X147264908Y-88248601D01*
X147176832Y-88295679D01*
X147123723Y-88524118D01*
X147828000Y-89228395D01*
X148532277Y-88524118D01*
X148479168Y-88295679D01*
X148249653Y-88190015D01*
X148026005Y-88136444D01*
X148202150Y-88101406D01*
X148435586Y-88004714D01*
X148645673Y-87864338D01*
X148824338Y-87685673D01*
X148964714Y-87475586D01*
X149061406Y-87242150D01*
X149110700Y-86994335D01*
X149110700Y-86944546D01*
X154161369Y-86944546D01*
X154201025Y-87194084D01*
X154288601Y-87431092D01*
X154335679Y-87519168D01*
X154564118Y-87572277D01*
X155268395Y-86868000D01*
X155627605Y-86868000D01*
X156331882Y-87572277D01*
X156560321Y-87519168D01*
X156665985Y-87289653D01*
X156724843Y-87043934D01*
X156734631Y-86791454D01*
X156694975Y-86541916D01*
X156607399Y-86304908D01*
X156560321Y-86216832D01*
X156331882Y-86163723D01*
X155627605Y-86868000D01*
X155268395Y-86868000D01*
X154564118Y-86163723D01*
X154335679Y-86216832D01*
X154230015Y-86446347D01*
X154171157Y-86692066D01*
X154161369Y-86944546D01*
X149110700Y-86944546D01*
X149110700Y-86741665D01*
X149061406Y-86493850D01*
X148964714Y-86260414D01*
X148824338Y-86050327D01*
X148645673Y-85871662D01*
X148435586Y-85731286D01*
X148202150Y-85634594D01*
X148014192Y-85597206D01*
X148154084Y-85574975D01*
X148391092Y-85487399D01*
X148479168Y-85440321D01*
X148532277Y-85211882D01*
X147828000Y-84507605D01*
X147123723Y-85211882D01*
X147176832Y-85440321D01*
X147406347Y-85545985D01*
X147629995Y-85599556D01*
X147453850Y-85634594D01*
X147220414Y-85731286D01*
X147010327Y-85871662D01*
X146831662Y-86050327D01*
X146691286Y-86260414D01*
X146594594Y-86493850D01*
X146545300Y-86741665D01*
X144326249Y-86741665D01*
X144398932Y-86653101D01*
X144532182Y-86403808D01*
X144614236Y-86133309D01*
X144641943Y-85852000D01*
X144614236Y-85570691D01*
X144532182Y-85300192D01*
X144398932Y-85050899D01*
X144219608Y-84832392D01*
X144001101Y-84653068D01*
X143868142Y-84582000D01*
X144001101Y-84510932D01*
X144130732Y-84404546D01*
X146541369Y-84404546D01*
X146581025Y-84654084D01*
X146668601Y-84891092D01*
X146715679Y-84979168D01*
X146944118Y-85032277D01*
X147648395Y-84328000D01*
X148007605Y-84328000D01*
X148711882Y-85032277D01*
X148940321Y-84979168D01*
X149045985Y-84749653D01*
X149104843Y-84503934D01*
X149114631Y-84251454D01*
X149074975Y-84001916D01*
X148987399Y-83764908D01*
X148940321Y-83676832D01*
X148711882Y-83623723D01*
X148007605Y-84328000D01*
X147648395Y-84328000D01*
X146944118Y-83623723D01*
X146715679Y-83676832D01*
X146610015Y-83906347D01*
X146551157Y-84152066D01*
X146541369Y-84404546D01*
X144130732Y-84404546D01*
X144219608Y-84331608D01*
X144398932Y-84113101D01*
X144532182Y-83863808D01*
X144614236Y-83593309D01*
X144641943Y-83312000D01*
X144614236Y-83030691D01*
X144532182Y-82760192D01*
X144398932Y-82510899D01*
X144219608Y-82292392D01*
X144001101Y-82113068D01*
X143868142Y-82042000D01*
X144001101Y-81970932D01*
X144219608Y-81791608D01*
X144398932Y-81573101D01*
X144532182Y-81323808D01*
X144614236Y-81053309D01*
X144641943Y-80772000D01*
X144614236Y-80490691D01*
X144532182Y-80220192D01*
X144398932Y-79970899D01*
X144219608Y-79752392D01*
X144001101Y-79573068D01*
X143868142Y-79502000D01*
X144001101Y-79430932D01*
X144219608Y-79251608D01*
X144398932Y-79033101D01*
X144532182Y-78783808D01*
X144614236Y-78513309D01*
X144641943Y-78232000D01*
X144614236Y-77950691D01*
X144532182Y-77680192D01*
X144398932Y-77430899D01*
X144219608Y-77212392D01*
X144001101Y-77033068D01*
X143868142Y-76962000D01*
X144001101Y-76890932D01*
X144219608Y-76711608D01*
X144398932Y-76493101D01*
X144532182Y-76243808D01*
X144614236Y-75973309D01*
X144641943Y-75692000D01*
X144614236Y-75410691D01*
X144532182Y-75140192D01*
X144398932Y-74890899D01*
X144337218Y-74815700D01*
X146542228Y-74815700D01*
X146554488Y-74940182D01*
X146590798Y-75059880D01*
X146649763Y-75170194D01*
X146729115Y-75266885D01*
X146825806Y-75346237D01*
X146936120Y-75405202D01*
X147055818Y-75441512D01*
X147180300Y-75453772D01*
X147542250Y-75450700D01*
X147700998Y-75291952D01*
X147700998Y-75425433D01*
X147453850Y-75474594D01*
X147220414Y-75571286D01*
X147010327Y-75711662D01*
X146831662Y-75890327D01*
X146691286Y-76100414D01*
X146594594Y-76333850D01*
X146545300Y-76581665D01*
X146545300Y-76834335D01*
X146594594Y-77082150D01*
X146691286Y-77315586D01*
X146831662Y-77525673D01*
X147010327Y-77704338D01*
X147220414Y-77844714D01*
X147453850Y-77941406D01*
X147637818Y-77978000D01*
X147453850Y-78014594D01*
X147220414Y-78111286D01*
X147010327Y-78251662D01*
X146831662Y-78430327D01*
X146691286Y-78640414D01*
X146594594Y-78873850D01*
X146545300Y-79121665D01*
X146545300Y-79374335D01*
X146594594Y-79622150D01*
X146691286Y-79855586D01*
X146831662Y-80065673D01*
X147010327Y-80244338D01*
X147220414Y-80384714D01*
X147453850Y-80481406D01*
X147637818Y-80518000D01*
X147453850Y-80554594D01*
X147220414Y-80651286D01*
X147010327Y-80791662D01*
X146831662Y-80970327D01*
X146691286Y-81180414D01*
X146594594Y-81413850D01*
X146545300Y-81661665D01*
X146545300Y-81914335D01*
X146594594Y-82162150D01*
X146691286Y-82395586D01*
X146831662Y-82605673D01*
X147010327Y-82784338D01*
X147220414Y-82924714D01*
X147453850Y-83021406D01*
X147641808Y-83058794D01*
X147501916Y-83081025D01*
X147264908Y-83168601D01*
X147176832Y-83215679D01*
X147123723Y-83444118D01*
X147828000Y-84148395D01*
X148532277Y-83444118D01*
X148479168Y-83215679D01*
X148249653Y-83110015D01*
X148026005Y-83056444D01*
X148202150Y-83021406D01*
X148435586Y-82924714D01*
X148645673Y-82784338D01*
X148824338Y-82605673D01*
X148964714Y-82395586D01*
X149061406Y-82162150D01*
X149110700Y-81914335D01*
X149110700Y-81661665D01*
X154165300Y-81661665D01*
X154165300Y-81914335D01*
X154214594Y-82162150D01*
X154311286Y-82395586D01*
X154451662Y-82605673D01*
X154630327Y-82784338D01*
X154840414Y-82924714D01*
X155073850Y-83021406D01*
X155257818Y-83058000D01*
X155073850Y-83094594D01*
X154840414Y-83191286D01*
X154630327Y-83331662D01*
X154451662Y-83510327D01*
X154311286Y-83720414D01*
X154214594Y-83953850D01*
X154165300Y-84201665D01*
X154165300Y-84454335D01*
X154214594Y-84702150D01*
X154311286Y-84935586D01*
X154451662Y-85145673D01*
X154630327Y-85324338D01*
X154840414Y-85464714D01*
X155073850Y-85561406D01*
X155261808Y-85598794D01*
X155121916Y-85621025D01*
X154884908Y-85708601D01*
X154796832Y-85755679D01*
X154743723Y-85984118D01*
X155448000Y-86688395D01*
X156152277Y-85984118D01*
X156099168Y-85755679D01*
X155869653Y-85650015D01*
X155646005Y-85596444D01*
X155822150Y-85561406D01*
X156055586Y-85464714D01*
X156265673Y-85324338D01*
X156444338Y-85145673D01*
X156584714Y-84935586D01*
X156681406Y-84702150D01*
X156730700Y-84454335D01*
X156730700Y-84201665D01*
X156681406Y-83953850D01*
X156584714Y-83720414D01*
X156444338Y-83510327D01*
X156265673Y-83331662D01*
X156055586Y-83191286D01*
X155822150Y-83094594D01*
X155638182Y-83058000D01*
X155822150Y-83021406D01*
X156055586Y-82924714D01*
X156265673Y-82784338D01*
X156444338Y-82605673D01*
X156584714Y-82395586D01*
X156681406Y-82162150D01*
X156682894Y-82154665D01*
X159093000Y-82154665D01*
X159093000Y-82437335D01*
X159148147Y-82714574D01*
X159256320Y-82975727D01*
X159413363Y-83210759D01*
X159613241Y-83410637D01*
X159848273Y-83567680D01*
X160109426Y-83675853D01*
X160386665Y-83731000D01*
X160669335Y-83731000D01*
X160946574Y-83675853D01*
X161207727Y-83567680D01*
X161442759Y-83410637D01*
X161642637Y-83210759D01*
X161746043Y-83056000D01*
X162522678Y-83056000D01*
X162560000Y-83059676D01*
X162597322Y-83056000D01*
X162597333Y-83056000D01*
X162708986Y-83045003D01*
X162852247Y-83001546D01*
X162984276Y-82930974D01*
X163089035Y-82845000D01*
X167566928Y-82845000D01*
X167566928Y-84795000D01*
X167579188Y-84919482D01*
X167615498Y-85039180D01*
X167674463Y-85149494D01*
X167753815Y-85246185D01*
X167850506Y-85325537D01*
X167960820Y-85384502D01*
X168080518Y-85420812D01*
X168205000Y-85433072D01*
X170155000Y-85433072D01*
X170279482Y-85420812D01*
X170399180Y-85384502D01*
X170509494Y-85325537D01*
X170606185Y-85246185D01*
X170685537Y-85149494D01*
X170744502Y-85039180D01*
X170780812Y-84919482D01*
X170793072Y-84795000D01*
X170793072Y-82845000D01*
X170780812Y-82720518D01*
X170744502Y-82600820D01*
X170685537Y-82490506D01*
X170606185Y-82393815D01*
X170509494Y-82314463D01*
X170399180Y-82255498D01*
X170279482Y-82219188D01*
X170155000Y-82206928D01*
X168205000Y-82206928D01*
X168080518Y-82219188D01*
X167960820Y-82255498D01*
X167850506Y-82314463D01*
X167753815Y-82393815D01*
X167674463Y-82490506D01*
X167615498Y-82600820D01*
X167579188Y-82720518D01*
X167566928Y-82845000D01*
X163089035Y-82845000D01*
X163100001Y-82836001D01*
X163123804Y-82806997D01*
X166350802Y-79580000D01*
X167752151Y-79580000D01*
X167753237Y-79582621D01*
X167929431Y-79846315D01*
X168153685Y-80070569D01*
X168417379Y-80246763D01*
X168710380Y-80368129D01*
X169021429Y-80430000D01*
X169338571Y-80430000D01*
X169649620Y-80368129D01*
X169942621Y-80246763D01*
X170206315Y-80070569D01*
X170430569Y-79846315D01*
X170606763Y-79582621D01*
X170728129Y-79289620D01*
X170790000Y-78978571D01*
X170790000Y-78661429D01*
X170728129Y-78350380D01*
X170606763Y-78057379D01*
X170430569Y-77793685D01*
X170206315Y-77569431D01*
X169942621Y-77393237D01*
X169649620Y-77271871D01*
X169338571Y-77210000D01*
X169021429Y-77210000D01*
X168710380Y-77271871D01*
X168417379Y-77393237D01*
X168153685Y-77569431D01*
X167929431Y-77793685D01*
X167753237Y-78057379D01*
X167752151Y-78060000D01*
X166073322Y-78060000D01*
X166035999Y-78056324D01*
X165998676Y-78060000D01*
X165998667Y-78060000D01*
X165887014Y-78070997D01*
X165743753Y-78114454D01*
X165611724Y-78185026D01*
X165495999Y-78279999D01*
X165472201Y-78308997D01*
X162245199Y-81536000D01*
X161746043Y-81536000D01*
X161642637Y-81381241D01*
X161442759Y-81181363D01*
X161207727Y-81024320D01*
X160946574Y-80916147D01*
X160669335Y-80861000D01*
X160386665Y-80861000D01*
X160109426Y-80916147D01*
X159848273Y-81024320D01*
X159613241Y-81181363D01*
X159413363Y-81381241D01*
X159256320Y-81616273D01*
X159148147Y-81877426D01*
X159093000Y-82154665D01*
X156682894Y-82154665D01*
X156730700Y-81914335D01*
X156730700Y-81661665D01*
X156681406Y-81413850D01*
X156584714Y-81180414D01*
X156444338Y-80970327D01*
X156265673Y-80791662D01*
X156055586Y-80651286D01*
X155822150Y-80554594D01*
X155634192Y-80517206D01*
X155774084Y-80494975D01*
X156011092Y-80407399D01*
X156099168Y-80360321D01*
X156152277Y-80131882D01*
X155448000Y-79427605D01*
X154743723Y-80131882D01*
X154796832Y-80360321D01*
X155026347Y-80465985D01*
X155249995Y-80519556D01*
X155073850Y-80554594D01*
X154840414Y-80651286D01*
X154630327Y-80791662D01*
X154451662Y-80970327D01*
X154311286Y-81180414D01*
X154214594Y-81413850D01*
X154165300Y-81661665D01*
X149110700Y-81661665D01*
X149061406Y-81413850D01*
X148964714Y-81180414D01*
X148824338Y-80970327D01*
X148645673Y-80791662D01*
X148435586Y-80651286D01*
X148202150Y-80554594D01*
X148018182Y-80518000D01*
X148202150Y-80481406D01*
X148435586Y-80384714D01*
X148645673Y-80244338D01*
X148824338Y-80065673D01*
X148862874Y-80008000D01*
X150330678Y-80008000D01*
X150368000Y-80011676D01*
X150405322Y-80008000D01*
X150405333Y-80008000D01*
X150516986Y-79997003D01*
X150660247Y-79953546D01*
X150792276Y-79882974D01*
X150908001Y-79788001D01*
X150931804Y-79758998D01*
X151366256Y-79324546D01*
X154161369Y-79324546D01*
X154201025Y-79574084D01*
X154288601Y-79811092D01*
X154335679Y-79899168D01*
X154564118Y-79952277D01*
X155268395Y-79248000D01*
X155627605Y-79248000D01*
X156331882Y-79952277D01*
X156560321Y-79899168D01*
X156665985Y-79669653D01*
X156724843Y-79423934D01*
X156734631Y-79171454D01*
X156694975Y-78921916D01*
X156607399Y-78684908D01*
X156560321Y-78596832D01*
X156331882Y-78543723D01*
X155627605Y-79248000D01*
X155268395Y-79248000D01*
X154564118Y-78543723D01*
X154335679Y-78596832D01*
X154230015Y-78826347D01*
X154171157Y-79072066D01*
X154161369Y-79324546D01*
X151366256Y-79324546D01*
X151895004Y-78795798D01*
X151924001Y-78772001D01*
X151976526Y-78707999D01*
X152018974Y-78656277D01*
X152089546Y-78524247D01*
X152100541Y-78488000D01*
X152133003Y-78380986D01*
X152144000Y-78269333D01*
X152144000Y-78269323D01*
X152147676Y-78232000D01*
X152144000Y-78194678D01*
X152144000Y-74041665D01*
X154165300Y-74041665D01*
X154165300Y-74294335D01*
X154214594Y-74542150D01*
X154311286Y-74775586D01*
X154451662Y-74985673D01*
X154630327Y-75164338D01*
X154840414Y-75304714D01*
X155073850Y-75401406D01*
X155257818Y-75438000D01*
X155073850Y-75474594D01*
X154840414Y-75571286D01*
X154630327Y-75711662D01*
X154451662Y-75890327D01*
X154311286Y-76100414D01*
X154214594Y-76333850D01*
X154165300Y-76581665D01*
X154165300Y-76834335D01*
X154214594Y-77082150D01*
X154311286Y-77315586D01*
X154451662Y-77525673D01*
X154630327Y-77704338D01*
X154840414Y-77844714D01*
X155073850Y-77941406D01*
X155261808Y-77978794D01*
X155121916Y-78001025D01*
X154884908Y-78088601D01*
X154796832Y-78135679D01*
X154743723Y-78364118D01*
X155448000Y-79068395D01*
X156152277Y-78364118D01*
X156099168Y-78135679D01*
X155869653Y-78030015D01*
X155646005Y-77976444D01*
X155822150Y-77941406D01*
X156055586Y-77844714D01*
X156265673Y-77704338D01*
X156444338Y-77525673D01*
X156584714Y-77315586D01*
X156681406Y-77082150D01*
X156730700Y-76834335D01*
X156730700Y-76581665D01*
X156681406Y-76333850D01*
X156584714Y-76100414D01*
X156444338Y-75890327D01*
X156265673Y-75711662D01*
X156055586Y-75571286D01*
X155822150Y-75474594D01*
X155638182Y-75438000D01*
X155822150Y-75401406D01*
X156055586Y-75304714D01*
X156265673Y-75164338D01*
X156444338Y-74985673D01*
X156584714Y-74775586D01*
X156681406Y-74542150D01*
X156730700Y-74294335D01*
X156730700Y-74041665D01*
X156681406Y-73793850D01*
X156584714Y-73560414D01*
X156444338Y-73350327D01*
X156265673Y-73171662D01*
X156055586Y-73031286D01*
X155822150Y-72934594D01*
X155574335Y-72885300D01*
X155321665Y-72885300D01*
X155073850Y-72934594D01*
X154840414Y-73031286D01*
X154630327Y-73171662D01*
X154451662Y-73350327D01*
X154311286Y-73560414D01*
X154214594Y-73793850D01*
X154165300Y-74041665D01*
X152144000Y-74041665D01*
X152144000Y-71942801D01*
X152714802Y-71372000D01*
X157673199Y-71372000D01*
X159762697Y-73461500D01*
X159613241Y-73561363D01*
X159413363Y-73761241D01*
X159256320Y-73996273D01*
X159148147Y-74257426D01*
X159093000Y-74534665D01*
X159093000Y-74817335D01*
X159148147Y-75094574D01*
X159256320Y-75355727D01*
X159413363Y-75590759D01*
X159613241Y-75790637D01*
X159848273Y-75947680D01*
X160109426Y-76055853D01*
X160386665Y-76111000D01*
X160669335Y-76111000D01*
X160946574Y-76055853D01*
X161207727Y-75947680D01*
X161442759Y-75790637D01*
X161642637Y-75590759D01*
X161799680Y-75355727D01*
X161907853Y-75094574D01*
X161939080Y-74937584D01*
X168242021Y-74937584D01*
X168334766Y-75199429D01*
X168620120Y-75337820D01*
X168926990Y-75417883D01*
X169243584Y-75436540D01*
X169557733Y-75393074D01*
X169857367Y-75289156D01*
X170025234Y-75199429D01*
X170117979Y-74937584D01*
X169180000Y-73999605D01*
X168242021Y-74937584D01*
X161939080Y-74937584D01*
X161963000Y-74817335D01*
X161963000Y-74534665D01*
X161907853Y-74257426D01*
X161799680Y-73996273D01*
X161724384Y-73883584D01*
X167563460Y-73883584D01*
X167606926Y-74197733D01*
X167710844Y-74497367D01*
X167800571Y-74665234D01*
X168062416Y-74757979D01*
X169000395Y-73820000D01*
X169359605Y-73820000D01*
X170297584Y-74757979D01*
X170559429Y-74665234D01*
X170697820Y-74379880D01*
X170777883Y-74073010D01*
X170796540Y-73756416D01*
X170753074Y-73442267D01*
X170649156Y-73142633D01*
X170559429Y-72974766D01*
X170297584Y-72882021D01*
X169359605Y-73820000D01*
X169000395Y-73820000D01*
X168062416Y-72882021D01*
X167800571Y-72974766D01*
X167662180Y-73260120D01*
X167582117Y-73566990D01*
X167563460Y-73883584D01*
X161724384Y-73883584D01*
X161642637Y-73761241D01*
X161442759Y-73561363D01*
X161288000Y-73457957D01*
X161288000Y-73189322D01*
X161291676Y-73151999D01*
X161288000Y-73114676D01*
X161288000Y-73114667D01*
X161277003Y-73003014D01*
X161233546Y-72859753D01*
X161162974Y-72727724D01*
X161142204Y-72702416D01*
X168242021Y-72702416D01*
X169180000Y-73640395D01*
X170117979Y-72702416D01*
X170025234Y-72440571D01*
X169739880Y-72302180D01*
X169433010Y-72222117D01*
X169116416Y-72203460D01*
X168802267Y-72246926D01*
X168502633Y-72350844D01*
X168334766Y-72440571D01*
X168242021Y-72702416D01*
X161142204Y-72702416D01*
X161091799Y-72640996D01*
X161091795Y-72640992D01*
X161068001Y-72611999D01*
X161039008Y-72588205D01*
X158551804Y-70101003D01*
X158528001Y-70071999D01*
X158412276Y-69977026D01*
X158280247Y-69906454D01*
X158136986Y-69862997D01*
X158025333Y-69852000D01*
X158025322Y-69852000D01*
X157988000Y-69848324D01*
X157950678Y-69852000D01*
X152437322Y-69852000D01*
X152400000Y-69848324D01*
X152362677Y-69852000D01*
X152362667Y-69852000D01*
X152251014Y-69862997D01*
X152107753Y-69906454D01*
X151975723Y-69977026D01*
X151892083Y-70045668D01*
X151859999Y-70071999D01*
X151836201Y-70100997D01*
X150872998Y-71064201D01*
X150844000Y-71087999D01*
X150820202Y-71116997D01*
X150820201Y-71116998D01*
X150749026Y-71203724D01*
X150678454Y-71335754D01*
X150634998Y-71479015D01*
X150620324Y-71628000D01*
X150624001Y-71665332D01*
X150624000Y-77917198D01*
X150053199Y-78488000D01*
X148862874Y-78488000D01*
X148824338Y-78430327D01*
X148645673Y-78251662D01*
X148435586Y-78111286D01*
X148202150Y-78014594D01*
X148018182Y-77978000D01*
X148202150Y-77941406D01*
X148435586Y-77844714D01*
X148645673Y-77704338D01*
X148824338Y-77525673D01*
X148964714Y-77315586D01*
X149061406Y-77082150D01*
X149110700Y-76834335D01*
X149110700Y-76581665D01*
X149061406Y-76333850D01*
X148964714Y-76100414D01*
X148824338Y-75890327D01*
X148645673Y-75711662D01*
X148435586Y-75571286D01*
X148202150Y-75474594D01*
X147955002Y-75425433D01*
X147955002Y-75291952D01*
X148113750Y-75450700D01*
X148475700Y-75453772D01*
X148600182Y-75441512D01*
X148719880Y-75405202D01*
X148830194Y-75346237D01*
X148926885Y-75266885D01*
X149006237Y-75170194D01*
X149065202Y-75059880D01*
X149101512Y-74940182D01*
X149113772Y-74815700D01*
X149110700Y-74453750D01*
X148951950Y-74295000D01*
X147955000Y-74295000D01*
X147955000Y-74315000D01*
X147701000Y-74315000D01*
X147701000Y-74295000D01*
X146704050Y-74295000D01*
X146545300Y-74453750D01*
X146542228Y-74815700D01*
X144337218Y-74815700D01*
X144219608Y-74672392D01*
X144001101Y-74493068D01*
X143751808Y-74359818D01*
X143481309Y-74277764D01*
X143270492Y-74257000D01*
X142729508Y-74257000D01*
X142518691Y-74277764D01*
X142248192Y-74359818D01*
X141998899Y-74493068D01*
X141780392Y-74672392D01*
X141601068Y-74890899D01*
X141467818Y-75140192D01*
X141385764Y-75410691D01*
X141358057Y-75692000D01*
X121781943Y-75692000D01*
X121754236Y-75410691D01*
X121672182Y-75140192D01*
X121538932Y-74890899D01*
X121359608Y-74672392D01*
X121141101Y-74493068D01*
X120891808Y-74359818D01*
X120621309Y-74277764D01*
X120410492Y-74257000D01*
X119869508Y-74257000D01*
X119658691Y-74277764D01*
X119388192Y-74359818D01*
X119138899Y-74493068D01*
X118920392Y-74672392D01*
X118741068Y-74890899D01*
X118607818Y-75140192D01*
X118525764Y-75410691D01*
X118498057Y-75692000D01*
X113660000Y-75692000D01*
X113660000Y-73520300D01*
X146542228Y-73520300D01*
X146545300Y-73882250D01*
X146704050Y-74041000D01*
X147701000Y-74041000D01*
X147701000Y-73044050D01*
X147955000Y-73044050D01*
X147955000Y-74041000D01*
X148951950Y-74041000D01*
X149110700Y-73882250D01*
X149113772Y-73520300D01*
X149101512Y-73395818D01*
X149065202Y-73276120D01*
X149006237Y-73165806D01*
X148926885Y-73069115D01*
X148830194Y-72989763D01*
X148719880Y-72930798D01*
X148600182Y-72894488D01*
X148475700Y-72882228D01*
X148113750Y-72885300D01*
X147955000Y-73044050D01*
X147701000Y-73044050D01*
X147542250Y-72885300D01*
X147180300Y-72882228D01*
X147055818Y-72894488D01*
X146936120Y-72930798D01*
X146825806Y-72989763D01*
X146729115Y-73069115D01*
X146649763Y-73165806D01*
X146590798Y-73276120D01*
X146554488Y-73395818D01*
X146542228Y-73520300D01*
X113660000Y-73520300D01*
X113660000Y-64779872D01*
X114765000Y-64779872D01*
X114765000Y-65220128D01*
X114850890Y-65651925D01*
X115019369Y-66058669D01*
X115263962Y-66424729D01*
X115575271Y-66736038D01*
X115941331Y-66980631D01*
X116348075Y-67149110D01*
X116779872Y-67235000D01*
X117220128Y-67235000D01*
X117651925Y-67149110D01*
X118058669Y-66980631D01*
X118424729Y-66736038D01*
X118736038Y-66424729D01*
X118980631Y-66058669D01*
X119149110Y-65651925D01*
X119235000Y-65220128D01*
X119235000Y-64779872D01*
X169765000Y-64779872D01*
X169765000Y-65220128D01*
X169850890Y-65651925D01*
X170019369Y-66058669D01*
X170263962Y-66424729D01*
X170575271Y-66736038D01*
X170941331Y-66980631D01*
X171348075Y-67149110D01*
X171779872Y-67235000D01*
X172220128Y-67235000D01*
X172651925Y-67149110D01*
X173058669Y-66980631D01*
X173424729Y-66736038D01*
X173736038Y-66424729D01*
X173980631Y-66058669D01*
X174149110Y-65651925D01*
X174235000Y-65220128D01*
X174235000Y-64779872D01*
X174149110Y-64348075D01*
X173980631Y-63941331D01*
X173736038Y-63575271D01*
X173424729Y-63263962D01*
X173058669Y-63019369D01*
X172651925Y-62850890D01*
X172220128Y-62765000D01*
X171779872Y-62765000D01*
X171348075Y-62850890D01*
X170941331Y-63019369D01*
X170575271Y-63263962D01*
X170263962Y-63575271D01*
X170019369Y-63941331D01*
X169850890Y-64348075D01*
X169765000Y-64779872D01*
X119235000Y-64779872D01*
X119149110Y-64348075D01*
X118980631Y-63941331D01*
X118736038Y-63575271D01*
X118424729Y-63263962D01*
X118058669Y-63019369D01*
X117651925Y-62850890D01*
X117220128Y-62765000D01*
X116779872Y-62765000D01*
X116348075Y-62850890D01*
X115941331Y-63019369D01*
X115575271Y-63263962D01*
X115263962Y-63575271D01*
X115019369Y-63941331D01*
X114850890Y-64348075D01*
X114765000Y-64779872D01*
X113660000Y-64779872D01*
X113660000Y-64032279D01*
X113707670Y-63546107D01*
X113839489Y-63109502D01*
X114053600Y-62706815D01*
X114341848Y-62353388D01*
X114693261Y-62062673D01*
X115094439Y-61845758D01*
X115530113Y-61710894D01*
X116014344Y-61660000D01*
X172967721Y-61660000D01*
X173453893Y-61707670D01*
G04 #@! TA.AperFunction,Conductor*
D22*
G36*
X173453893Y-61707670D02*
G01*
X173890498Y-61839489D01*
X174293185Y-62053600D01*
X174646612Y-62341848D01*
X174937327Y-62693261D01*
X175154242Y-63094439D01*
X175289106Y-63530113D01*
X175340000Y-64014344D01*
X175340001Y-103967711D01*
X175292330Y-104453894D01*
X175160512Y-104890497D01*
X174946399Y-105293186D01*
X174658150Y-105646613D01*
X174306739Y-105937327D01*
X173905564Y-106154240D01*
X173469886Y-106289106D01*
X172985664Y-106340000D01*
X116032279Y-106340000D01*
X115546106Y-106292330D01*
X115109503Y-106160512D01*
X114706814Y-105946399D01*
X114353387Y-105658150D01*
X114062673Y-105306739D01*
X113845760Y-104905564D01*
X113710894Y-104469886D01*
X113660000Y-103985664D01*
X113660000Y-102779872D01*
X114765000Y-102779872D01*
X114765000Y-103220128D01*
X114850890Y-103651925D01*
X115019369Y-104058669D01*
X115263962Y-104424729D01*
X115575271Y-104736038D01*
X115941331Y-104980631D01*
X116348075Y-105149110D01*
X116779872Y-105235000D01*
X117220128Y-105235000D01*
X117651925Y-105149110D01*
X118058669Y-104980631D01*
X118424729Y-104736038D01*
X118736038Y-104424729D01*
X118980631Y-104058669D01*
X119149110Y-103651925D01*
X119235000Y-103220128D01*
X119235000Y-102779872D01*
X169765000Y-102779872D01*
X169765000Y-103220128D01*
X169850890Y-103651925D01*
X170019369Y-104058669D01*
X170263962Y-104424729D01*
X170575271Y-104736038D01*
X170941331Y-104980631D01*
X171348075Y-105149110D01*
X171779872Y-105235000D01*
X172220128Y-105235000D01*
X172651925Y-105149110D01*
X173058669Y-104980631D01*
X173424729Y-104736038D01*
X173736038Y-104424729D01*
X173980631Y-104058669D01*
X174149110Y-103651925D01*
X174235000Y-103220128D01*
X174235000Y-102779872D01*
X174149110Y-102348075D01*
X173980631Y-101941331D01*
X173736038Y-101575271D01*
X173424729Y-101263962D01*
X173058669Y-101019369D01*
X172651925Y-100850890D01*
X172220128Y-100765000D01*
X171779872Y-100765000D01*
X171348075Y-100850890D01*
X170941331Y-101019369D01*
X170575271Y-101263962D01*
X170263962Y-101575271D01*
X170019369Y-101941331D01*
X169850890Y-102348075D01*
X169765000Y-102779872D01*
X119235000Y-102779872D01*
X119149110Y-102348075D01*
X118980631Y-101941331D01*
X118736038Y-101575271D01*
X118424729Y-101263962D01*
X118058669Y-101019369D01*
X117651925Y-100850890D01*
X117220128Y-100765000D01*
X116779872Y-100765000D01*
X116348075Y-100850890D01*
X115941331Y-101019369D01*
X115575271Y-101263962D01*
X115263962Y-101575271D01*
X115019369Y-101941331D01*
X114850890Y-102348075D01*
X114765000Y-102779872D01*
X113660000Y-102779872D01*
X113660000Y-80772000D01*
X118498057Y-80772000D01*
X118525764Y-81053309D01*
X118607818Y-81323808D01*
X118741068Y-81573101D01*
X118920392Y-81791608D01*
X119138899Y-81970932D01*
X119271858Y-82042000D01*
X119138899Y-82113068D01*
X118920392Y-82292392D01*
X118741068Y-82510899D01*
X118607818Y-82760192D01*
X118525764Y-83030691D01*
X118498057Y-83312000D01*
X118525764Y-83593309D01*
X118607818Y-83863808D01*
X118741068Y-84113101D01*
X118920392Y-84331608D01*
X119138899Y-84510932D01*
X119271858Y-84582000D01*
X119138899Y-84653068D01*
X118920392Y-84832392D01*
X118741068Y-85050899D01*
X118607818Y-85300192D01*
X118525764Y-85570691D01*
X118498057Y-85852000D01*
X118525764Y-86133309D01*
X118607818Y-86403808D01*
X118741068Y-86653101D01*
X118920392Y-86871608D01*
X119138899Y-87050932D01*
X119271858Y-87122000D01*
X119138899Y-87193068D01*
X118920392Y-87372392D01*
X118741068Y-87590899D01*
X118607818Y-87840192D01*
X118525764Y-88110691D01*
X118498057Y-88392000D01*
X118525764Y-88673309D01*
X118607818Y-88943808D01*
X118741068Y-89193101D01*
X118920392Y-89411608D01*
X119138899Y-89590932D01*
X119271858Y-89662000D01*
X119138899Y-89733068D01*
X118920392Y-89912392D01*
X118741068Y-90130899D01*
X118607818Y-90380192D01*
X118525764Y-90650691D01*
X118498057Y-90932000D01*
X118525764Y-91213309D01*
X118607818Y-91483808D01*
X118741068Y-91733101D01*
X118920392Y-91951608D01*
X119138899Y-92130932D01*
X119271858Y-92202000D01*
X119138899Y-92273068D01*
X118920392Y-92452392D01*
X118741068Y-92670899D01*
X118607818Y-92920192D01*
X118525764Y-93190691D01*
X118498057Y-93472000D01*
X118525764Y-93753309D01*
X118607818Y-94023808D01*
X118741068Y-94273101D01*
X118920392Y-94491608D01*
X119138899Y-94670932D01*
X119388192Y-94804182D01*
X119658691Y-94886236D01*
X119869508Y-94907000D01*
X120410492Y-94907000D01*
X120621309Y-94886236D01*
X120891808Y-94804182D01*
X121141101Y-94670932D01*
X121359608Y-94491608D01*
X121538932Y-94273101D01*
X121672182Y-94023808D01*
X121754236Y-93753309D01*
X121781943Y-93472000D01*
X121754236Y-93190691D01*
X121672182Y-92920192D01*
X121538932Y-92670899D01*
X121359608Y-92452392D01*
X121141101Y-92273068D01*
X121008142Y-92202000D01*
X121141101Y-92130932D01*
X121359608Y-91951608D01*
X121538932Y-91733101D01*
X121672182Y-91483808D01*
X121754236Y-91213309D01*
X121781943Y-90932000D01*
X121754236Y-90650691D01*
X121672182Y-90380192D01*
X121538932Y-90130899D01*
X121359608Y-89912392D01*
X121141101Y-89733068D01*
X121008142Y-89662000D01*
X121141101Y-89590932D01*
X121359608Y-89411608D01*
X121538932Y-89193101D01*
X121672182Y-88943808D01*
X121754236Y-88673309D01*
X121781943Y-88392000D01*
X121754236Y-88110691D01*
X121672182Y-87840192D01*
X121538932Y-87590899D01*
X121359608Y-87372392D01*
X121141101Y-87193068D01*
X121008142Y-87122000D01*
X121141101Y-87050932D01*
X121359608Y-86871608D01*
X121538932Y-86653101D01*
X121672182Y-86403808D01*
X121754236Y-86133309D01*
X121781943Y-85852000D01*
X121754236Y-85570691D01*
X121672182Y-85300192D01*
X121538932Y-85050899D01*
X121359608Y-84832392D01*
X121141101Y-84653068D01*
X121008142Y-84582000D01*
X121141101Y-84510932D01*
X121359608Y-84331608D01*
X121538932Y-84113101D01*
X121672182Y-83863808D01*
X121754236Y-83593309D01*
X121781943Y-83312000D01*
X121754236Y-83030691D01*
X121672182Y-82760192D01*
X121538932Y-82510899D01*
X121359608Y-82292392D01*
X121141101Y-82113068D01*
X121008142Y-82042000D01*
X121141101Y-81970932D01*
X121359608Y-81791608D01*
X121538932Y-81573101D01*
X121672182Y-81323808D01*
X121754236Y-81053309D01*
X121781943Y-80772000D01*
X121754236Y-80490691D01*
X121672182Y-80220192D01*
X121538932Y-79970899D01*
X121359608Y-79752392D01*
X121141101Y-79573068D01*
X121011655Y-79503878D01*
X121029227Y-79496430D01*
X121262662Y-79337673D01*
X121460639Y-79136425D01*
X121615551Y-78900421D01*
X121721444Y-78638730D01*
X121731904Y-78581039D01*
X121609915Y-78359000D01*
X120267000Y-78359000D01*
X120267000Y-78379000D01*
X120013000Y-78379000D01*
X120013000Y-78359000D01*
X118670085Y-78359000D01*
X118548096Y-78581039D01*
X118558556Y-78638730D01*
X118664449Y-78900421D01*
X118819361Y-79136425D01*
X119017338Y-79337673D01*
X119250773Y-79496430D01*
X119268345Y-79503878D01*
X119138899Y-79573068D01*
X118920392Y-79752392D01*
X118741068Y-79970899D01*
X118607818Y-80220192D01*
X118525764Y-80490691D01*
X118498057Y-80772000D01*
X113660000Y-80772000D01*
X113660000Y-75692000D01*
X118498057Y-75692000D01*
X118525764Y-75973309D01*
X118607818Y-76243808D01*
X118741068Y-76493101D01*
X118920392Y-76711608D01*
X119138899Y-76890932D01*
X119268345Y-76960122D01*
X119250773Y-76967570D01*
X119017338Y-77126327D01*
X118819361Y-77327575D01*
X118664449Y-77563579D01*
X118558556Y-77825270D01*
X118548096Y-77882961D01*
X118670085Y-78105000D01*
X120013000Y-78105000D01*
X120013000Y-78085000D01*
X120267000Y-78085000D01*
X120267000Y-78105000D01*
X121609915Y-78105000D01*
X121731904Y-77882961D01*
X121721444Y-77825270D01*
X121615551Y-77563579D01*
X121460639Y-77327575D01*
X121262662Y-77126327D01*
X121029227Y-76967570D01*
X121011655Y-76960122D01*
X121141101Y-76890932D01*
X121359608Y-76711608D01*
X121538932Y-76493101D01*
X121672182Y-76243808D01*
X121754236Y-75973309D01*
X121781943Y-75692000D01*
X141358057Y-75692000D01*
X141385764Y-75973309D01*
X141467818Y-76243808D01*
X141601068Y-76493101D01*
X141780392Y-76711608D01*
X141998899Y-76890932D01*
X142131858Y-76962000D01*
X141998899Y-77033068D01*
X141780392Y-77212392D01*
X141601068Y-77430899D01*
X141467818Y-77680192D01*
X141385764Y-77950691D01*
X141358057Y-78232000D01*
X141385764Y-78513309D01*
X141467818Y-78783808D01*
X141601068Y-79033101D01*
X141780392Y-79251608D01*
X141998899Y-79430932D01*
X142131858Y-79502000D01*
X141998899Y-79573068D01*
X141780392Y-79752392D01*
X141601068Y-79970899D01*
X141467818Y-80220192D01*
X141385764Y-80490691D01*
X141358057Y-80772000D01*
X141385764Y-81053309D01*
X141467818Y-81323808D01*
X141601068Y-81573101D01*
X141780392Y-81791608D01*
X141998899Y-81970932D01*
X142131858Y-82042000D01*
X141998899Y-82113068D01*
X141780392Y-82292392D01*
X141601068Y-82510899D01*
X141467818Y-82760192D01*
X141385764Y-83030691D01*
X141358057Y-83312000D01*
X141385764Y-83593309D01*
X141467818Y-83863808D01*
X141601068Y-84113101D01*
X141780392Y-84331608D01*
X141998899Y-84510932D01*
X142131858Y-84582000D01*
X141998899Y-84653068D01*
X141780392Y-84832392D01*
X141601068Y-85050899D01*
X141467818Y-85300192D01*
X141385764Y-85570691D01*
X141358057Y-85852000D01*
X141385764Y-86133309D01*
X141467818Y-86403808D01*
X141601068Y-86653101D01*
X141780392Y-86871608D01*
X141998899Y-87050932D01*
X142131858Y-87122000D01*
X141998899Y-87193068D01*
X141780392Y-87372392D01*
X141601068Y-87590899D01*
X141467818Y-87840192D01*
X141385764Y-88110691D01*
X141358057Y-88392000D01*
X141385764Y-88673309D01*
X141467818Y-88943808D01*
X141601068Y-89193101D01*
X141780392Y-89411608D01*
X141998899Y-89590932D01*
X142131858Y-89662000D01*
X141998899Y-89733068D01*
X141780392Y-89912392D01*
X141601068Y-90130899D01*
X141467818Y-90380192D01*
X141385764Y-90650691D01*
X141358057Y-90932000D01*
X141385764Y-91213309D01*
X141467818Y-91483808D01*
X141601068Y-91733101D01*
X141733476Y-91894441D01*
X141645506Y-91941463D01*
X141548815Y-92020815D01*
X141469463Y-92117506D01*
X141410498Y-92227820D01*
X141374188Y-92347518D01*
X141361928Y-92472000D01*
X141361928Y-94472000D01*
X141374188Y-94596482D01*
X141410498Y-94716180D01*
X141469463Y-94826494D01*
X141548815Y-94923185D01*
X141645506Y-95002537D01*
X141755820Y-95061502D01*
X141875518Y-95097812D01*
X142000000Y-95110072D01*
X144000000Y-95110072D01*
X144124482Y-95097812D01*
X144244180Y-95061502D01*
X144354494Y-95002537D01*
X144451185Y-94923185D01*
X144530537Y-94826494D01*
X144589502Y-94716180D01*
X144625812Y-94596482D01*
X144638072Y-94472000D01*
X144638072Y-92472000D01*
X144625812Y-92347518D01*
X144589502Y-92227820D01*
X144530537Y-92117506D01*
X144451185Y-92020815D01*
X144354494Y-91941463D01*
X144266524Y-91894441D01*
X144398932Y-91733101D01*
X144532182Y-91483808D01*
X144614236Y-91213309D01*
X144641943Y-90932000D01*
X144614236Y-90650691D01*
X144532182Y-90380192D01*
X144398932Y-90130899D01*
X144219608Y-89912392D01*
X144001101Y-89733068D01*
X143868142Y-89662000D01*
X144001101Y-89590932D01*
X144219608Y-89411608D01*
X144398932Y-89193101D01*
X144420901Y-89152000D01*
X145077199Y-89152000D01*
X145240000Y-89314802D01*
X145240001Y-93954668D01*
X145236324Y-93992000D01*
X145250998Y-94140985D01*
X145294454Y-94284246D01*
X145365026Y-94416276D01*
X145410758Y-94472000D01*
X145460000Y-94532001D01*
X145488998Y-94555799D01*
X146440205Y-95507008D01*
X146463999Y-95536001D01*
X146492992Y-95559795D01*
X146492996Y-95559799D01*
X146563685Y-95617811D01*
X146579724Y-95630974D01*
X146711753Y-95701546D01*
X146855014Y-95745003D01*
X146966667Y-95756000D01*
X146966676Y-95756000D01*
X147003999Y-95759676D01*
X147041322Y-95756000D01*
X150053199Y-95756000D01*
X150624000Y-96326802D01*
X150624000Y-96765821D01*
X150437368Y-96890525D01*
X150305513Y-97022380D01*
X150283502Y-96949820D01*
X150224537Y-96839506D01*
X150145185Y-96742815D01*
X150048494Y-96663463D01*
X149938180Y-96604498D01*
X149818482Y-96568188D01*
X149694000Y-96555928D01*
X147994000Y-96555928D01*
X147869518Y-96568188D01*
X147749820Y-96604498D01*
X147639506Y-96663463D01*
X147542815Y-96742815D01*
X147463463Y-96839506D01*
X147404498Y-96949820D01*
X147368188Y-97069518D01*
X147355928Y-97194000D01*
X147355928Y-98894000D01*
X147368188Y-99018482D01*
X147404498Y-99138180D01*
X147463463Y-99248494D01*
X147542815Y-99345185D01*
X147639506Y-99424537D01*
X147749820Y-99483502D01*
X147869518Y-99519812D01*
X147994000Y-99532072D01*
X149694000Y-99532072D01*
X149818482Y-99519812D01*
X149938180Y-99483502D01*
X150048494Y-99424537D01*
X150145185Y-99345185D01*
X150224537Y-99248494D01*
X150283502Y-99138180D01*
X150305513Y-99065620D01*
X150437368Y-99197475D01*
X150680589Y-99359990D01*
X150950842Y-99471932D01*
X151237740Y-99529000D01*
X151530260Y-99529000D01*
X151817158Y-99471932D01*
X152087411Y-99359990D01*
X152330632Y-99197475D01*
X152537475Y-98990632D01*
X152659195Y-98808466D01*
X152728822Y-98925355D01*
X152923731Y-99141588D01*
X153157080Y-99315641D01*
X153419901Y-99440825D01*
X153567110Y-99485476D01*
X153797000Y-99364155D01*
X153797000Y-98171000D01*
X154051000Y-98171000D01*
X154051000Y-99364155D01*
X154280890Y-99485476D01*
X154428099Y-99440825D01*
X154690920Y-99315641D01*
X154924269Y-99141588D01*
X155119178Y-98925355D01*
X155268157Y-98675252D01*
X155365481Y-98400891D01*
X155244814Y-98171000D01*
X154051000Y-98171000D01*
X153797000Y-98171000D01*
X153777000Y-98171000D01*
X153777000Y-97917000D01*
X153797000Y-97917000D01*
X153797000Y-96723845D01*
X154051000Y-96723845D01*
X154051000Y-97917000D01*
X155244814Y-97917000D01*
X155365481Y-97687109D01*
X155268157Y-97412748D01*
X155119178Y-97162645D01*
X154924269Y-96946412D01*
X154690920Y-96772359D01*
X154428099Y-96647175D01*
X154280890Y-96602524D01*
X154051000Y-96723845D01*
X153797000Y-96723845D01*
X153567110Y-96602524D01*
X153419901Y-96647175D01*
X153157080Y-96772359D01*
X152923731Y-96946412D01*
X152728822Y-97162645D01*
X152659195Y-97279534D01*
X152537475Y-97097368D01*
X152330632Y-96890525D01*
X152144000Y-96765822D01*
X152144000Y-96049322D01*
X152147676Y-96012000D01*
X152144000Y-95974677D01*
X152144000Y-95974667D01*
X152133003Y-95863014D01*
X152089546Y-95719753D01*
X152079814Y-95701546D01*
X152018974Y-95587723D01*
X151947799Y-95500997D01*
X151924001Y-95471999D01*
X151895004Y-95448202D01*
X150931804Y-94485002D01*
X150908001Y-94455999D01*
X150792276Y-94361026D01*
X150660247Y-94290454D01*
X150516986Y-94246997D01*
X150405333Y-94236000D01*
X150405322Y-94236000D01*
X150368000Y-94232324D01*
X150330678Y-94236000D01*
X147318803Y-94236000D01*
X147107803Y-94025000D01*
X167566928Y-94025000D01*
X167566928Y-95975000D01*
X167579188Y-96099482D01*
X167615498Y-96219180D01*
X167674463Y-96329494D01*
X167753815Y-96426185D01*
X167850506Y-96505537D01*
X167960820Y-96564502D01*
X168080518Y-96600812D01*
X168205000Y-96613072D01*
X170155000Y-96613072D01*
X170279482Y-96600812D01*
X170399180Y-96564502D01*
X170509494Y-96505537D01*
X170606185Y-96426185D01*
X170685537Y-96329494D01*
X170744502Y-96219180D01*
X170780812Y-96099482D01*
X170793072Y-95975000D01*
X170793072Y-94025000D01*
X170780812Y-93900518D01*
X170744502Y-93780820D01*
X170685537Y-93670506D01*
X170606185Y-93573815D01*
X170509494Y-93494463D01*
X170399180Y-93435498D01*
X170279482Y-93399188D01*
X170155000Y-93386928D01*
X168205000Y-93386928D01*
X168080518Y-93399188D01*
X167960820Y-93435498D01*
X167850506Y-93494463D01*
X167753815Y-93573815D01*
X167674463Y-93670506D01*
X167615498Y-93780820D01*
X167579188Y-93900518D01*
X167566928Y-94025000D01*
X147107803Y-94025000D01*
X146760000Y-93677199D01*
X146760000Y-91117584D01*
X168242021Y-91117584D01*
X168334766Y-91379429D01*
X168620120Y-91517820D01*
X168926990Y-91597883D01*
X169243584Y-91616540D01*
X169557733Y-91573074D01*
X169857367Y-91469156D01*
X170025234Y-91379429D01*
X170117979Y-91117584D01*
X169180000Y-90179605D01*
X168242021Y-91117584D01*
X146760000Y-91117584D01*
X146760000Y-90291882D01*
X147123723Y-90291882D01*
X147176832Y-90520321D01*
X147406347Y-90625985D01*
X147652066Y-90684843D01*
X147904546Y-90694631D01*
X148154084Y-90654975D01*
X148391092Y-90567399D01*
X148479168Y-90520321D01*
X148532277Y-90291882D01*
X147828000Y-89587605D01*
X147123723Y-90291882D01*
X146760000Y-90291882D01*
X146760000Y-90069472D01*
X146944118Y-90112277D01*
X147648395Y-89408000D01*
X148007605Y-89408000D01*
X148711882Y-90112277D01*
X148940321Y-90059168D01*
X149045985Y-89829653D01*
X149104843Y-89583934D01*
X149114631Y-89331454D01*
X149106719Y-89281665D01*
X154165300Y-89281665D01*
X154165300Y-89534335D01*
X154214594Y-89782150D01*
X154311286Y-90015586D01*
X154451662Y-90225673D01*
X154630327Y-90404338D01*
X154840414Y-90544714D01*
X155073850Y-90641406D01*
X155321665Y-90690700D01*
X155574335Y-90690700D01*
X155822150Y-90641406D01*
X156055586Y-90544714D01*
X156265673Y-90404338D01*
X156444338Y-90225673D01*
X156552642Y-90063584D01*
X167563460Y-90063584D01*
X167606926Y-90377733D01*
X167710844Y-90677367D01*
X167800571Y-90845234D01*
X168062416Y-90937979D01*
X169000395Y-90000000D01*
X169359605Y-90000000D01*
X170297584Y-90937979D01*
X170559429Y-90845234D01*
X170697820Y-90559880D01*
X170777883Y-90253010D01*
X170796540Y-89936416D01*
X170753074Y-89622267D01*
X170649156Y-89322633D01*
X170559429Y-89154766D01*
X170297584Y-89062021D01*
X169359605Y-90000000D01*
X169000395Y-90000000D01*
X168062416Y-89062021D01*
X167800571Y-89154766D01*
X167662180Y-89440120D01*
X167582117Y-89746990D01*
X167563460Y-90063584D01*
X156552642Y-90063584D01*
X156584714Y-90015586D01*
X156681406Y-89782150D01*
X156730700Y-89534335D01*
X156730700Y-89281665D01*
X156681406Y-89033850D01*
X156618681Y-88882416D01*
X168242021Y-88882416D01*
X169180000Y-89820395D01*
X170117979Y-88882416D01*
X170025234Y-88620571D01*
X169739880Y-88482180D01*
X169433010Y-88402117D01*
X169116416Y-88383460D01*
X168802267Y-88426926D01*
X168502633Y-88530844D01*
X168334766Y-88620571D01*
X168242021Y-88882416D01*
X156618681Y-88882416D01*
X156584714Y-88800414D01*
X156444338Y-88590327D01*
X156265673Y-88411662D01*
X156055586Y-88271286D01*
X155822150Y-88174594D01*
X155634192Y-88137206D01*
X155774084Y-88114975D01*
X156011092Y-88027399D01*
X156099168Y-87980321D01*
X156152277Y-87751882D01*
X155448000Y-87047605D01*
X154743723Y-87751882D01*
X154796832Y-87980321D01*
X155026347Y-88085985D01*
X155249995Y-88139556D01*
X155073850Y-88174594D01*
X154840414Y-88271286D01*
X154630327Y-88411662D01*
X154451662Y-88590327D01*
X154311286Y-88800414D01*
X154214594Y-89033850D01*
X154165300Y-89281665D01*
X149106719Y-89281665D01*
X149074975Y-89081916D01*
X148987399Y-88844908D01*
X148940321Y-88756832D01*
X148711882Y-88703723D01*
X148007605Y-89408000D01*
X147648395Y-89408000D01*
X146944118Y-88703723D01*
X146720120Y-88755799D01*
X146705546Y-88707753D01*
X146634974Y-88575724D01*
X146540001Y-88459999D01*
X146511004Y-88436202D01*
X145955803Y-87881002D01*
X145932001Y-87851999D01*
X145816276Y-87757026D01*
X145684247Y-87686454D01*
X145540986Y-87642997D01*
X145429333Y-87632000D01*
X145429322Y-87632000D01*
X145392000Y-87628324D01*
X145354678Y-87632000D01*
X144420901Y-87632000D01*
X144398932Y-87590899D01*
X144219608Y-87372392D01*
X144001101Y-87193068D01*
X143868142Y-87122000D01*
X144001101Y-87050932D01*
X144219608Y-86871608D01*
X144326249Y-86741665D01*
X146545300Y-86741665D01*
X146545300Y-86994335D01*
X146594594Y-87242150D01*
X146691286Y-87475586D01*
X146831662Y-87685673D01*
X147010327Y-87864338D01*
X147220414Y-88004714D01*
X147453850Y-88101406D01*
X147641808Y-88138794D01*
X147501916Y-88161025D01*
X147264908Y-88248601D01*
X147176832Y-88295679D01*
X147123723Y-88524118D01*
X147828000Y-89228395D01*
X148532277Y-88524118D01*
X148479168Y-88295679D01*
X148249653Y-88190015D01*
X148026005Y-88136444D01*
X148202150Y-88101406D01*
X148435586Y-88004714D01*
X148645673Y-87864338D01*
X148824338Y-87685673D01*
X148964714Y-87475586D01*
X149061406Y-87242150D01*
X149110700Y-86994335D01*
X149110700Y-86944546D01*
X154161369Y-86944546D01*
X154201025Y-87194084D01*
X154288601Y-87431092D01*
X154335679Y-87519168D01*
X154564118Y-87572277D01*
X155268395Y-86868000D01*
X155627605Y-86868000D01*
X156331882Y-87572277D01*
X156560321Y-87519168D01*
X156665985Y-87289653D01*
X156724843Y-87043934D01*
X156734631Y-86791454D01*
X156694975Y-86541916D01*
X156607399Y-86304908D01*
X156560321Y-86216832D01*
X156331882Y-86163723D01*
X155627605Y-86868000D01*
X155268395Y-86868000D01*
X154564118Y-86163723D01*
X154335679Y-86216832D01*
X154230015Y-86446347D01*
X154171157Y-86692066D01*
X154161369Y-86944546D01*
X149110700Y-86944546D01*
X149110700Y-86741665D01*
X149061406Y-86493850D01*
X148964714Y-86260414D01*
X148824338Y-86050327D01*
X148645673Y-85871662D01*
X148435586Y-85731286D01*
X148202150Y-85634594D01*
X148014192Y-85597206D01*
X148154084Y-85574975D01*
X148391092Y-85487399D01*
X148479168Y-85440321D01*
X148532277Y-85211882D01*
X147828000Y-84507605D01*
X147123723Y-85211882D01*
X147176832Y-85440321D01*
X147406347Y-85545985D01*
X147629995Y-85599556D01*
X147453850Y-85634594D01*
X147220414Y-85731286D01*
X147010327Y-85871662D01*
X146831662Y-86050327D01*
X146691286Y-86260414D01*
X146594594Y-86493850D01*
X146545300Y-86741665D01*
X144326249Y-86741665D01*
X144398932Y-86653101D01*
X144532182Y-86403808D01*
X144614236Y-86133309D01*
X144641943Y-85852000D01*
X144614236Y-85570691D01*
X144532182Y-85300192D01*
X144398932Y-85050899D01*
X144219608Y-84832392D01*
X144001101Y-84653068D01*
X143868142Y-84582000D01*
X144001101Y-84510932D01*
X144130732Y-84404546D01*
X146541369Y-84404546D01*
X146581025Y-84654084D01*
X146668601Y-84891092D01*
X146715679Y-84979168D01*
X146944118Y-85032277D01*
X147648395Y-84328000D01*
X148007605Y-84328000D01*
X148711882Y-85032277D01*
X148940321Y-84979168D01*
X149045985Y-84749653D01*
X149104843Y-84503934D01*
X149114631Y-84251454D01*
X149074975Y-84001916D01*
X148987399Y-83764908D01*
X148940321Y-83676832D01*
X148711882Y-83623723D01*
X148007605Y-84328000D01*
X147648395Y-84328000D01*
X146944118Y-83623723D01*
X146715679Y-83676832D01*
X146610015Y-83906347D01*
X146551157Y-84152066D01*
X146541369Y-84404546D01*
X144130732Y-84404546D01*
X144219608Y-84331608D01*
X144398932Y-84113101D01*
X144532182Y-83863808D01*
X144614236Y-83593309D01*
X144641943Y-83312000D01*
X144614236Y-83030691D01*
X144532182Y-82760192D01*
X144398932Y-82510899D01*
X144219608Y-82292392D01*
X144001101Y-82113068D01*
X143868142Y-82042000D01*
X144001101Y-81970932D01*
X144219608Y-81791608D01*
X144398932Y-81573101D01*
X144532182Y-81323808D01*
X144614236Y-81053309D01*
X144641943Y-80772000D01*
X144614236Y-80490691D01*
X144532182Y-80220192D01*
X144398932Y-79970899D01*
X144219608Y-79752392D01*
X144001101Y-79573068D01*
X143868142Y-79502000D01*
X144001101Y-79430932D01*
X144219608Y-79251608D01*
X144398932Y-79033101D01*
X144532182Y-78783808D01*
X144614236Y-78513309D01*
X144641943Y-78232000D01*
X144614236Y-77950691D01*
X144532182Y-77680192D01*
X144398932Y-77430899D01*
X144219608Y-77212392D01*
X144001101Y-77033068D01*
X143868142Y-76962000D01*
X144001101Y-76890932D01*
X144219608Y-76711608D01*
X144398932Y-76493101D01*
X144532182Y-76243808D01*
X144614236Y-75973309D01*
X144641943Y-75692000D01*
X144614236Y-75410691D01*
X144532182Y-75140192D01*
X144398932Y-74890899D01*
X144337218Y-74815700D01*
X146542228Y-74815700D01*
X146554488Y-74940182D01*
X146590798Y-75059880D01*
X146649763Y-75170194D01*
X146729115Y-75266885D01*
X146825806Y-75346237D01*
X146936120Y-75405202D01*
X147055818Y-75441512D01*
X147180300Y-75453772D01*
X147542250Y-75450700D01*
X147700998Y-75291952D01*
X147700998Y-75425433D01*
X147453850Y-75474594D01*
X147220414Y-75571286D01*
X147010327Y-75711662D01*
X146831662Y-75890327D01*
X146691286Y-76100414D01*
X146594594Y-76333850D01*
X146545300Y-76581665D01*
X146545300Y-76834335D01*
X146594594Y-77082150D01*
X146691286Y-77315586D01*
X146831662Y-77525673D01*
X147010327Y-77704338D01*
X147220414Y-77844714D01*
X147453850Y-77941406D01*
X147637818Y-77978000D01*
X147453850Y-78014594D01*
X147220414Y-78111286D01*
X147010327Y-78251662D01*
X146831662Y-78430327D01*
X146691286Y-78640414D01*
X146594594Y-78873850D01*
X146545300Y-79121665D01*
X146545300Y-79374335D01*
X146594594Y-79622150D01*
X146691286Y-79855586D01*
X146831662Y-80065673D01*
X147010327Y-80244338D01*
X147220414Y-80384714D01*
X147453850Y-80481406D01*
X147637818Y-80518000D01*
X147453850Y-80554594D01*
X147220414Y-80651286D01*
X147010327Y-80791662D01*
X146831662Y-80970327D01*
X146691286Y-81180414D01*
X146594594Y-81413850D01*
X146545300Y-81661665D01*
X146545300Y-81914335D01*
X146594594Y-82162150D01*
X146691286Y-82395586D01*
X146831662Y-82605673D01*
X147010327Y-82784338D01*
X147220414Y-82924714D01*
X147453850Y-83021406D01*
X147641808Y-83058794D01*
X147501916Y-83081025D01*
X147264908Y-83168601D01*
X147176832Y-83215679D01*
X147123723Y-83444118D01*
X147828000Y-84148395D01*
X148532277Y-83444118D01*
X148479168Y-83215679D01*
X148249653Y-83110015D01*
X148026005Y-83056444D01*
X148202150Y-83021406D01*
X148435586Y-82924714D01*
X148645673Y-82784338D01*
X148824338Y-82605673D01*
X148964714Y-82395586D01*
X149061406Y-82162150D01*
X149110700Y-81914335D01*
X149110700Y-81661665D01*
X154165300Y-81661665D01*
X154165300Y-81914335D01*
X154214594Y-82162150D01*
X154311286Y-82395586D01*
X154451662Y-82605673D01*
X154630327Y-82784338D01*
X154840414Y-82924714D01*
X155073850Y-83021406D01*
X155257818Y-83058000D01*
X155073850Y-83094594D01*
X154840414Y-83191286D01*
X154630327Y-83331662D01*
X154451662Y-83510327D01*
X154311286Y-83720414D01*
X154214594Y-83953850D01*
X154165300Y-84201665D01*
X154165300Y-84454335D01*
X154214594Y-84702150D01*
X154311286Y-84935586D01*
X154451662Y-85145673D01*
X154630327Y-85324338D01*
X154840414Y-85464714D01*
X155073850Y-85561406D01*
X155261808Y-85598794D01*
X155121916Y-85621025D01*
X154884908Y-85708601D01*
X154796832Y-85755679D01*
X154743723Y-85984118D01*
X155448000Y-86688395D01*
X156152277Y-85984118D01*
X156099168Y-85755679D01*
X155869653Y-85650015D01*
X155646005Y-85596444D01*
X155822150Y-85561406D01*
X156055586Y-85464714D01*
X156265673Y-85324338D01*
X156444338Y-85145673D01*
X156584714Y-84935586D01*
X156681406Y-84702150D01*
X156730700Y-84454335D01*
X156730700Y-84201665D01*
X156681406Y-83953850D01*
X156584714Y-83720414D01*
X156444338Y-83510327D01*
X156265673Y-83331662D01*
X156055586Y-83191286D01*
X155822150Y-83094594D01*
X155638182Y-83058000D01*
X155822150Y-83021406D01*
X156055586Y-82924714D01*
X156265673Y-82784338D01*
X156444338Y-82605673D01*
X156584714Y-82395586D01*
X156681406Y-82162150D01*
X156682894Y-82154665D01*
X159093000Y-82154665D01*
X159093000Y-82437335D01*
X159148147Y-82714574D01*
X159256320Y-82975727D01*
X159413363Y-83210759D01*
X159613241Y-83410637D01*
X159848273Y-83567680D01*
X160109426Y-83675853D01*
X160386665Y-83731000D01*
X160669335Y-83731000D01*
X160946574Y-83675853D01*
X161207727Y-83567680D01*
X161442759Y-83410637D01*
X161642637Y-83210759D01*
X161746043Y-83056000D01*
X162522678Y-83056000D01*
X162560000Y-83059676D01*
X162597322Y-83056000D01*
X162597333Y-83056000D01*
X162708986Y-83045003D01*
X162852247Y-83001546D01*
X162984276Y-82930974D01*
X163089035Y-82845000D01*
X167566928Y-82845000D01*
X167566928Y-84795000D01*
X167579188Y-84919482D01*
X167615498Y-85039180D01*
X167674463Y-85149494D01*
X167753815Y-85246185D01*
X167850506Y-85325537D01*
X167960820Y-85384502D01*
X168080518Y-85420812D01*
X168205000Y-85433072D01*
X170155000Y-85433072D01*
X170279482Y-85420812D01*
X170399180Y-85384502D01*
X170509494Y-85325537D01*
X170606185Y-85246185D01*
X170685537Y-85149494D01*
X170744502Y-85039180D01*
X170780812Y-84919482D01*
X170793072Y-84795000D01*
X170793072Y-82845000D01*
X170780812Y-82720518D01*
X170744502Y-82600820D01*
X170685537Y-82490506D01*
X170606185Y-82393815D01*
X170509494Y-82314463D01*
X170399180Y-82255498D01*
X170279482Y-82219188D01*
X170155000Y-82206928D01*
X168205000Y-82206928D01*
X168080518Y-82219188D01*
X167960820Y-82255498D01*
X167850506Y-82314463D01*
X167753815Y-82393815D01*
X167674463Y-82490506D01*
X167615498Y-82600820D01*
X167579188Y-82720518D01*
X167566928Y-82845000D01*
X163089035Y-82845000D01*
X163100001Y-82836001D01*
X163123804Y-82806997D01*
X166350802Y-79580000D01*
X167752151Y-79580000D01*
X167753237Y-79582621D01*
X167929431Y-79846315D01*
X168153685Y-80070569D01*
X168417379Y-80246763D01*
X168710380Y-80368129D01*
X169021429Y-80430000D01*
X169338571Y-80430000D01*
X169649620Y-80368129D01*
X169942621Y-80246763D01*
X170206315Y-80070569D01*
X170430569Y-79846315D01*
X170606763Y-79582621D01*
X170728129Y-79289620D01*
X170790000Y-78978571D01*
X170790000Y-78661429D01*
X170728129Y-78350380D01*
X170606763Y-78057379D01*
X170430569Y-77793685D01*
X170206315Y-77569431D01*
X169942621Y-77393237D01*
X169649620Y-77271871D01*
X169338571Y-77210000D01*
X169021429Y-77210000D01*
X168710380Y-77271871D01*
X168417379Y-77393237D01*
X168153685Y-77569431D01*
X167929431Y-77793685D01*
X167753237Y-78057379D01*
X167752151Y-78060000D01*
X166073322Y-78060000D01*
X166035999Y-78056324D01*
X165998676Y-78060000D01*
X165998667Y-78060000D01*
X165887014Y-78070997D01*
X165743753Y-78114454D01*
X165611724Y-78185026D01*
X165495999Y-78279999D01*
X165472201Y-78308997D01*
X162245199Y-81536000D01*
X161746043Y-81536000D01*
X161642637Y-81381241D01*
X161442759Y-81181363D01*
X161207727Y-81024320D01*
X160946574Y-80916147D01*
X160669335Y-80861000D01*
X160386665Y-80861000D01*
X160109426Y-80916147D01*
X159848273Y-81024320D01*
X159613241Y-81181363D01*
X159413363Y-81381241D01*
X159256320Y-81616273D01*
X159148147Y-81877426D01*
X159093000Y-82154665D01*
X156682894Y-82154665D01*
X156730700Y-81914335D01*
X156730700Y-81661665D01*
X156681406Y-81413850D01*
X156584714Y-81180414D01*
X156444338Y-80970327D01*
X156265673Y-80791662D01*
X156055586Y-80651286D01*
X155822150Y-80554594D01*
X155634192Y-80517206D01*
X155774084Y-80494975D01*
X156011092Y-80407399D01*
X156099168Y-80360321D01*
X156152277Y-80131882D01*
X155448000Y-79427605D01*
X154743723Y-80131882D01*
X154796832Y-80360321D01*
X155026347Y-80465985D01*
X155249995Y-80519556D01*
X155073850Y-80554594D01*
X154840414Y-80651286D01*
X154630327Y-80791662D01*
X154451662Y-80970327D01*
X154311286Y-81180414D01*
X154214594Y-81413850D01*
X154165300Y-81661665D01*
X149110700Y-81661665D01*
X149061406Y-81413850D01*
X148964714Y-81180414D01*
X148824338Y-80970327D01*
X148645673Y-80791662D01*
X148435586Y-80651286D01*
X148202150Y-80554594D01*
X148018182Y-80518000D01*
X148202150Y-80481406D01*
X148435586Y-80384714D01*
X148645673Y-80244338D01*
X148824338Y-80065673D01*
X148862874Y-80008000D01*
X150330678Y-80008000D01*
X150368000Y-80011676D01*
X150405322Y-80008000D01*
X150405333Y-80008000D01*
X150516986Y-79997003D01*
X150660247Y-79953546D01*
X150792276Y-79882974D01*
X150908001Y-79788001D01*
X150931804Y-79758998D01*
X151366256Y-79324546D01*
X154161369Y-79324546D01*
X154201025Y-79574084D01*
X154288601Y-79811092D01*
X154335679Y-79899168D01*
X154564118Y-79952277D01*
X155268395Y-79248000D01*
X155627605Y-79248000D01*
X156331882Y-79952277D01*
X156560321Y-79899168D01*
X156665985Y-79669653D01*
X156724843Y-79423934D01*
X156734631Y-79171454D01*
X156694975Y-78921916D01*
X156607399Y-78684908D01*
X156560321Y-78596832D01*
X156331882Y-78543723D01*
X155627605Y-79248000D01*
X155268395Y-79248000D01*
X154564118Y-78543723D01*
X154335679Y-78596832D01*
X154230015Y-78826347D01*
X154171157Y-79072066D01*
X154161369Y-79324546D01*
X151366256Y-79324546D01*
X151895004Y-78795798D01*
X151924001Y-78772001D01*
X151976526Y-78707999D01*
X152018974Y-78656277D01*
X152089546Y-78524247D01*
X152100541Y-78488000D01*
X152133003Y-78380986D01*
X152144000Y-78269333D01*
X152144000Y-78269323D01*
X152147676Y-78232000D01*
X152144000Y-78194678D01*
X152144000Y-74041665D01*
X154165300Y-74041665D01*
X154165300Y-74294335D01*
X154214594Y-74542150D01*
X154311286Y-74775586D01*
X154451662Y-74985673D01*
X154630327Y-75164338D01*
X154840414Y-75304714D01*
X155073850Y-75401406D01*
X155257818Y-75438000D01*
X155073850Y-75474594D01*
X154840414Y-75571286D01*
X154630327Y-75711662D01*
X154451662Y-75890327D01*
X154311286Y-76100414D01*
X154214594Y-76333850D01*
X154165300Y-76581665D01*
X154165300Y-76834335D01*
X154214594Y-77082150D01*
X154311286Y-77315586D01*
X154451662Y-77525673D01*
X154630327Y-77704338D01*
X154840414Y-77844714D01*
X155073850Y-77941406D01*
X155261808Y-77978794D01*
X155121916Y-78001025D01*
X154884908Y-78088601D01*
X154796832Y-78135679D01*
X154743723Y-78364118D01*
X155448000Y-79068395D01*
X156152277Y-78364118D01*
X156099168Y-78135679D01*
X155869653Y-78030015D01*
X155646005Y-77976444D01*
X155822150Y-77941406D01*
X156055586Y-77844714D01*
X156265673Y-77704338D01*
X156444338Y-77525673D01*
X156584714Y-77315586D01*
X156681406Y-77082150D01*
X156730700Y-76834335D01*
X156730700Y-76581665D01*
X156681406Y-76333850D01*
X156584714Y-76100414D01*
X156444338Y-75890327D01*
X156265673Y-75711662D01*
X156055586Y-75571286D01*
X155822150Y-75474594D01*
X155638182Y-75438000D01*
X155822150Y-75401406D01*
X156055586Y-75304714D01*
X156265673Y-75164338D01*
X156444338Y-74985673D01*
X156584714Y-74775586D01*
X156681406Y-74542150D01*
X156730700Y-74294335D01*
X156730700Y-74041665D01*
X156681406Y-73793850D01*
X156584714Y-73560414D01*
X156444338Y-73350327D01*
X156265673Y-73171662D01*
X156055586Y-73031286D01*
X155822150Y-72934594D01*
X155574335Y-72885300D01*
X155321665Y-72885300D01*
X155073850Y-72934594D01*
X154840414Y-73031286D01*
X154630327Y-73171662D01*
X154451662Y-73350327D01*
X154311286Y-73560414D01*
X154214594Y-73793850D01*
X154165300Y-74041665D01*
X152144000Y-74041665D01*
X152144000Y-71942801D01*
X152714802Y-71372000D01*
X157673199Y-71372000D01*
X159762697Y-73461500D01*
X159613241Y-73561363D01*
X159413363Y-73761241D01*
X159256320Y-73996273D01*
X159148147Y-74257426D01*
X159093000Y-74534665D01*
X159093000Y-74817335D01*
X159148147Y-75094574D01*
X159256320Y-75355727D01*
X159413363Y-75590759D01*
X159613241Y-75790637D01*
X159848273Y-75947680D01*
X160109426Y-76055853D01*
X160386665Y-76111000D01*
X160669335Y-76111000D01*
X160946574Y-76055853D01*
X161207727Y-75947680D01*
X161442759Y-75790637D01*
X161642637Y-75590759D01*
X161799680Y-75355727D01*
X161907853Y-75094574D01*
X161939080Y-74937584D01*
X168242021Y-74937584D01*
X168334766Y-75199429D01*
X168620120Y-75337820D01*
X168926990Y-75417883D01*
X169243584Y-75436540D01*
X169557733Y-75393074D01*
X169857367Y-75289156D01*
X170025234Y-75199429D01*
X170117979Y-74937584D01*
X169180000Y-73999605D01*
X168242021Y-74937584D01*
X161939080Y-74937584D01*
X161963000Y-74817335D01*
X161963000Y-74534665D01*
X161907853Y-74257426D01*
X161799680Y-73996273D01*
X161724384Y-73883584D01*
X167563460Y-73883584D01*
X167606926Y-74197733D01*
X167710844Y-74497367D01*
X167800571Y-74665234D01*
X168062416Y-74757979D01*
X169000395Y-73820000D01*
X169359605Y-73820000D01*
X170297584Y-74757979D01*
X170559429Y-74665234D01*
X170697820Y-74379880D01*
X170777883Y-74073010D01*
X170796540Y-73756416D01*
X170753074Y-73442267D01*
X170649156Y-73142633D01*
X170559429Y-72974766D01*
X170297584Y-72882021D01*
X169359605Y-73820000D01*
X169000395Y-73820000D01*
X168062416Y-72882021D01*
X167800571Y-72974766D01*
X167662180Y-73260120D01*
X167582117Y-73566990D01*
X167563460Y-73883584D01*
X161724384Y-73883584D01*
X161642637Y-73761241D01*
X161442759Y-73561363D01*
X161288000Y-73457957D01*
X161288000Y-73189322D01*
X161291676Y-73151999D01*
X161288000Y-73114676D01*
X161288000Y-73114667D01*
X161277003Y-73003014D01*
X161233546Y-72859753D01*
X161162974Y-72727724D01*
X161142204Y-72702416D01*
X168242021Y-72702416D01*
X169180000Y-73640395D01*
X170117979Y-72702416D01*
X170025234Y-72440571D01*
X169739880Y-72302180D01*
X169433010Y-72222117D01*
X169116416Y-72203460D01*
X168802267Y-72246926D01*
X168502633Y-72350844D01*
X168334766Y-72440571D01*
X168242021Y-72702416D01*
X161142204Y-72702416D01*
X161091799Y-72640996D01*
X161091795Y-72640992D01*
X161068001Y-72611999D01*
X161039008Y-72588205D01*
X158551804Y-70101003D01*
X158528001Y-70071999D01*
X158412276Y-69977026D01*
X158280247Y-69906454D01*
X158136986Y-69862997D01*
X158025333Y-69852000D01*
X158025322Y-69852000D01*
X157988000Y-69848324D01*
X157950678Y-69852000D01*
X152437322Y-69852000D01*
X152400000Y-69848324D01*
X152362677Y-69852000D01*
X152362667Y-69852000D01*
X152251014Y-69862997D01*
X152107753Y-69906454D01*
X151975723Y-69977026D01*
X151892083Y-70045668D01*
X151859999Y-70071999D01*
X151836201Y-70100997D01*
X150872998Y-71064201D01*
X150844000Y-71087999D01*
X150820202Y-71116997D01*
X150820201Y-71116998D01*
X150749026Y-71203724D01*
X150678454Y-71335754D01*
X150634998Y-71479015D01*
X150620324Y-71628000D01*
X150624001Y-71665332D01*
X150624000Y-77917198D01*
X150053199Y-78488000D01*
X148862874Y-78488000D01*
X148824338Y-78430327D01*
X148645673Y-78251662D01*
X148435586Y-78111286D01*
X148202150Y-78014594D01*
X148018182Y-77978000D01*
X148202150Y-77941406D01*
X148435586Y-77844714D01*
X148645673Y-77704338D01*
X148824338Y-77525673D01*
X148964714Y-77315586D01*
X149061406Y-77082150D01*
X149110700Y-76834335D01*
X149110700Y-76581665D01*
X149061406Y-76333850D01*
X148964714Y-76100414D01*
X148824338Y-75890327D01*
X148645673Y-75711662D01*
X148435586Y-75571286D01*
X148202150Y-75474594D01*
X147955002Y-75425433D01*
X147955002Y-75291952D01*
X148113750Y-75450700D01*
X148475700Y-75453772D01*
X148600182Y-75441512D01*
X148719880Y-75405202D01*
X148830194Y-75346237D01*
X148926885Y-75266885D01*
X149006237Y-75170194D01*
X149065202Y-75059880D01*
X149101512Y-74940182D01*
X149113772Y-74815700D01*
X149110700Y-74453750D01*
X148951950Y-74295000D01*
X147955000Y-74295000D01*
X147955000Y-74315000D01*
X147701000Y-74315000D01*
X147701000Y-74295000D01*
X146704050Y-74295000D01*
X146545300Y-74453750D01*
X146542228Y-74815700D01*
X144337218Y-74815700D01*
X144219608Y-74672392D01*
X144001101Y-74493068D01*
X143751808Y-74359818D01*
X143481309Y-74277764D01*
X143270492Y-74257000D01*
X142729508Y-74257000D01*
X142518691Y-74277764D01*
X142248192Y-74359818D01*
X141998899Y-74493068D01*
X141780392Y-74672392D01*
X141601068Y-74890899D01*
X141467818Y-75140192D01*
X141385764Y-75410691D01*
X141358057Y-75692000D01*
X121781943Y-75692000D01*
X121754236Y-75410691D01*
X121672182Y-75140192D01*
X121538932Y-74890899D01*
X121359608Y-74672392D01*
X121141101Y-74493068D01*
X120891808Y-74359818D01*
X120621309Y-74277764D01*
X120410492Y-74257000D01*
X119869508Y-74257000D01*
X119658691Y-74277764D01*
X119388192Y-74359818D01*
X119138899Y-74493068D01*
X118920392Y-74672392D01*
X118741068Y-74890899D01*
X118607818Y-75140192D01*
X118525764Y-75410691D01*
X118498057Y-75692000D01*
X113660000Y-75692000D01*
X113660000Y-73520300D01*
X146542228Y-73520300D01*
X146545300Y-73882250D01*
X146704050Y-74041000D01*
X147701000Y-74041000D01*
X147701000Y-73044050D01*
X147955000Y-73044050D01*
X147955000Y-74041000D01*
X148951950Y-74041000D01*
X149110700Y-73882250D01*
X149113772Y-73520300D01*
X149101512Y-73395818D01*
X149065202Y-73276120D01*
X149006237Y-73165806D01*
X148926885Y-73069115D01*
X148830194Y-72989763D01*
X148719880Y-72930798D01*
X148600182Y-72894488D01*
X148475700Y-72882228D01*
X148113750Y-72885300D01*
X147955000Y-73044050D01*
X147701000Y-73044050D01*
X147542250Y-72885300D01*
X147180300Y-72882228D01*
X147055818Y-72894488D01*
X146936120Y-72930798D01*
X146825806Y-72989763D01*
X146729115Y-73069115D01*
X146649763Y-73165806D01*
X146590798Y-73276120D01*
X146554488Y-73395818D01*
X146542228Y-73520300D01*
X113660000Y-73520300D01*
X113660000Y-64779872D01*
X114765000Y-64779872D01*
X114765000Y-65220128D01*
X114850890Y-65651925D01*
X115019369Y-66058669D01*
X115263962Y-66424729D01*
X115575271Y-66736038D01*
X115941331Y-66980631D01*
X116348075Y-67149110D01*
X116779872Y-67235000D01*
X117220128Y-67235000D01*
X117651925Y-67149110D01*
X118058669Y-66980631D01*
X118424729Y-66736038D01*
X118736038Y-66424729D01*
X118980631Y-66058669D01*
X119149110Y-65651925D01*
X119235000Y-65220128D01*
X119235000Y-64779872D01*
X169765000Y-64779872D01*
X169765000Y-65220128D01*
X169850890Y-65651925D01*
X170019369Y-66058669D01*
X170263962Y-66424729D01*
X170575271Y-66736038D01*
X170941331Y-66980631D01*
X171348075Y-67149110D01*
X171779872Y-67235000D01*
X172220128Y-67235000D01*
X172651925Y-67149110D01*
X173058669Y-66980631D01*
X173424729Y-66736038D01*
X173736038Y-66424729D01*
X173980631Y-66058669D01*
X174149110Y-65651925D01*
X174235000Y-65220128D01*
X174235000Y-64779872D01*
X174149110Y-64348075D01*
X173980631Y-63941331D01*
X173736038Y-63575271D01*
X173424729Y-63263962D01*
X173058669Y-63019369D01*
X172651925Y-62850890D01*
X172220128Y-62765000D01*
X171779872Y-62765000D01*
X171348075Y-62850890D01*
X170941331Y-63019369D01*
X170575271Y-63263962D01*
X170263962Y-63575271D01*
X170019369Y-63941331D01*
X169850890Y-64348075D01*
X169765000Y-64779872D01*
X119235000Y-64779872D01*
X119149110Y-64348075D01*
X118980631Y-63941331D01*
X118736038Y-63575271D01*
X118424729Y-63263962D01*
X118058669Y-63019369D01*
X117651925Y-62850890D01*
X117220128Y-62765000D01*
X116779872Y-62765000D01*
X116348075Y-62850890D01*
X115941331Y-63019369D01*
X115575271Y-63263962D01*
X115263962Y-63575271D01*
X115019369Y-63941331D01*
X114850890Y-64348075D01*
X114765000Y-64779872D01*
X113660000Y-64779872D01*
X113660000Y-64032279D01*
X113707670Y-63546107D01*
X113839489Y-63109502D01*
X114053600Y-62706815D01*
X114341848Y-62353388D01*
X114693261Y-62062673D01*
X115094439Y-61845758D01*
X115530113Y-61710894D01*
X116014344Y-61660000D01*
X172967721Y-61660000D01*
X173453893Y-61707670D01*
G37*
G04 #@! TD.AperFunction*
M02*
