G04 #@! TF.GenerationSoftware,KiCad,Pcbnew,(5.1.10)-1*
G04 #@! TF.CreationDate,2022-01-24T23:11:23-05:00*
G04 #@! TF.ProjectId,EmotionLampBoard_V1,456d6f74-696f-46e4-9c61-6d70426f6172,rev?*
G04 #@! TF.SameCoordinates,Original*
G04 #@! TF.FileFunction,Copper,L2,Bot*
G04 #@! TF.FilePolarity,Positive*
%FSLAX46Y46*%
G04 Gerber Fmt 4.6, Leading zero omitted, Abs format (unit mm)*
G04 Created by KiCad (PCBNEW (5.1.10)-1) date 2022-01-24 23:11:23*
%MOMM*%
%LPD*%
G01*
G04 APERTURE LIST*
G04 #@! TA.AperFunction,ComponentPad*
%ADD10R,1.295400X1.295400*%
G04 #@! TD*
G04 #@! TA.AperFunction,ComponentPad*
%ADD11C,1.295400*%
G04 #@! TD*
G04 #@! TA.AperFunction,ComponentPad*
%ADD12R,1.950000X1.950000*%
G04 #@! TD*
G04 #@! TA.AperFunction,ComponentPad*
%ADD13C,1.950000*%
G04 #@! TD*
G04 #@! TA.AperFunction,ComponentPad*
%ADD14C,1.600000*%
G04 #@! TD*
G04 #@! TA.AperFunction,ComponentPad*
%ADD15O,1.600000X1.600000*%
G04 #@! TD*
G04 #@! TA.AperFunction,ComponentPad*
%ADD16O,2.000000X1.600000*%
G04 #@! TD*
G04 #@! TA.AperFunction,ComponentPad*
%ADD17R,2.000000X2.000000*%
G04 #@! TD*
G04 #@! TA.AperFunction,ComponentPad*
%ADD18R,1.700000X1.700000*%
G04 #@! TD*
G04 #@! TA.AperFunction,ComponentPad*
%ADD19O,1.700000X1.700000*%
G04 #@! TD*
G04 #@! TA.AperFunction,Conductor*
%ADD20C,0.250000*%
G04 #@! TD*
G04 #@! TA.AperFunction,Conductor*
%ADD21C,0.254000*%
G04 #@! TD*
G04 #@! TA.AperFunction,Conductor*
%ADD22C,0.150000*%
G04 #@! TD*
G04 APERTURE END LIST*
D10*
X147828000Y-74168000D03*
D11*
X147828000Y-76708000D03*
X147828000Y-79248000D03*
X147828000Y-81788000D03*
X147828000Y-84328000D03*
X147828000Y-86868000D03*
X147828000Y-89408000D03*
X155448000Y-89408000D03*
X155448000Y-86868000D03*
X155448000Y-84328000D03*
X155448000Y-81788000D03*
X155448000Y-79248000D03*
X155448000Y-76708000D03*
X155448000Y-74168000D03*
D12*
X169180000Y-83820000D03*
D13*
X169180000Y-78820000D03*
X169180000Y-73820000D03*
D12*
X169180000Y-95000000D03*
D13*
X169180000Y-90000000D03*
D14*
X160528000Y-74676000D03*
D15*
X160528000Y-82296000D03*
D16*
X143000000Y-90932000D03*
D17*
X143000000Y-93472000D03*
D16*
X143000000Y-88392000D03*
X143000000Y-85852000D03*
X143000000Y-83312000D03*
X143000000Y-80772000D03*
X143000000Y-78232000D03*
X143000000Y-75692000D03*
X120140000Y-75692000D03*
X120140000Y-78232000D03*
X120140000Y-80772000D03*
X120140000Y-83312000D03*
X120140000Y-85852000D03*
X120140000Y-88392000D03*
X120140000Y-90932000D03*
X120140000Y-93472000D03*
D18*
X148844000Y-98044000D03*
D19*
X151384000Y-98044000D03*
X153924000Y-98044000D03*
D20*
X143000000Y-71000000D02*
X143000000Y-75692000D01*
X145000000Y-69000000D02*
X143000000Y-71000000D01*
X151000000Y-69000000D02*
X145000000Y-69000000D01*
X152000000Y-70000000D02*
X151000000Y-69000000D01*
X148844000Y-95156000D02*
X152000000Y-92000000D01*
X152000000Y-92000000D02*
X152000000Y-70000000D01*
X148844000Y-98044000D02*
X148844000Y-95156000D01*
X143000000Y-85852000D02*
X144852000Y-85852000D01*
X144852000Y-85852000D02*
X146000000Y-84704000D01*
X146000000Y-77416000D02*
X146708000Y-76708000D01*
X146000000Y-84704000D02*
X146000000Y-77416000D01*
X147828000Y-76708000D02*
X146708000Y-76708000D01*
D21*
X173453893Y-61707670D02*
X173890498Y-61839489D01*
X174293185Y-62053600D01*
X174646612Y-62341848D01*
X174937327Y-62693261D01*
X175154242Y-63094439D01*
X175289106Y-63530113D01*
X175340000Y-64014344D01*
X175340001Y-103967711D01*
X175292330Y-104453894D01*
X175160512Y-104890497D01*
X174946399Y-105293186D01*
X174658150Y-105646613D01*
X174306739Y-105937327D01*
X173905564Y-106154240D01*
X173469886Y-106289106D01*
X172985664Y-106340000D01*
X116032279Y-106340000D01*
X115546106Y-106292330D01*
X115109503Y-106160512D01*
X114706814Y-105946399D01*
X114353387Y-105658150D01*
X114062673Y-105306739D01*
X113845760Y-104905564D01*
X113710894Y-104469886D01*
X113660000Y-103985664D01*
X113660000Y-102779872D01*
X114765000Y-102779872D01*
X114765000Y-103220128D01*
X114850890Y-103651925D01*
X115019369Y-104058669D01*
X115263962Y-104424729D01*
X115575271Y-104736038D01*
X115941331Y-104980631D01*
X116348075Y-105149110D01*
X116779872Y-105235000D01*
X117220128Y-105235000D01*
X117651925Y-105149110D01*
X118058669Y-104980631D01*
X118424729Y-104736038D01*
X118736038Y-104424729D01*
X118980631Y-104058669D01*
X119149110Y-103651925D01*
X119235000Y-103220128D01*
X119235000Y-102779872D01*
X169765000Y-102779872D01*
X169765000Y-103220128D01*
X169850890Y-103651925D01*
X170019369Y-104058669D01*
X170263962Y-104424729D01*
X170575271Y-104736038D01*
X170941331Y-104980631D01*
X171348075Y-105149110D01*
X171779872Y-105235000D01*
X172220128Y-105235000D01*
X172651925Y-105149110D01*
X173058669Y-104980631D01*
X173424729Y-104736038D01*
X173736038Y-104424729D01*
X173980631Y-104058669D01*
X174149110Y-103651925D01*
X174235000Y-103220128D01*
X174235000Y-102779872D01*
X174149110Y-102348075D01*
X173980631Y-101941331D01*
X173736038Y-101575271D01*
X173424729Y-101263962D01*
X173058669Y-101019369D01*
X172651925Y-100850890D01*
X172220128Y-100765000D01*
X171779872Y-100765000D01*
X171348075Y-100850890D01*
X170941331Y-101019369D01*
X170575271Y-101263962D01*
X170263962Y-101575271D01*
X170019369Y-101941331D01*
X169850890Y-102348075D01*
X169765000Y-102779872D01*
X119235000Y-102779872D01*
X119149110Y-102348075D01*
X118980631Y-101941331D01*
X118736038Y-101575271D01*
X118424729Y-101263962D01*
X118058669Y-101019369D01*
X117651925Y-100850890D01*
X117220128Y-100765000D01*
X116779872Y-100765000D01*
X116348075Y-100850890D01*
X115941331Y-101019369D01*
X115575271Y-101263962D01*
X115263962Y-101575271D01*
X115019369Y-101941331D01*
X114850890Y-102348075D01*
X114765000Y-102779872D01*
X113660000Y-102779872D01*
X113660000Y-78232000D01*
X118498057Y-78232000D01*
X118525764Y-78513309D01*
X118607818Y-78783808D01*
X118741068Y-79033101D01*
X118920392Y-79251608D01*
X119138899Y-79430932D01*
X119271858Y-79502000D01*
X119138899Y-79573068D01*
X118920392Y-79752392D01*
X118741068Y-79970899D01*
X118607818Y-80220192D01*
X118525764Y-80490691D01*
X118498057Y-80772000D01*
X118525764Y-81053309D01*
X118607818Y-81323808D01*
X118741068Y-81573101D01*
X118920392Y-81791608D01*
X119138899Y-81970932D01*
X119271858Y-82042000D01*
X119138899Y-82113068D01*
X118920392Y-82292392D01*
X118741068Y-82510899D01*
X118607818Y-82760192D01*
X118525764Y-83030691D01*
X118498057Y-83312000D01*
X118525764Y-83593309D01*
X118607818Y-83863808D01*
X118741068Y-84113101D01*
X118920392Y-84331608D01*
X119138899Y-84510932D01*
X119271858Y-84582000D01*
X119138899Y-84653068D01*
X118920392Y-84832392D01*
X118741068Y-85050899D01*
X118607818Y-85300192D01*
X118525764Y-85570691D01*
X118498057Y-85852000D01*
X118525764Y-86133309D01*
X118607818Y-86403808D01*
X118741068Y-86653101D01*
X118920392Y-86871608D01*
X119138899Y-87050932D01*
X119271858Y-87122000D01*
X119138899Y-87193068D01*
X118920392Y-87372392D01*
X118741068Y-87590899D01*
X118607818Y-87840192D01*
X118525764Y-88110691D01*
X118498057Y-88392000D01*
X118525764Y-88673309D01*
X118607818Y-88943808D01*
X118741068Y-89193101D01*
X118920392Y-89411608D01*
X119138899Y-89590932D01*
X119271858Y-89662000D01*
X119138899Y-89733068D01*
X118920392Y-89912392D01*
X118741068Y-90130899D01*
X118607818Y-90380192D01*
X118525764Y-90650691D01*
X118498057Y-90932000D01*
X118525764Y-91213309D01*
X118607818Y-91483808D01*
X118741068Y-91733101D01*
X118920392Y-91951608D01*
X119138899Y-92130932D01*
X119271858Y-92202000D01*
X119138899Y-92273068D01*
X118920392Y-92452392D01*
X118741068Y-92670899D01*
X118607818Y-92920192D01*
X118525764Y-93190691D01*
X118498057Y-93472000D01*
X118525764Y-93753309D01*
X118607818Y-94023808D01*
X118741068Y-94273101D01*
X118920392Y-94491608D01*
X119138899Y-94670932D01*
X119388192Y-94804182D01*
X119658691Y-94886236D01*
X119869508Y-94907000D01*
X120410492Y-94907000D01*
X120621309Y-94886236D01*
X120891808Y-94804182D01*
X121141101Y-94670932D01*
X121359608Y-94491608D01*
X121538932Y-94273101D01*
X121672182Y-94023808D01*
X121754236Y-93753309D01*
X121781943Y-93472000D01*
X121754236Y-93190691D01*
X121672182Y-92920192D01*
X121538932Y-92670899D01*
X121359608Y-92452392D01*
X121141101Y-92273068D01*
X121008142Y-92202000D01*
X121141101Y-92130932D01*
X121359608Y-91951608D01*
X121538932Y-91733101D01*
X121672182Y-91483808D01*
X121754236Y-91213309D01*
X121781943Y-90932000D01*
X121754236Y-90650691D01*
X121672182Y-90380192D01*
X121538932Y-90130899D01*
X121359608Y-89912392D01*
X121141101Y-89733068D01*
X121008142Y-89662000D01*
X121141101Y-89590932D01*
X121359608Y-89411608D01*
X121538932Y-89193101D01*
X121672182Y-88943808D01*
X121754236Y-88673309D01*
X121781943Y-88392000D01*
X121754236Y-88110691D01*
X121672182Y-87840192D01*
X121538932Y-87590899D01*
X121359608Y-87372392D01*
X121141101Y-87193068D01*
X121008142Y-87122000D01*
X121141101Y-87050932D01*
X121359608Y-86871608D01*
X121538932Y-86653101D01*
X121672182Y-86403808D01*
X121754236Y-86133309D01*
X121781943Y-85852000D01*
X121754236Y-85570691D01*
X121672182Y-85300192D01*
X121538932Y-85050899D01*
X121359608Y-84832392D01*
X121141101Y-84653068D01*
X121008142Y-84582000D01*
X121141101Y-84510932D01*
X121359608Y-84331608D01*
X121538932Y-84113101D01*
X121672182Y-83863808D01*
X121754236Y-83593309D01*
X121781943Y-83312000D01*
X121754236Y-83030691D01*
X121672182Y-82760192D01*
X121538932Y-82510899D01*
X121359608Y-82292392D01*
X121141101Y-82113068D01*
X121008142Y-82042000D01*
X121141101Y-81970932D01*
X121359608Y-81791608D01*
X121538932Y-81573101D01*
X121672182Y-81323808D01*
X121754236Y-81053309D01*
X121781943Y-80772000D01*
X121754236Y-80490691D01*
X121672182Y-80220192D01*
X121538932Y-79970899D01*
X121359608Y-79752392D01*
X121141101Y-79573068D01*
X121008142Y-79502000D01*
X121141101Y-79430932D01*
X121359608Y-79251608D01*
X121538932Y-79033101D01*
X121672182Y-78783808D01*
X121754236Y-78513309D01*
X121781943Y-78232000D01*
X121754236Y-77950691D01*
X121672182Y-77680192D01*
X121538932Y-77430899D01*
X121359608Y-77212392D01*
X121141101Y-77033068D01*
X121011655Y-76963878D01*
X121029227Y-76956430D01*
X121262662Y-76797673D01*
X121460639Y-76596425D01*
X121615551Y-76360421D01*
X121721444Y-76098730D01*
X121731904Y-76041039D01*
X121609915Y-75819000D01*
X120267000Y-75819000D01*
X120267000Y-75839000D01*
X120013000Y-75839000D01*
X120013000Y-75819000D01*
X118670085Y-75819000D01*
X118548096Y-76041039D01*
X118558556Y-76098730D01*
X118664449Y-76360421D01*
X118819361Y-76596425D01*
X119017338Y-76797673D01*
X119250773Y-76956430D01*
X119268345Y-76963878D01*
X119138899Y-77033068D01*
X118920392Y-77212392D01*
X118741068Y-77430899D01*
X118607818Y-77680192D01*
X118525764Y-77950691D01*
X118498057Y-78232000D01*
X113660000Y-78232000D01*
X113660000Y-75692000D01*
X141358057Y-75692000D01*
X141385764Y-75973309D01*
X141467818Y-76243808D01*
X141601068Y-76493101D01*
X141780392Y-76711608D01*
X141998899Y-76890932D01*
X142131858Y-76962000D01*
X141998899Y-77033068D01*
X141780392Y-77212392D01*
X141601068Y-77430899D01*
X141467818Y-77680192D01*
X141385764Y-77950691D01*
X141358057Y-78232000D01*
X141385764Y-78513309D01*
X141467818Y-78783808D01*
X141601068Y-79033101D01*
X141780392Y-79251608D01*
X141998899Y-79430932D01*
X142131858Y-79502000D01*
X141998899Y-79573068D01*
X141780392Y-79752392D01*
X141601068Y-79970899D01*
X141467818Y-80220192D01*
X141385764Y-80490691D01*
X141358057Y-80772000D01*
X141385764Y-81053309D01*
X141467818Y-81323808D01*
X141601068Y-81573101D01*
X141780392Y-81791608D01*
X141998899Y-81970932D01*
X142131858Y-82042000D01*
X141998899Y-82113068D01*
X141780392Y-82292392D01*
X141601068Y-82510899D01*
X141467818Y-82760192D01*
X141385764Y-83030691D01*
X141358057Y-83312000D01*
X141385764Y-83593309D01*
X141467818Y-83863808D01*
X141601068Y-84113101D01*
X141780392Y-84331608D01*
X141998899Y-84510932D01*
X142131858Y-84582000D01*
X141998899Y-84653068D01*
X141780392Y-84832392D01*
X141601068Y-85050899D01*
X141467818Y-85300192D01*
X141385764Y-85570691D01*
X141358057Y-85852000D01*
X141385764Y-86133309D01*
X141467818Y-86403808D01*
X141601068Y-86653101D01*
X141780392Y-86871608D01*
X141998899Y-87050932D01*
X142131858Y-87122000D01*
X141998899Y-87193068D01*
X141780392Y-87372392D01*
X141601068Y-87590899D01*
X141467818Y-87840192D01*
X141385764Y-88110691D01*
X141358057Y-88392000D01*
X141385764Y-88673309D01*
X141467818Y-88943808D01*
X141601068Y-89193101D01*
X141780392Y-89411608D01*
X141998899Y-89590932D01*
X142131858Y-89662000D01*
X141998899Y-89733068D01*
X141780392Y-89912392D01*
X141601068Y-90130899D01*
X141467818Y-90380192D01*
X141385764Y-90650691D01*
X141358057Y-90932000D01*
X141385764Y-91213309D01*
X141467818Y-91483808D01*
X141601068Y-91733101D01*
X141733476Y-91894441D01*
X141645506Y-91941463D01*
X141548815Y-92020815D01*
X141469463Y-92117506D01*
X141410498Y-92227820D01*
X141374188Y-92347518D01*
X141361928Y-92472000D01*
X141361928Y-94472000D01*
X141374188Y-94596482D01*
X141410498Y-94716180D01*
X141469463Y-94826494D01*
X141548815Y-94923185D01*
X141645506Y-95002537D01*
X141755820Y-95061502D01*
X141875518Y-95097812D01*
X142000000Y-95110072D01*
X144000000Y-95110072D01*
X144124482Y-95097812D01*
X144244180Y-95061502D01*
X144354494Y-95002537D01*
X144451185Y-94923185D01*
X144530537Y-94826494D01*
X144589502Y-94716180D01*
X144625812Y-94596482D01*
X144638072Y-94472000D01*
X144638072Y-92472000D01*
X144625812Y-92347518D01*
X144589502Y-92227820D01*
X144530537Y-92117506D01*
X144451185Y-92020815D01*
X144354494Y-91941463D01*
X144266524Y-91894441D01*
X144398932Y-91733101D01*
X144532182Y-91483808D01*
X144614236Y-91213309D01*
X144641943Y-90932000D01*
X144614236Y-90650691D01*
X144532182Y-90380192D01*
X144398932Y-90130899D01*
X144219608Y-89912392D01*
X144001101Y-89733068D01*
X143868142Y-89662000D01*
X144001101Y-89590932D01*
X144219608Y-89411608D01*
X144398932Y-89193101D01*
X144532182Y-88943808D01*
X144614236Y-88673309D01*
X144641943Y-88392000D01*
X144614236Y-88110691D01*
X144532182Y-87840192D01*
X144398932Y-87590899D01*
X144219608Y-87372392D01*
X144001101Y-87193068D01*
X143868142Y-87122000D01*
X144001101Y-87050932D01*
X144219608Y-86871608D01*
X144398932Y-86653101D01*
X144420901Y-86612000D01*
X144814678Y-86612000D01*
X144852000Y-86615676D01*
X144889322Y-86612000D01*
X144889333Y-86612000D01*
X145000986Y-86601003D01*
X145144247Y-86557546D01*
X145276276Y-86486974D01*
X145392001Y-86392001D01*
X145415804Y-86362997D01*
X146511004Y-85267798D01*
X146540001Y-85244001D01*
X146634974Y-85128276D01*
X146705546Y-84996247D01*
X146713749Y-84969204D01*
X146831662Y-85145673D01*
X147010327Y-85324338D01*
X147220414Y-85464714D01*
X147453850Y-85561406D01*
X147637818Y-85598000D01*
X147453850Y-85634594D01*
X147220414Y-85731286D01*
X147010327Y-85871662D01*
X146831662Y-86050327D01*
X146691286Y-86260414D01*
X146594594Y-86493850D01*
X146545300Y-86741665D01*
X146545300Y-86994335D01*
X146594594Y-87242150D01*
X146691286Y-87475586D01*
X146831662Y-87685673D01*
X147010327Y-87864338D01*
X147220414Y-88004714D01*
X147453850Y-88101406D01*
X147637818Y-88138000D01*
X147453850Y-88174594D01*
X147220414Y-88271286D01*
X147010327Y-88411662D01*
X146831662Y-88590327D01*
X146691286Y-88800414D01*
X146594594Y-89033850D01*
X146545300Y-89281665D01*
X146545300Y-89534335D01*
X146594594Y-89782150D01*
X146691286Y-90015586D01*
X146831662Y-90225673D01*
X147010327Y-90404338D01*
X147220414Y-90544714D01*
X147453850Y-90641406D01*
X147701665Y-90690700D01*
X147954335Y-90690700D01*
X148202150Y-90641406D01*
X148435586Y-90544714D01*
X148645673Y-90404338D01*
X148824338Y-90225673D01*
X148964714Y-90015586D01*
X149061406Y-89782150D01*
X149110700Y-89534335D01*
X149110700Y-89281665D01*
X149061406Y-89033850D01*
X148964714Y-88800414D01*
X148824338Y-88590327D01*
X148645673Y-88411662D01*
X148435586Y-88271286D01*
X148202150Y-88174594D01*
X148018182Y-88138000D01*
X148202150Y-88101406D01*
X148435586Y-88004714D01*
X148645673Y-87864338D01*
X148824338Y-87685673D01*
X148964714Y-87475586D01*
X149061406Y-87242150D01*
X149110700Y-86994335D01*
X149110700Y-86741665D01*
X149061406Y-86493850D01*
X148964714Y-86260414D01*
X148824338Y-86050327D01*
X148645673Y-85871662D01*
X148435586Y-85731286D01*
X148202150Y-85634594D01*
X148018182Y-85598000D01*
X148202150Y-85561406D01*
X148435586Y-85464714D01*
X148645673Y-85324338D01*
X148824338Y-85145673D01*
X148964714Y-84935586D01*
X149061406Y-84702150D01*
X149110700Y-84454335D01*
X149110700Y-84201665D01*
X149061406Y-83953850D01*
X148964714Y-83720414D01*
X148824338Y-83510327D01*
X148645673Y-83331662D01*
X148435586Y-83191286D01*
X148202150Y-83094594D01*
X148018182Y-83058000D01*
X148202150Y-83021406D01*
X148435586Y-82924714D01*
X148645673Y-82784338D01*
X148824338Y-82605673D01*
X148964714Y-82395586D01*
X149061406Y-82162150D01*
X149110700Y-81914335D01*
X149110700Y-81661665D01*
X149061406Y-81413850D01*
X148964714Y-81180414D01*
X148824338Y-80970327D01*
X148645673Y-80791662D01*
X148435586Y-80651286D01*
X148202150Y-80554594D01*
X148018182Y-80518000D01*
X148202150Y-80481406D01*
X148435586Y-80384714D01*
X148645673Y-80244338D01*
X148824338Y-80065673D01*
X148964714Y-79855586D01*
X149061406Y-79622150D01*
X149110700Y-79374335D01*
X149110700Y-79121665D01*
X149061406Y-78873850D01*
X148964714Y-78640414D01*
X148824338Y-78430327D01*
X148645673Y-78251662D01*
X148435586Y-78111286D01*
X148202150Y-78014594D01*
X148018182Y-77978000D01*
X148202150Y-77941406D01*
X148435586Y-77844714D01*
X148645673Y-77704338D01*
X148824338Y-77525673D01*
X148964714Y-77315586D01*
X149061406Y-77082150D01*
X149110700Y-76834335D01*
X149110700Y-76581665D01*
X149061406Y-76333850D01*
X148964714Y-76100414D01*
X148824338Y-75890327D01*
X148645673Y-75711662D01*
X148435586Y-75571286D01*
X148202150Y-75474594D01*
X148097472Y-75453772D01*
X148475700Y-75453772D01*
X148600182Y-75441512D01*
X148719880Y-75405202D01*
X148830194Y-75346237D01*
X148926885Y-75266885D01*
X149006237Y-75170194D01*
X149065202Y-75059880D01*
X149101512Y-74940182D01*
X149113772Y-74815700D01*
X149113772Y-73520300D01*
X149101512Y-73395818D01*
X149065202Y-73276120D01*
X149006237Y-73165806D01*
X148926885Y-73069115D01*
X148830194Y-72989763D01*
X148719880Y-72930798D01*
X148600182Y-72894488D01*
X148475700Y-72882228D01*
X147180300Y-72882228D01*
X147055818Y-72894488D01*
X146936120Y-72930798D01*
X146825806Y-72989763D01*
X146729115Y-73069115D01*
X146649763Y-73165806D01*
X146590798Y-73276120D01*
X146554488Y-73395818D01*
X146542228Y-73520300D01*
X146542228Y-74815700D01*
X146554488Y-74940182D01*
X146590798Y-75059880D01*
X146649763Y-75170194D01*
X146729115Y-75266885D01*
X146825806Y-75346237D01*
X146936120Y-75405202D01*
X147055818Y-75441512D01*
X147180300Y-75453772D01*
X147558528Y-75453772D01*
X147453850Y-75474594D01*
X147220414Y-75571286D01*
X147010327Y-75711662D01*
X146831662Y-75890327D01*
X146793126Y-75948000D01*
X146745322Y-75948000D01*
X146707999Y-75944324D01*
X146670676Y-75948000D01*
X146670667Y-75948000D01*
X146559014Y-75958997D01*
X146415753Y-76002454D01*
X146283724Y-76073026D01*
X146167999Y-76167999D01*
X146144201Y-76196998D01*
X145488998Y-76852201D01*
X145460000Y-76875999D01*
X145436202Y-76904997D01*
X145436201Y-76904998D01*
X145365026Y-76991724D01*
X145294454Y-77123754D01*
X145291869Y-77132277D01*
X145250998Y-77267014D01*
X145240001Y-77378667D01*
X145236324Y-77416000D01*
X145240001Y-77453332D01*
X145240000Y-84389198D01*
X144537199Y-85092000D01*
X144420901Y-85092000D01*
X144398932Y-85050899D01*
X144219608Y-84832392D01*
X144001101Y-84653068D01*
X143868142Y-84582000D01*
X144001101Y-84510932D01*
X144219608Y-84331608D01*
X144398932Y-84113101D01*
X144532182Y-83863808D01*
X144614236Y-83593309D01*
X144641943Y-83312000D01*
X144614236Y-83030691D01*
X144532182Y-82760192D01*
X144398932Y-82510899D01*
X144219608Y-82292392D01*
X144001101Y-82113068D01*
X143868142Y-82042000D01*
X144001101Y-81970932D01*
X144219608Y-81791608D01*
X144398932Y-81573101D01*
X144532182Y-81323808D01*
X144614236Y-81053309D01*
X144641943Y-80772000D01*
X144614236Y-80490691D01*
X144532182Y-80220192D01*
X144398932Y-79970899D01*
X144219608Y-79752392D01*
X144001101Y-79573068D01*
X143868142Y-79502000D01*
X144001101Y-79430932D01*
X144219608Y-79251608D01*
X144398932Y-79033101D01*
X144532182Y-78783808D01*
X144614236Y-78513309D01*
X144641943Y-78232000D01*
X144614236Y-77950691D01*
X144532182Y-77680192D01*
X144398932Y-77430899D01*
X144219608Y-77212392D01*
X144001101Y-77033068D01*
X143868142Y-76962000D01*
X144001101Y-76890932D01*
X144219608Y-76711608D01*
X144398932Y-76493101D01*
X144532182Y-76243808D01*
X144614236Y-75973309D01*
X144641943Y-75692000D01*
X144614236Y-75410691D01*
X144532182Y-75140192D01*
X144398932Y-74890899D01*
X144219608Y-74672392D01*
X144001101Y-74493068D01*
X143760000Y-74364197D01*
X143760000Y-71314801D01*
X145314802Y-69760000D01*
X150685199Y-69760000D01*
X151240001Y-70314803D01*
X151240000Y-91685198D01*
X148332998Y-94592201D01*
X148304000Y-94615999D01*
X148280202Y-94644997D01*
X148280201Y-94644998D01*
X148209026Y-94731724D01*
X148138454Y-94863754D01*
X148094998Y-95007015D01*
X148080324Y-95156000D01*
X148084001Y-95193332D01*
X148084001Y-96555928D01*
X147994000Y-96555928D01*
X147869518Y-96568188D01*
X147749820Y-96604498D01*
X147639506Y-96663463D01*
X147542815Y-96742815D01*
X147463463Y-96839506D01*
X147404498Y-96949820D01*
X147368188Y-97069518D01*
X147355928Y-97194000D01*
X147355928Y-98894000D01*
X147368188Y-99018482D01*
X147404498Y-99138180D01*
X147463463Y-99248494D01*
X147542815Y-99345185D01*
X147639506Y-99424537D01*
X147749820Y-99483502D01*
X147869518Y-99519812D01*
X147994000Y-99532072D01*
X149694000Y-99532072D01*
X149818482Y-99519812D01*
X149938180Y-99483502D01*
X150048494Y-99424537D01*
X150145185Y-99345185D01*
X150224537Y-99248494D01*
X150283502Y-99138180D01*
X150305513Y-99065620D01*
X150437368Y-99197475D01*
X150680589Y-99359990D01*
X150950842Y-99471932D01*
X151237740Y-99529000D01*
X151530260Y-99529000D01*
X151817158Y-99471932D01*
X152087411Y-99359990D01*
X152330632Y-99197475D01*
X152537475Y-98990632D01*
X152654000Y-98816240D01*
X152770525Y-98990632D01*
X152977368Y-99197475D01*
X153220589Y-99359990D01*
X153490842Y-99471932D01*
X153777740Y-99529000D01*
X154070260Y-99529000D01*
X154357158Y-99471932D01*
X154627411Y-99359990D01*
X154870632Y-99197475D01*
X155077475Y-98990632D01*
X155239990Y-98747411D01*
X155351932Y-98477158D01*
X155409000Y-98190260D01*
X155409000Y-97897740D01*
X155351932Y-97610842D01*
X155239990Y-97340589D01*
X155077475Y-97097368D01*
X154870632Y-96890525D01*
X154627411Y-96728010D01*
X154357158Y-96616068D01*
X154070260Y-96559000D01*
X153777740Y-96559000D01*
X153490842Y-96616068D01*
X153220589Y-96728010D01*
X152977368Y-96890525D01*
X152770525Y-97097368D01*
X152654000Y-97271760D01*
X152537475Y-97097368D01*
X152330632Y-96890525D01*
X152087411Y-96728010D01*
X151817158Y-96616068D01*
X151530260Y-96559000D01*
X151237740Y-96559000D01*
X150950842Y-96616068D01*
X150680589Y-96728010D01*
X150437368Y-96890525D01*
X150305513Y-97022380D01*
X150283502Y-96949820D01*
X150224537Y-96839506D01*
X150145185Y-96742815D01*
X150048494Y-96663463D01*
X149938180Y-96604498D01*
X149818482Y-96568188D01*
X149694000Y-96555928D01*
X149604000Y-96555928D01*
X149604000Y-95975000D01*
X167566928Y-95975000D01*
X167579188Y-96099482D01*
X167615498Y-96219180D01*
X167674463Y-96329494D01*
X167753815Y-96426185D01*
X167850506Y-96505537D01*
X167960820Y-96564502D01*
X168080518Y-96600812D01*
X168205000Y-96613072D01*
X168894250Y-96610000D01*
X169053000Y-96451250D01*
X169053000Y-95127000D01*
X169307000Y-95127000D01*
X169307000Y-96451250D01*
X169465750Y-96610000D01*
X170155000Y-96613072D01*
X170279482Y-96600812D01*
X170399180Y-96564502D01*
X170509494Y-96505537D01*
X170606185Y-96426185D01*
X170685537Y-96329494D01*
X170744502Y-96219180D01*
X170780812Y-96099482D01*
X170793072Y-95975000D01*
X170790000Y-95285750D01*
X170631250Y-95127000D01*
X169307000Y-95127000D01*
X169053000Y-95127000D01*
X167728750Y-95127000D01*
X167570000Y-95285750D01*
X167566928Y-95975000D01*
X149604000Y-95975000D01*
X149604000Y-95470801D01*
X151049801Y-94025000D01*
X167566928Y-94025000D01*
X167570000Y-94714250D01*
X167728750Y-94873000D01*
X169053000Y-94873000D01*
X169053000Y-93548750D01*
X169307000Y-93548750D01*
X169307000Y-94873000D01*
X170631250Y-94873000D01*
X170790000Y-94714250D01*
X170793072Y-94025000D01*
X170780812Y-93900518D01*
X170744502Y-93780820D01*
X170685537Y-93670506D01*
X170606185Y-93573815D01*
X170509494Y-93494463D01*
X170399180Y-93435498D01*
X170279482Y-93399188D01*
X170155000Y-93386928D01*
X169465750Y-93390000D01*
X169307000Y-93548750D01*
X169053000Y-93548750D01*
X168894250Y-93390000D01*
X168205000Y-93386928D01*
X168080518Y-93399188D01*
X167960820Y-93435498D01*
X167850506Y-93494463D01*
X167753815Y-93573815D01*
X167674463Y-93670506D01*
X167615498Y-93780820D01*
X167579188Y-93900518D01*
X167566928Y-94025000D01*
X151049801Y-94025000D01*
X152511004Y-92563798D01*
X152540001Y-92540001D01*
X152611900Y-92452392D01*
X152634974Y-92424277D01*
X152705546Y-92292247D01*
X152725089Y-92227820D01*
X152749003Y-92148986D01*
X152760000Y-92037333D01*
X152760000Y-92037323D01*
X152763676Y-92000001D01*
X152760000Y-91962678D01*
X152760000Y-76581665D01*
X154165300Y-76581665D01*
X154165300Y-76834335D01*
X154214594Y-77082150D01*
X154311286Y-77315586D01*
X154451662Y-77525673D01*
X154630327Y-77704338D01*
X154840414Y-77844714D01*
X155073850Y-77941406D01*
X155257818Y-77978000D01*
X155073850Y-78014594D01*
X154840414Y-78111286D01*
X154630327Y-78251662D01*
X154451662Y-78430327D01*
X154311286Y-78640414D01*
X154214594Y-78873850D01*
X154165300Y-79121665D01*
X154165300Y-79374335D01*
X154214594Y-79622150D01*
X154311286Y-79855586D01*
X154451662Y-80065673D01*
X154630327Y-80244338D01*
X154840414Y-80384714D01*
X155073850Y-80481406D01*
X155257818Y-80518000D01*
X155073850Y-80554594D01*
X154840414Y-80651286D01*
X154630327Y-80791662D01*
X154451662Y-80970327D01*
X154311286Y-81180414D01*
X154214594Y-81413850D01*
X154165300Y-81661665D01*
X154165300Y-81914335D01*
X154214594Y-82162150D01*
X154311286Y-82395586D01*
X154451662Y-82605673D01*
X154630327Y-82784338D01*
X154840414Y-82924714D01*
X155073850Y-83021406D01*
X155257818Y-83058000D01*
X155073850Y-83094594D01*
X154840414Y-83191286D01*
X154630327Y-83331662D01*
X154451662Y-83510327D01*
X154311286Y-83720414D01*
X154214594Y-83953850D01*
X154165300Y-84201665D01*
X154165300Y-84454335D01*
X154214594Y-84702150D01*
X154311286Y-84935586D01*
X154451662Y-85145673D01*
X154630327Y-85324338D01*
X154840414Y-85464714D01*
X155073850Y-85561406D01*
X155257818Y-85598000D01*
X155073850Y-85634594D01*
X154840414Y-85731286D01*
X154630327Y-85871662D01*
X154451662Y-86050327D01*
X154311286Y-86260414D01*
X154214594Y-86493850D01*
X154165300Y-86741665D01*
X154165300Y-86994335D01*
X154214594Y-87242150D01*
X154311286Y-87475586D01*
X154451662Y-87685673D01*
X154630327Y-87864338D01*
X154840414Y-88004714D01*
X155073850Y-88101406D01*
X155257818Y-88138000D01*
X155073850Y-88174594D01*
X154840414Y-88271286D01*
X154630327Y-88411662D01*
X154451662Y-88590327D01*
X154311286Y-88800414D01*
X154214594Y-89033850D01*
X154165300Y-89281665D01*
X154165300Y-89534335D01*
X154214594Y-89782150D01*
X154311286Y-90015586D01*
X154451662Y-90225673D01*
X154630327Y-90404338D01*
X154840414Y-90544714D01*
X155073850Y-90641406D01*
X155321665Y-90690700D01*
X155574335Y-90690700D01*
X155822150Y-90641406D01*
X156055586Y-90544714D01*
X156265673Y-90404338D01*
X156444338Y-90225673D01*
X156584714Y-90015586D01*
X156656851Y-89841429D01*
X167570000Y-89841429D01*
X167570000Y-90158571D01*
X167631871Y-90469620D01*
X167753237Y-90762621D01*
X167929431Y-91026315D01*
X168153685Y-91250569D01*
X168417379Y-91426763D01*
X168710380Y-91548129D01*
X169021429Y-91610000D01*
X169338571Y-91610000D01*
X169649620Y-91548129D01*
X169942621Y-91426763D01*
X170206315Y-91250569D01*
X170430569Y-91026315D01*
X170606763Y-90762621D01*
X170728129Y-90469620D01*
X170790000Y-90158571D01*
X170790000Y-89841429D01*
X170728129Y-89530380D01*
X170606763Y-89237379D01*
X170430569Y-88973685D01*
X170206315Y-88749431D01*
X169942621Y-88573237D01*
X169649620Y-88451871D01*
X169338571Y-88390000D01*
X169021429Y-88390000D01*
X168710380Y-88451871D01*
X168417379Y-88573237D01*
X168153685Y-88749431D01*
X167929431Y-88973685D01*
X167753237Y-89237379D01*
X167631871Y-89530380D01*
X167570000Y-89841429D01*
X156656851Y-89841429D01*
X156681406Y-89782150D01*
X156730700Y-89534335D01*
X156730700Y-89281665D01*
X156681406Y-89033850D01*
X156584714Y-88800414D01*
X156444338Y-88590327D01*
X156265673Y-88411662D01*
X156055586Y-88271286D01*
X155822150Y-88174594D01*
X155638182Y-88138000D01*
X155822150Y-88101406D01*
X156055586Y-88004714D01*
X156265673Y-87864338D01*
X156444338Y-87685673D01*
X156584714Y-87475586D01*
X156681406Y-87242150D01*
X156730700Y-86994335D01*
X156730700Y-86741665D01*
X156681406Y-86493850D01*
X156584714Y-86260414D01*
X156444338Y-86050327D01*
X156265673Y-85871662D01*
X156055586Y-85731286D01*
X155822150Y-85634594D01*
X155638182Y-85598000D01*
X155822150Y-85561406D01*
X156055586Y-85464714D01*
X156265673Y-85324338D01*
X156444338Y-85145673D01*
X156584714Y-84935586D01*
X156642946Y-84795000D01*
X167566928Y-84795000D01*
X167579188Y-84919482D01*
X167615498Y-85039180D01*
X167674463Y-85149494D01*
X167753815Y-85246185D01*
X167850506Y-85325537D01*
X167960820Y-85384502D01*
X168080518Y-85420812D01*
X168205000Y-85433072D01*
X168894250Y-85430000D01*
X169053000Y-85271250D01*
X169053000Y-83947000D01*
X169307000Y-83947000D01*
X169307000Y-85271250D01*
X169465750Y-85430000D01*
X170155000Y-85433072D01*
X170279482Y-85420812D01*
X170399180Y-85384502D01*
X170509494Y-85325537D01*
X170606185Y-85246185D01*
X170685537Y-85149494D01*
X170744502Y-85039180D01*
X170780812Y-84919482D01*
X170793072Y-84795000D01*
X170790000Y-84105750D01*
X170631250Y-83947000D01*
X169307000Y-83947000D01*
X169053000Y-83947000D01*
X167728750Y-83947000D01*
X167570000Y-84105750D01*
X167566928Y-84795000D01*
X156642946Y-84795000D01*
X156681406Y-84702150D01*
X156730700Y-84454335D01*
X156730700Y-84201665D01*
X156681406Y-83953850D01*
X156584714Y-83720414D01*
X156444338Y-83510327D01*
X156265673Y-83331662D01*
X156055586Y-83191286D01*
X155822150Y-83094594D01*
X155638182Y-83058000D01*
X155822150Y-83021406D01*
X156055586Y-82924714D01*
X156265673Y-82784338D01*
X156444338Y-82605673D01*
X156584714Y-82395586D01*
X156681406Y-82162150D01*
X156682894Y-82154665D01*
X159093000Y-82154665D01*
X159093000Y-82437335D01*
X159148147Y-82714574D01*
X159256320Y-82975727D01*
X159413363Y-83210759D01*
X159613241Y-83410637D01*
X159848273Y-83567680D01*
X160109426Y-83675853D01*
X160386665Y-83731000D01*
X160669335Y-83731000D01*
X160946574Y-83675853D01*
X161207727Y-83567680D01*
X161442759Y-83410637D01*
X161642637Y-83210759D01*
X161799680Y-82975727D01*
X161853828Y-82845000D01*
X167566928Y-82845000D01*
X167570000Y-83534250D01*
X167728750Y-83693000D01*
X169053000Y-83693000D01*
X169053000Y-82368750D01*
X169307000Y-82368750D01*
X169307000Y-83693000D01*
X170631250Y-83693000D01*
X170790000Y-83534250D01*
X170793072Y-82845000D01*
X170780812Y-82720518D01*
X170744502Y-82600820D01*
X170685537Y-82490506D01*
X170606185Y-82393815D01*
X170509494Y-82314463D01*
X170399180Y-82255498D01*
X170279482Y-82219188D01*
X170155000Y-82206928D01*
X169465750Y-82210000D01*
X169307000Y-82368750D01*
X169053000Y-82368750D01*
X168894250Y-82210000D01*
X168205000Y-82206928D01*
X168080518Y-82219188D01*
X167960820Y-82255498D01*
X167850506Y-82314463D01*
X167753815Y-82393815D01*
X167674463Y-82490506D01*
X167615498Y-82600820D01*
X167579188Y-82720518D01*
X167566928Y-82845000D01*
X161853828Y-82845000D01*
X161907853Y-82714574D01*
X161963000Y-82437335D01*
X161963000Y-82154665D01*
X161907853Y-81877426D01*
X161799680Y-81616273D01*
X161642637Y-81381241D01*
X161442759Y-81181363D01*
X161207727Y-81024320D01*
X160946574Y-80916147D01*
X160669335Y-80861000D01*
X160386665Y-80861000D01*
X160109426Y-80916147D01*
X159848273Y-81024320D01*
X159613241Y-81181363D01*
X159413363Y-81381241D01*
X159256320Y-81616273D01*
X159148147Y-81877426D01*
X159093000Y-82154665D01*
X156682894Y-82154665D01*
X156730700Y-81914335D01*
X156730700Y-81661665D01*
X156681406Y-81413850D01*
X156584714Y-81180414D01*
X156444338Y-80970327D01*
X156265673Y-80791662D01*
X156055586Y-80651286D01*
X155822150Y-80554594D01*
X155638182Y-80518000D01*
X155822150Y-80481406D01*
X156055586Y-80384714D01*
X156265673Y-80244338D01*
X156444338Y-80065673D01*
X156584714Y-79855586D01*
X156681406Y-79622150D01*
X156730700Y-79374335D01*
X156730700Y-79121665D01*
X156681406Y-78873850D01*
X156593419Y-78661429D01*
X167570000Y-78661429D01*
X167570000Y-78978571D01*
X167631871Y-79289620D01*
X167753237Y-79582621D01*
X167929431Y-79846315D01*
X168153685Y-80070569D01*
X168417379Y-80246763D01*
X168710380Y-80368129D01*
X169021429Y-80430000D01*
X169338571Y-80430000D01*
X169649620Y-80368129D01*
X169942621Y-80246763D01*
X170206315Y-80070569D01*
X170430569Y-79846315D01*
X170606763Y-79582621D01*
X170728129Y-79289620D01*
X170790000Y-78978571D01*
X170790000Y-78661429D01*
X170728129Y-78350380D01*
X170606763Y-78057379D01*
X170430569Y-77793685D01*
X170206315Y-77569431D01*
X169942621Y-77393237D01*
X169649620Y-77271871D01*
X169338571Y-77210000D01*
X169021429Y-77210000D01*
X168710380Y-77271871D01*
X168417379Y-77393237D01*
X168153685Y-77569431D01*
X167929431Y-77793685D01*
X167753237Y-78057379D01*
X167631871Y-78350380D01*
X167570000Y-78661429D01*
X156593419Y-78661429D01*
X156584714Y-78640414D01*
X156444338Y-78430327D01*
X156265673Y-78251662D01*
X156055586Y-78111286D01*
X155822150Y-78014594D01*
X155638182Y-77978000D01*
X155822150Y-77941406D01*
X156055586Y-77844714D01*
X156265673Y-77704338D01*
X156444338Y-77525673D01*
X156584714Y-77315586D01*
X156681406Y-77082150D01*
X156730700Y-76834335D01*
X156730700Y-76581665D01*
X156681406Y-76333850D01*
X156584714Y-76100414D01*
X156444338Y-75890327D01*
X156265673Y-75711662D01*
X156055586Y-75571286D01*
X155822150Y-75474594D01*
X155634192Y-75437206D01*
X155774084Y-75414975D01*
X156011092Y-75327399D01*
X156099168Y-75280321D01*
X156152277Y-75051882D01*
X155448000Y-74347605D01*
X154743723Y-75051882D01*
X154796832Y-75280321D01*
X155026347Y-75385985D01*
X155249995Y-75439556D01*
X155073850Y-75474594D01*
X154840414Y-75571286D01*
X154630327Y-75711662D01*
X154451662Y-75890327D01*
X154311286Y-76100414D01*
X154214594Y-76333850D01*
X154165300Y-76581665D01*
X152760000Y-76581665D01*
X152760000Y-74244546D01*
X154161369Y-74244546D01*
X154201025Y-74494084D01*
X154288601Y-74731092D01*
X154335679Y-74819168D01*
X154564118Y-74872277D01*
X155268395Y-74168000D01*
X155627605Y-74168000D01*
X156331882Y-74872277D01*
X156560321Y-74819168D01*
X156665985Y-74589653D01*
X156679156Y-74534665D01*
X159093000Y-74534665D01*
X159093000Y-74817335D01*
X159148147Y-75094574D01*
X159256320Y-75355727D01*
X159413363Y-75590759D01*
X159613241Y-75790637D01*
X159848273Y-75947680D01*
X160109426Y-76055853D01*
X160386665Y-76111000D01*
X160669335Y-76111000D01*
X160946574Y-76055853D01*
X161207727Y-75947680D01*
X161442759Y-75790637D01*
X161642637Y-75590759D01*
X161799680Y-75355727D01*
X161907853Y-75094574D01*
X161963000Y-74817335D01*
X161963000Y-74534665D01*
X161907853Y-74257426D01*
X161799680Y-73996273D01*
X161642637Y-73761241D01*
X161542825Y-73661429D01*
X167570000Y-73661429D01*
X167570000Y-73978571D01*
X167631871Y-74289620D01*
X167753237Y-74582621D01*
X167929431Y-74846315D01*
X168153685Y-75070569D01*
X168417379Y-75246763D01*
X168710380Y-75368129D01*
X169021429Y-75430000D01*
X169338571Y-75430000D01*
X169649620Y-75368129D01*
X169942621Y-75246763D01*
X170206315Y-75070569D01*
X170430569Y-74846315D01*
X170606763Y-74582621D01*
X170728129Y-74289620D01*
X170790000Y-73978571D01*
X170790000Y-73661429D01*
X170728129Y-73350380D01*
X170606763Y-73057379D01*
X170430569Y-72793685D01*
X170206315Y-72569431D01*
X169942621Y-72393237D01*
X169649620Y-72271871D01*
X169338571Y-72210000D01*
X169021429Y-72210000D01*
X168710380Y-72271871D01*
X168417379Y-72393237D01*
X168153685Y-72569431D01*
X167929431Y-72793685D01*
X167753237Y-73057379D01*
X167631871Y-73350380D01*
X167570000Y-73661429D01*
X161542825Y-73661429D01*
X161442759Y-73561363D01*
X161207727Y-73404320D01*
X160946574Y-73296147D01*
X160669335Y-73241000D01*
X160386665Y-73241000D01*
X160109426Y-73296147D01*
X159848273Y-73404320D01*
X159613241Y-73561363D01*
X159413363Y-73761241D01*
X159256320Y-73996273D01*
X159148147Y-74257426D01*
X159093000Y-74534665D01*
X156679156Y-74534665D01*
X156724843Y-74343934D01*
X156734631Y-74091454D01*
X156694975Y-73841916D01*
X156607399Y-73604908D01*
X156560321Y-73516832D01*
X156331882Y-73463723D01*
X155627605Y-74168000D01*
X155268395Y-74168000D01*
X154564118Y-73463723D01*
X154335679Y-73516832D01*
X154230015Y-73746347D01*
X154171157Y-73992066D01*
X154161369Y-74244546D01*
X152760000Y-74244546D01*
X152760000Y-73284118D01*
X154743723Y-73284118D01*
X155448000Y-73988395D01*
X156152277Y-73284118D01*
X156099168Y-73055679D01*
X155869653Y-72950015D01*
X155623934Y-72891157D01*
X155371454Y-72881369D01*
X155121916Y-72921025D01*
X154884908Y-73008601D01*
X154796832Y-73055679D01*
X154743723Y-73284118D01*
X152760000Y-73284118D01*
X152760000Y-70037333D01*
X152763677Y-70000000D01*
X152749003Y-69851014D01*
X152705546Y-69707753D01*
X152634974Y-69575724D01*
X152563799Y-69488997D01*
X152540001Y-69459999D01*
X152511003Y-69436201D01*
X151563804Y-68489002D01*
X151540001Y-68459999D01*
X151424276Y-68365026D01*
X151292247Y-68294454D01*
X151148986Y-68250997D01*
X151037333Y-68240000D01*
X151037322Y-68240000D01*
X151000000Y-68236324D01*
X150962678Y-68240000D01*
X145037322Y-68240000D01*
X144999999Y-68236324D01*
X144962676Y-68240000D01*
X144962667Y-68240000D01*
X144851014Y-68250997D01*
X144707753Y-68294454D01*
X144575723Y-68365026D01*
X144492083Y-68433668D01*
X144459999Y-68459999D01*
X144436201Y-68488997D01*
X142489003Y-70436196D01*
X142459999Y-70459999D01*
X142404871Y-70527174D01*
X142365026Y-70575724D01*
X142333356Y-70634974D01*
X142294454Y-70707754D01*
X142250997Y-70851015D01*
X142240000Y-70962668D01*
X142240000Y-70962678D01*
X142236324Y-71000000D01*
X142240000Y-71037323D01*
X142240001Y-74364196D01*
X141998899Y-74493068D01*
X141780392Y-74672392D01*
X141601068Y-74890899D01*
X141467818Y-75140192D01*
X141385764Y-75410691D01*
X141358057Y-75692000D01*
X113660000Y-75692000D01*
X113660000Y-75342961D01*
X118548096Y-75342961D01*
X118670085Y-75565000D01*
X120013000Y-75565000D01*
X120013000Y-74412526D01*
X120267000Y-74412526D01*
X120267000Y-75565000D01*
X121609915Y-75565000D01*
X121731904Y-75342961D01*
X121721444Y-75285270D01*
X121615551Y-75023579D01*
X121460639Y-74787575D01*
X121262662Y-74586327D01*
X121029227Y-74427570D01*
X120769306Y-74317404D01*
X120492887Y-74260063D01*
X120267000Y-74412526D01*
X120013000Y-74412526D01*
X119787113Y-74260063D01*
X119510694Y-74317404D01*
X119250773Y-74427570D01*
X119017338Y-74586327D01*
X118819361Y-74787575D01*
X118664449Y-75023579D01*
X118558556Y-75285270D01*
X118548096Y-75342961D01*
X113660000Y-75342961D01*
X113660000Y-64779872D01*
X114765000Y-64779872D01*
X114765000Y-65220128D01*
X114850890Y-65651925D01*
X115019369Y-66058669D01*
X115263962Y-66424729D01*
X115575271Y-66736038D01*
X115941331Y-66980631D01*
X116348075Y-67149110D01*
X116779872Y-67235000D01*
X117220128Y-67235000D01*
X117651925Y-67149110D01*
X118058669Y-66980631D01*
X118424729Y-66736038D01*
X118736038Y-66424729D01*
X118980631Y-66058669D01*
X119149110Y-65651925D01*
X119235000Y-65220128D01*
X119235000Y-64779872D01*
X169765000Y-64779872D01*
X169765000Y-65220128D01*
X169850890Y-65651925D01*
X170019369Y-66058669D01*
X170263962Y-66424729D01*
X170575271Y-66736038D01*
X170941331Y-66980631D01*
X171348075Y-67149110D01*
X171779872Y-67235000D01*
X172220128Y-67235000D01*
X172651925Y-67149110D01*
X173058669Y-66980631D01*
X173424729Y-66736038D01*
X173736038Y-66424729D01*
X173980631Y-66058669D01*
X174149110Y-65651925D01*
X174235000Y-65220128D01*
X174235000Y-64779872D01*
X174149110Y-64348075D01*
X173980631Y-63941331D01*
X173736038Y-63575271D01*
X173424729Y-63263962D01*
X173058669Y-63019369D01*
X172651925Y-62850890D01*
X172220128Y-62765000D01*
X171779872Y-62765000D01*
X171348075Y-62850890D01*
X170941331Y-63019369D01*
X170575271Y-63263962D01*
X170263962Y-63575271D01*
X170019369Y-63941331D01*
X169850890Y-64348075D01*
X169765000Y-64779872D01*
X119235000Y-64779872D01*
X119149110Y-64348075D01*
X118980631Y-63941331D01*
X118736038Y-63575271D01*
X118424729Y-63263962D01*
X118058669Y-63019369D01*
X117651925Y-62850890D01*
X117220128Y-62765000D01*
X116779872Y-62765000D01*
X116348075Y-62850890D01*
X115941331Y-63019369D01*
X115575271Y-63263962D01*
X115263962Y-63575271D01*
X115019369Y-63941331D01*
X114850890Y-64348075D01*
X114765000Y-64779872D01*
X113660000Y-64779872D01*
X113660000Y-64032279D01*
X113707670Y-63546107D01*
X113839489Y-63109502D01*
X114053600Y-62706815D01*
X114341848Y-62353388D01*
X114693261Y-62062673D01*
X115094439Y-61845758D01*
X115530113Y-61710894D01*
X116014344Y-61660000D01*
X172967721Y-61660000D01*
X173453893Y-61707670D01*
G04 #@! TA.AperFunction,Conductor*
D22*
G36*
X173453893Y-61707670D02*
G01*
X173890498Y-61839489D01*
X174293185Y-62053600D01*
X174646612Y-62341848D01*
X174937327Y-62693261D01*
X175154242Y-63094439D01*
X175289106Y-63530113D01*
X175340000Y-64014344D01*
X175340001Y-103967711D01*
X175292330Y-104453894D01*
X175160512Y-104890497D01*
X174946399Y-105293186D01*
X174658150Y-105646613D01*
X174306739Y-105937327D01*
X173905564Y-106154240D01*
X173469886Y-106289106D01*
X172985664Y-106340000D01*
X116032279Y-106340000D01*
X115546106Y-106292330D01*
X115109503Y-106160512D01*
X114706814Y-105946399D01*
X114353387Y-105658150D01*
X114062673Y-105306739D01*
X113845760Y-104905564D01*
X113710894Y-104469886D01*
X113660000Y-103985664D01*
X113660000Y-102779872D01*
X114765000Y-102779872D01*
X114765000Y-103220128D01*
X114850890Y-103651925D01*
X115019369Y-104058669D01*
X115263962Y-104424729D01*
X115575271Y-104736038D01*
X115941331Y-104980631D01*
X116348075Y-105149110D01*
X116779872Y-105235000D01*
X117220128Y-105235000D01*
X117651925Y-105149110D01*
X118058669Y-104980631D01*
X118424729Y-104736038D01*
X118736038Y-104424729D01*
X118980631Y-104058669D01*
X119149110Y-103651925D01*
X119235000Y-103220128D01*
X119235000Y-102779872D01*
X169765000Y-102779872D01*
X169765000Y-103220128D01*
X169850890Y-103651925D01*
X170019369Y-104058669D01*
X170263962Y-104424729D01*
X170575271Y-104736038D01*
X170941331Y-104980631D01*
X171348075Y-105149110D01*
X171779872Y-105235000D01*
X172220128Y-105235000D01*
X172651925Y-105149110D01*
X173058669Y-104980631D01*
X173424729Y-104736038D01*
X173736038Y-104424729D01*
X173980631Y-104058669D01*
X174149110Y-103651925D01*
X174235000Y-103220128D01*
X174235000Y-102779872D01*
X174149110Y-102348075D01*
X173980631Y-101941331D01*
X173736038Y-101575271D01*
X173424729Y-101263962D01*
X173058669Y-101019369D01*
X172651925Y-100850890D01*
X172220128Y-100765000D01*
X171779872Y-100765000D01*
X171348075Y-100850890D01*
X170941331Y-101019369D01*
X170575271Y-101263962D01*
X170263962Y-101575271D01*
X170019369Y-101941331D01*
X169850890Y-102348075D01*
X169765000Y-102779872D01*
X119235000Y-102779872D01*
X119149110Y-102348075D01*
X118980631Y-101941331D01*
X118736038Y-101575271D01*
X118424729Y-101263962D01*
X118058669Y-101019369D01*
X117651925Y-100850890D01*
X117220128Y-100765000D01*
X116779872Y-100765000D01*
X116348075Y-100850890D01*
X115941331Y-101019369D01*
X115575271Y-101263962D01*
X115263962Y-101575271D01*
X115019369Y-101941331D01*
X114850890Y-102348075D01*
X114765000Y-102779872D01*
X113660000Y-102779872D01*
X113660000Y-78232000D01*
X118498057Y-78232000D01*
X118525764Y-78513309D01*
X118607818Y-78783808D01*
X118741068Y-79033101D01*
X118920392Y-79251608D01*
X119138899Y-79430932D01*
X119271858Y-79502000D01*
X119138899Y-79573068D01*
X118920392Y-79752392D01*
X118741068Y-79970899D01*
X118607818Y-80220192D01*
X118525764Y-80490691D01*
X118498057Y-80772000D01*
X118525764Y-81053309D01*
X118607818Y-81323808D01*
X118741068Y-81573101D01*
X118920392Y-81791608D01*
X119138899Y-81970932D01*
X119271858Y-82042000D01*
X119138899Y-82113068D01*
X118920392Y-82292392D01*
X118741068Y-82510899D01*
X118607818Y-82760192D01*
X118525764Y-83030691D01*
X118498057Y-83312000D01*
X118525764Y-83593309D01*
X118607818Y-83863808D01*
X118741068Y-84113101D01*
X118920392Y-84331608D01*
X119138899Y-84510932D01*
X119271858Y-84582000D01*
X119138899Y-84653068D01*
X118920392Y-84832392D01*
X118741068Y-85050899D01*
X118607818Y-85300192D01*
X118525764Y-85570691D01*
X118498057Y-85852000D01*
X118525764Y-86133309D01*
X118607818Y-86403808D01*
X118741068Y-86653101D01*
X118920392Y-86871608D01*
X119138899Y-87050932D01*
X119271858Y-87122000D01*
X119138899Y-87193068D01*
X118920392Y-87372392D01*
X118741068Y-87590899D01*
X118607818Y-87840192D01*
X118525764Y-88110691D01*
X118498057Y-88392000D01*
X118525764Y-88673309D01*
X118607818Y-88943808D01*
X118741068Y-89193101D01*
X118920392Y-89411608D01*
X119138899Y-89590932D01*
X119271858Y-89662000D01*
X119138899Y-89733068D01*
X118920392Y-89912392D01*
X118741068Y-90130899D01*
X118607818Y-90380192D01*
X118525764Y-90650691D01*
X118498057Y-90932000D01*
X118525764Y-91213309D01*
X118607818Y-91483808D01*
X118741068Y-91733101D01*
X118920392Y-91951608D01*
X119138899Y-92130932D01*
X119271858Y-92202000D01*
X119138899Y-92273068D01*
X118920392Y-92452392D01*
X118741068Y-92670899D01*
X118607818Y-92920192D01*
X118525764Y-93190691D01*
X118498057Y-93472000D01*
X118525764Y-93753309D01*
X118607818Y-94023808D01*
X118741068Y-94273101D01*
X118920392Y-94491608D01*
X119138899Y-94670932D01*
X119388192Y-94804182D01*
X119658691Y-94886236D01*
X119869508Y-94907000D01*
X120410492Y-94907000D01*
X120621309Y-94886236D01*
X120891808Y-94804182D01*
X121141101Y-94670932D01*
X121359608Y-94491608D01*
X121538932Y-94273101D01*
X121672182Y-94023808D01*
X121754236Y-93753309D01*
X121781943Y-93472000D01*
X121754236Y-93190691D01*
X121672182Y-92920192D01*
X121538932Y-92670899D01*
X121359608Y-92452392D01*
X121141101Y-92273068D01*
X121008142Y-92202000D01*
X121141101Y-92130932D01*
X121359608Y-91951608D01*
X121538932Y-91733101D01*
X121672182Y-91483808D01*
X121754236Y-91213309D01*
X121781943Y-90932000D01*
X121754236Y-90650691D01*
X121672182Y-90380192D01*
X121538932Y-90130899D01*
X121359608Y-89912392D01*
X121141101Y-89733068D01*
X121008142Y-89662000D01*
X121141101Y-89590932D01*
X121359608Y-89411608D01*
X121538932Y-89193101D01*
X121672182Y-88943808D01*
X121754236Y-88673309D01*
X121781943Y-88392000D01*
X121754236Y-88110691D01*
X121672182Y-87840192D01*
X121538932Y-87590899D01*
X121359608Y-87372392D01*
X121141101Y-87193068D01*
X121008142Y-87122000D01*
X121141101Y-87050932D01*
X121359608Y-86871608D01*
X121538932Y-86653101D01*
X121672182Y-86403808D01*
X121754236Y-86133309D01*
X121781943Y-85852000D01*
X121754236Y-85570691D01*
X121672182Y-85300192D01*
X121538932Y-85050899D01*
X121359608Y-84832392D01*
X121141101Y-84653068D01*
X121008142Y-84582000D01*
X121141101Y-84510932D01*
X121359608Y-84331608D01*
X121538932Y-84113101D01*
X121672182Y-83863808D01*
X121754236Y-83593309D01*
X121781943Y-83312000D01*
X121754236Y-83030691D01*
X121672182Y-82760192D01*
X121538932Y-82510899D01*
X121359608Y-82292392D01*
X121141101Y-82113068D01*
X121008142Y-82042000D01*
X121141101Y-81970932D01*
X121359608Y-81791608D01*
X121538932Y-81573101D01*
X121672182Y-81323808D01*
X121754236Y-81053309D01*
X121781943Y-80772000D01*
X121754236Y-80490691D01*
X121672182Y-80220192D01*
X121538932Y-79970899D01*
X121359608Y-79752392D01*
X121141101Y-79573068D01*
X121008142Y-79502000D01*
X121141101Y-79430932D01*
X121359608Y-79251608D01*
X121538932Y-79033101D01*
X121672182Y-78783808D01*
X121754236Y-78513309D01*
X121781943Y-78232000D01*
X121754236Y-77950691D01*
X121672182Y-77680192D01*
X121538932Y-77430899D01*
X121359608Y-77212392D01*
X121141101Y-77033068D01*
X121011655Y-76963878D01*
X121029227Y-76956430D01*
X121262662Y-76797673D01*
X121460639Y-76596425D01*
X121615551Y-76360421D01*
X121721444Y-76098730D01*
X121731904Y-76041039D01*
X121609915Y-75819000D01*
X120267000Y-75819000D01*
X120267000Y-75839000D01*
X120013000Y-75839000D01*
X120013000Y-75819000D01*
X118670085Y-75819000D01*
X118548096Y-76041039D01*
X118558556Y-76098730D01*
X118664449Y-76360421D01*
X118819361Y-76596425D01*
X119017338Y-76797673D01*
X119250773Y-76956430D01*
X119268345Y-76963878D01*
X119138899Y-77033068D01*
X118920392Y-77212392D01*
X118741068Y-77430899D01*
X118607818Y-77680192D01*
X118525764Y-77950691D01*
X118498057Y-78232000D01*
X113660000Y-78232000D01*
X113660000Y-75692000D01*
X141358057Y-75692000D01*
X141385764Y-75973309D01*
X141467818Y-76243808D01*
X141601068Y-76493101D01*
X141780392Y-76711608D01*
X141998899Y-76890932D01*
X142131858Y-76962000D01*
X141998899Y-77033068D01*
X141780392Y-77212392D01*
X141601068Y-77430899D01*
X141467818Y-77680192D01*
X141385764Y-77950691D01*
X141358057Y-78232000D01*
X141385764Y-78513309D01*
X141467818Y-78783808D01*
X141601068Y-79033101D01*
X141780392Y-79251608D01*
X141998899Y-79430932D01*
X142131858Y-79502000D01*
X141998899Y-79573068D01*
X141780392Y-79752392D01*
X141601068Y-79970899D01*
X141467818Y-80220192D01*
X141385764Y-80490691D01*
X141358057Y-80772000D01*
X141385764Y-81053309D01*
X141467818Y-81323808D01*
X141601068Y-81573101D01*
X141780392Y-81791608D01*
X141998899Y-81970932D01*
X142131858Y-82042000D01*
X141998899Y-82113068D01*
X141780392Y-82292392D01*
X141601068Y-82510899D01*
X141467818Y-82760192D01*
X141385764Y-83030691D01*
X141358057Y-83312000D01*
X141385764Y-83593309D01*
X141467818Y-83863808D01*
X141601068Y-84113101D01*
X141780392Y-84331608D01*
X141998899Y-84510932D01*
X142131858Y-84582000D01*
X141998899Y-84653068D01*
X141780392Y-84832392D01*
X141601068Y-85050899D01*
X141467818Y-85300192D01*
X141385764Y-85570691D01*
X141358057Y-85852000D01*
X141385764Y-86133309D01*
X141467818Y-86403808D01*
X141601068Y-86653101D01*
X141780392Y-86871608D01*
X141998899Y-87050932D01*
X142131858Y-87122000D01*
X141998899Y-87193068D01*
X141780392Y-87372392D01*
X141601068Y-87590899D01*
X141467818Y-87840192D01*
X141385764Y-88110691D01*
X141358057Y-88392000D01*
X141385764Y-88673309D01*
X141467818Y-88943808D01*
X141601068Y-89193101D01*
X141780392Y-89411608D01*
X141998899Y-89590932D01*
X142131858Y-89662000D01*
X141998899Y-89733068D01*
X141780392Y-89912392D01*
X141601068Y-90130899D01*
X141467818Y-90380192D01*
X141385764Y-90650691D01*
X141358057Y-90932000D01*
X141385764Y-91213309D01*
X141467818Y-91483808D01*
X141601068Y-91733101D01*
X141733476Y-91894441D01*
X141645506Y-91941463D01*
X141548815Y-92020815D01*
X141469463Y-92117506D01*
X141410498Y-92227820D01*
X141374188Y-92347518D01*
X141361928Y-92472000D01*
X141361928Y-94472000D01*
X141374188Y-94596482D01*
X141410498Y-94716180D01*
X141469463Y-94826494D01*
X141548815Y-94923185D01*
X141645506Y-95002537D01*
X141755820Y-95061502D01*
X141875518Y-95097812D01*
X142000000Y-95110072D01*
X144000000Y-95110072D01*
X144124482Y-95097812D01*
X144244180Y-95061502D01*
X144354494Y-95002537D01*
X144451185Y-94923185D01*
X144530537Y-94826494D01*
X144589502Y-94716180D01*
X144625812Y-94596482D01*
X144638072Y-94472000D01*
X144638072Y-92472000D01*
X144625812Y-92347518D01*
X144589502Y-92227820D01*
X144530537Y-92117506D01*
X144451185Y-92020815D01*
X144354494Y-91941463D01*
X144266524Y-91894441D01*
X144398932Y-91733101D01*
X144532182Y-91483808D01*
X144614236Y-91213309D01*
X144641943Y-90932000D01*
X144614236Y-90650691D01*
X144532182Y-90380192D01*
X144398932Y-90130899D01*
X144219608Y-89912392D01*
X144001101Y-89733068D01*
X143868142Y-89662000D01*
X144001101Y-89590932D01*
X144219608Y-89411608D01*
X144398932Y-89193101D01*
X144532182Y-88943808D01*
X144614236Y-88673309D01*
X144641943Y-88392000D01*
X144614236Y-88110691D01*
X144532182Y-87840192D01*
X144398932Y-87590899D01*
X144219608Y-87372392D01*
X144001101Y-87193068D01*
X143868142Y-87122000D01*
X144001101Y-87050932D01*
X144219608Y-86871608D01*
X144398932Y-86653101D01*
X144420901Y-86612000D01*
X144814678Y-86612000D01*
X144852000Y-86615676D01*
X144889322Y-86612000D01*
X144889333Y-86612000D01*
X145000986Y-86601003D01*
X145144247Y-86557546D01*
X145276276Y-86486974D01*
X145392001Y-86392001D01*
X145415804Y-86362997D01*
X146511004Y-85267798D01*
X146540001Y-85244001D01*
X146634974Y-85128276D01*
X146705546Y-84996247D01*
X146713749Y-84969204D01*
X146831662Y-85145673D01*
X147010327Y-85324338D01*
X147220414Y-85464714D01*
X147453850Y-85561406D01*
X147637818Y-85598000D01*
X147453850Y-85634594D01*
X147220414Y-85731286D01*
X147010327Y-85871662D01*
X146831662Y-86050327D01*
X146691286Y-86260414D01*
X146594594Y-86493850D01*
X146545300Y-86741665D01*
X146545300Y-86994335D01*
X146594594Y-87242150D01*
X146691286Y-87475586D01*
X146831662Y-87685673D01*
X147010327Y-87864338D01*
X147220414Y-88004714D01*
X147453850Y-88101406D01*
X147637818Y-88138000D01*
X147453850Y-88174594D01*
X147220414Y-88271286D01*
X147010327Y-88411662D01*
X146831662Y-88590327D01*
X146691286Y-88800414D01*
X146594594Y-89033850D01*
X146545300Y-89281665D01*
X146545300Y-89534335D01*
X146594594Y-89782150D01*
X146691286Y-90015586D01*
X146831662Y-90225673D01*
X147010327Y-90404338D01*
X147220414Y-90544714D01*
X147453850Y-90641406D01*
X147701665Y-90690700D01*
X147954335Y-90690700D01*
X148202150Y-90641406D01*
X148435586Y-90544714D01*
X148645673Y-90404338D01*
X148824338Y-90225673D01*
X148964714Y-90015586D01*
X149061406Y-89782150D01*
X149110700Y-89534335D01*
X149110700Y-89281665D01*
X149061406Y-89033850D01*
X148964714Y-88800414D01*
X148824338Y-88590327D01*
X148645673Y-88411662D01*
X148435586Y-88271286D01*
X148202150Y-88174594D01*
X148018182Y-88138000D01*
X148202150Y-88101406D01*
X148435586Y-88004714D01*
X148645673Y-87864338D01*
X148824338Y-87685673D01*
X148964714Y-87475586D01*
X149061406Y-87242150D01*
X149110700Y-86994335D01*
X149110700Y-86741665D01*
X149061406Y-86493850D01*
X148964714Y-86260414D01*
X148824338Y-86050327D01*
X148645673Y-85871662D01*
X148435586Y-85731286D01*
X148202150Y-85634594D01*
X148018182Y-85598000D01*
X148202150Y-85561406D01*
X148435586Y-85464714D01*
X148645673Y-85324338D01*
X148824338Y-85145673D01*
X148964714Y-84935586D01*
X149061406Y-84702150D01*
X149110700Y-84454335D01*
X149110700Y-84201665D01*
X149061406Y-83953850D01*
X148964714Y-83720414D01*
X148824338Y-83510327D01*
X148645673Y-83331662D01*
X148435586Y-83191286D01*
X148202150Y-83094594D01*
X148018182Y-83058000D01*
X148202150Y-83021406D01*
X148435586Y-82924714D01*
X148645673Y-82784338D01*
X148824338Y-82605673D01*
X148964714Y-82395586D01*
X149061406Y-82162150D01*
X149110700Y-81914335D01*
X149110700Y-81661665D01*
X149061406Y-81413850D01*
X148964714Y-81180414D01*
X148824338Y-80970327D01*
X148645673Y-80791662D01*
X148435586Y-80651286D01*
X148202150Y-80554594D01*
X148018182Y-80518000D01*
X148202150Y-80481406D01*
X148435586Y-80384714D01*
X148645673Y-80244338D01*
X148824338Y-80065673D01*
X148964714Y-79855586D01*
X149061406Y-79622150D01*
X149110700Y-79374335D01*
X149110700Y-79121665D01*
X149061406Y-78873850D01*
X148964714Y-78640414D01*
X148824338Y-78430327D01*
X148645673Y-78251662D01*
X148435586Y-78111286D01*
X148202150Y-78014594D01*
X148018182Y-77978000D01*
X148202150Y-77941406D01*
X148435586Y-77844714D01*
X148645673Y-77704338D01*
X148824338Y-77525673D01*
X148964714Y-77315586D01*
X149061406Y-77082150D01*
X149110700Y-76834335D01*
X149110700Y-76581665D01*
X149061406Y-76333850D01*
X148964714Y-76100414D01*
X148824338Y-75890327D01*
X148645673Y-75711662D01*
X148435586Y-75571286D01*
X148202150Y-75474594D01*
X148097472Y-75453772D01*
X148475700Y-75453772D01*
X148600182Y-75441512D01*
X148719880Y-75405202D01*
X148830194Y-75346237D01*
X148926885Y-75266885D01*
X149006237Y-75170194D01*
X149065202Y-75059880D01*
X149101512Y-74940182D01*
X149113772Y-74815700D01*
X149113772Y-73520300D01*
X149101512Y-73395818D01*
X149065202Y-73276120D01*
X149006237Y-73165806D01*
X148926885Y-73069115D01*
X148830194Y-72989763D01*
X148719880Y-72930798D01*
X148600182Y-72894488D01*
X148475700Y-72882228D01*
X147180300Y-72882228D01*
X147055818Y-72894488D01*
X146936120Y-72930798D01*
X146825806Y-72989763D01*
X146729115Y-73069115D01*
X146649763Y-73165806D01*
X146590798Y-73276120D01*
X146554488Y-73395818D01*
X146542228Y-73520300D01*
X146542228Y-74815700D01*
X146554488Y-74940182D01*
X146590798Y-75059880D01*
X146649763Y-75170194D01*
X146729115Y-75266885D01*
X146825806Y-75346237D01*
X146936120Y-75405202D01*
X147055818Y-75441512D01*
X147180300Y-75453772D01*
X147558528Y-75453772D01*
X147453850Y-75474594D01*
X147220414Y-75571286D01*
X147010327Y-75711662D01*
X146831662Y-75890327D01*
X146793126Y-75948000D01*
X146745322Y-75948000D01*
X146707999Y-75944324D01*
X146670676Y-75948000D01*
X146670667Y-75948000D01*
X146559014Y-75958997D01*
X146415753Y-76002454D01*
X146283724Y-76073026D01*
X146167999Y-76167999D01*
X146144201Y-76196998D01*
X145488998Y-76852201D01*
X145460000Y-76875999D01*
X145436202Y-76904997D01*
X145436201Y-76904998D01*
X145365026Y-76991724D01*
X145294454Y-77123754D01*
X145291869Y-77132277D01*
X145250998Y-77267014D01*
X145240001Y-77378667D01*
X145236324Y-77416000D01*
X145240001Y-77453332D01*
X145240000Y-84389198D01*
X144537199Y-85092000D01*
X144420901Y-85092000D01*
X144398932Y-85050899D01*
X144219608Y-84832392D01*
X144001101Y-84653068D01*
X143868142Y-84582000D01*
X144001101Y-84510932D01*
X144219608Y-84331608D01*
X144398932Y-84113101D01*
X144532182Y-83863808D01*
X144614236Y-83593309D01*
X144641943Y-83312000D01*
X144614236Y-83030691D01*
X144532182Y-82760192D01*
X144398932Y-82510899D01*
X144219608Y-82292392D01*
X144001101Y-82113068D01*
X143868142Y-82042000D01*
X144001101Y-81970932D01*
X144219608Y-81791608D01*
X144398932Y-81573101D01*
X144532182Y-81323808D01*
X144614236Y-81053309D01*
X144641943Y-80772000D01*
X144614236Y-80490691D01*
X144532182Y-80220192D01*
X144398932Y-79970899D01*
X144219608Y-79752392D01*
X144001101Y-79573068D01*
X143868142Y-79502000D01*
X144001101Y-79430932D01*
X144219608Y-79251608D01*
X144398932Y-79033101D01*
X144532182Y-78783808D01*
X144614236Y-78513309D01*
X144641943Y-78232000D01*
X144614236Y-77950691D01*
X144532182Y-77680192D01*
X144398932Y-77430899D01*
X144219608Y-77212392D01*
X144001101Y-77033068D01*
X143868142Y-76962000D01*
X144001101Y-76890932D01*
X144219608Y-76711608D01*
X144398932Y-76493101D01*
X144532182Y-76243808D01*
X144614236Y-75973309D01*
X144641943Y-75692000D01*
X144614236Y-75410691D01*
X144532182Y-75140192D01*
X144398932Y-74890899D01*
X144219608Y-74672392D01*
X144001101Y-74493068D01*
X143760000Y-74364197D01*
X143760000Y-71314801D01*
X145314802Y-69760000D01*
X150685199Y-69760000D01*
X151240001Y-70314803D01*
X151240000Y-91685198D01*
X148332998Y-94592201D01*
X148304000Y-94615999D01*
X148280202Y-94644997D01*
X148280201Y-94644998D01*
X148209026Y-94731724D01*
X148138454Y-94863754D01*
X148094998Y-95007015D01*
X148080324Y-95156000D01*
X148084001Y-95193332D01*
X148084001Y-96555928D01*
X147994000Y-96555928D01*
X147869518Y-96568188D01*
X147749820Y-96604498D01*
X147639506Y-96663463D01*
X147542815Y-96742815D01*
X147463463Y-96839506D01*
X147404498Y-96949820D01*
X147368188Y-97069518D01*
X147355928Y-97194000D01*
X147355928Y-98894000D01*
X147368188Y-99018482D01*
X147404498Y-99138180D01*
X147463463Y-99248494D01*
X147542815Y-99345185D01*
X147639506Y-99424537D01*
X147749820Y-99483502D01*
X147869518Y-99519812D01*
X147994000Y-99532072D01*
X149694000Y-99532072D01*
X149818482Y-99519812D01*
X149938180Y-99483502D01*
X150048494Y-99424537D01*
X150145185Y-99345185D01*
X150224537Y-99248494D01*
X150283502Y-99138180D01*
X150305513Y-99065620D01*
X150437368Y-99197475D01*
X150680589Y-99359990D01*
X150950842Y-99471932D01*
X151237740Y-99529000D01*
X151530260Y-99529000D01*
X151817158Y-99471932D01*
X152087411Y-99359990D01*
X152330632Y-99197475D01*
X152537475Y-98990632D01*
X152654000Y-98816240D01*
X152770525Y-98990632D01*
X152977368Y-99197475D01*
X153220589Y-99359990D01*
X153490842Y-99471932D01*
X153777740Y-99529000D01*
X154070260Y-99529000D01*
X154357158Y-99471932D01*
X154627411Y-99359990D01*
X154870632Y-99197475D01*
X155077475Y-98990632D01*
X155239990Y-98747411D01*
X155351932Y-98477158D01*
X155409000Y-98190260D01*
X155409000Y-97897740D01*
X155351932Y-97610842D01*
X155239990Y-97340589D01*
X155077475Y-97097368D01*
X154870632Y-96890525D01*
X154627411Y-96728010D01*
X154357158Y-96616068D01*
X154070260Y-96559000D01*
X153777740Y-96559000D01*
X153490842Y-96616068D01*
X153220589Y-96728010D01*
X152977368Y-96890525D01*
X152770525Y-97097368D01*
X152654000Y-97271760D01*
X152537475Y-97097368D01*
X152330632Y-96890525D01*
X152087411Y-96728010D01*
X151817158Y-96616068D01*
X151530260Y-96559000D01*
X151237740Y-96559000D01*
X150950842Y-96616068D01*
X150680589Y-96728010D01*
X150437368Y-96890525D01*
X150305513Y-97022380D01*
X150283502Y-96949820D01*
X150224537Y-96839506D01*
X150145185Y-96742815D01*
X150048494Y-96663463D01*
X149938180Y-96604498D01*
X149818482Y-96568188D01*
X149694000Y-96555928D01*
X149604000Y-96555928D01*
X149604000Y-95975000D01*
X167566928Y-95975000D01*
X167579188Y-96099482D01*
X167615498Y-96219180D01*
X167674463Y-96329494D01*
X167753815Y-96426185D01*
X167850506Y-96505537D01*
X167960820Y-96564502D01*
X168080518Y-96600812D01*
X168205000Y-96613072D01*
X168894250Y-96610000D01*
X169053000Y-96451250D01*
X169053000Y-95127000D01*
X169307000Y-95127000D01*
X169307000Y-96451250D01*
X169465750Y-96610000D01*
X170155000Y-96613072D01*
X170279482Y-96600812D01*
X170399180Y-96564502D01*
X170509494Y-96505537D01*
X170606185Y-96426185D01*
X170685537Y-96329494D01*
X170744502Y-96219180D01*
X170780812Y-96099482D01*
X170793072Y-95975000D01*
X170790000Y-95285750D01*
X170631250Y-95127000D01*
X169307000Y-95127000D01*
X169053000Y-95127000D01*
X167728750Y-95127000D01*
X167570000Y-95285750D01*
X167566928Y-95975000D01*
X149604000Y-95975000D01*
X149604000Y-95470801D01*
X151049801Y-94025000D01*
X167566928Y-94025000D01*
X167570000Y-94714250D01*
X167728750Y-94873000D01*
X169053000Y-94873000D01*
X169053000Y-93548750D01*
X169307000Y-93548750D01*
X169307000Y-94873000D01*
X170631250Y-94873000D01*
X170790000Y-94714250D01*
X170793072Y-94025000D01*
X170780812Y-93900518D01*
X170744502Y-93780820D01*
X170685537Y-93670506D01*
X170606185Y-93573815D01*
X170509494Y-93494463D01*
X170399180Y-93435498D01*
X170279482Y-93399188D01*
X170155000Y-93386928D01*
X169465750Y-93390000D01*
X169307000Y-93548750D01*
X169053000Y-93548750D01*
X168894250Y-93390000D01*
X168205000Y-93386928D01*
X168080518Y-93399188D01*
X167960820Y-93435498D01*
X167850506Y-93494463D01*
X167753815Y-93573815D01*
X167674463Y-93670506D01*
X167615498Y-93780820D01*
X167579188Y-93900518D01*
X167566928Y-94025000D01*
X151049801Y-94025000D01*
X152511004Y-92563798D01*
X152540001Y-92540001D01*
X152611900Y-92452392D01*
X152634974Y-92424277D01*
X152705546Y-92292247D01*
X152725089Y-92227820D01*
X152749003Y-92148986D01*
X152760000Y-92037333D01*
X152760000Y-92037323D01*
X152763676Y-92000001D01*
X152760000Y-91962678D01*
X152760000Y-76581665D01*
X154165300Y-76581665D01*
X154165300Y-76834335D01*
X154214594Y-77082150D01*
X154311286Y-77315586D01*
X154451662Y-77525673D01*
X154630327Y-77704338D01*
X154840414Y-77844714D01*
X155073850Y-77941406D01*
X155257818Y-77978000D01*
X155073850Y-78014594D01*
X154840414Y-78111286D01*
X154630327Y-78251662D01*
X154451662Y-78430327D01*
X154311286Y-78640414D01*
X154214594Y-78873850D01*
X154165300Y-79121665D01*
X154165300Y-79374335D01*
X154214594Y-79622150D01*
X154311286Y-79855586D01*
X154451662Y-80065673D01*
X154630327Y-80244338D01*
X154840414Y-80384714D01*
X155073850Y-80481406D01*
X155257818Y-80518000D01*
X155073850Y-80554594D01*
X154840414Y-80651286D01*
X154630327Y-80791662D01*
X154451662Y-80970327D01*
X154311286Y-81180414D01*
X154214594Y-81413850D01*
X154165300Y-81661665D01*
X154165300Y-81914335D01*
X154214594Y-82162150D01*
X154311286Y-82395586D01*
X154451662Y-82605673D01*
X154630327Y-82784338D01*
X154840414Y-82924714D01*
X155073850Y-83021406D01*
X155257818Y-83058000D01*
X155073850Y-83094594D01*
X154840414Y-83191286D01*
X154630327Y-83331662D01*
X154451662Y-83510327D01*
X154311286Y-83720414D01*
X154214594Y-83953850D01*
X154165300Y-84201665D01*
X154165300Y-84454335D01*
X154214594Y-84702150D01*
X154311286Y-84935586D01*
X154451662Y-85145673D01*
X154630327Y-85324338D01*
X154840414Y-85464714D01*
X155073850Y-85561406D01*
X155257818Y-85598000D01*
X155073850Y-85634594D01*
X154840414Y-85731286D01*
X154630327Y-85871662D01*
X154451662Y-86050327D01*
X154311286Y-86260414D01*
X154214594Y-86493850D01*
X154165300Y-86741665D01*
X154165300Y-86994335D01*
X154214594Y-87242150D01*
X154311286Y-87475586D01*
X154451662Y-87685673D01*
X154630327Y-87864338D01*
X154840414Y-88004714D01*
X155073850Y-88101406D01*
X155257818Y-88138000D01*
X155073850Y-88174594D01*
X154840414Y-88271286D01*
X154630327Y-88411662D01*
X154451662Y-88590327D01*
X154311286Y-88800414D01*
X154214594Y-89033850D01*
X154165300Y-89281665D01*
X154165300Y-89534335D01*
X154214594Y-89782150D01*
X154311286Y-90015586D01*
X154451662Y-90225673D01*
X154630327Y-90404338D01*
X154840414Y-90544714D01*
X155073850Y-90641406D01*
X155321665Y-90690700D01*
X155574335Y-90690700D01*
X155822150Y-90641406D01*
X156055586Y-90544714D01*
X156265673Y-90404338D01*
X156444338Y-90225673D01*
X156584714Y-90015586D01*
X156656851Y-89841429D01*
X167570000Y-89841429D01*
X167570000Y-90158571D01*
X167631871Y-90469620D01*
X167753237Y-90762621D01*
X167929431Y-91026315D01*
X168153685Y-91250569D01*
X168417379Y-91426763D01*
X168710380Y-91548129D01*
X169021429Y-91610000D01*
X169338571Y-91610000D01*
X169649620Y-91548129D01*
X169942621Y-91426763D01*
X170206315Y-91250569D01*
X170430569Y-91026315D01*
X170606763Y-90762621D01*
X170728129Y-90469620D01*
X170790000Y-90158571D01*
X170790000Y-89841429D01*
X170728129Y-89530380D01*
X170606763Y-89237379D01*
X170430569Y-88973685D01*
X170206315Y-88749431D01*
X169942621Y-88573237D01*
X169649620Y-88451871D01*
X169338571Y-88390000D01*
X169021429Y-88390000D01*
X168710380Y-88451871D01*
X168417379Y-88573237D01*
X168153685Y-88749431D01*
X167929431Y-88973685D01*
X167753237Y-89237379D01*
X167631871Y-89530380D01*
X167570000Y-89841429D01*
X156656851Y-89841429D01*
X156681406Y-89782150D01*
X156730700Y-89534335D01*
X156730700Y-89281665D01*
X156681406Y-89033850D01*
X156584714Y-88800414D01*
X156444338Y-88590327D01*
X156265673Y-88411662D01*
X156055586Y-88271286D01*
X155822150Y-88174594D01*
X155638182Y-88138000D01*
X155822150Y-88101406D01*
X156055586Y-88004714D01*
X156265673Y-87864338D01*
X156444338Y-87685673D01*
X156584714Y-87475586D01*
X156681406Y-87242150D01*
X156730700Y-86994335D01*
X156730700Y-86741665D01*
X156681406Y-86493850D01*
X156584714Y-86260414D01*
X156444338Y-86050327D01*
X156265673Y-85871662D01*
X156055586Y-85731286D01*
X155822150Y-85634594D01*
X155638182Y-85598000D01*
X155822150Y-85561406D01*
X156055586Y-85464714D01*
X156265673Y-85324338D01*
X156444338Y-85145673D01*
X156584714Y-84935586D01*
X156642946Y-84795000D01*
X167566928Y-84795000D01*
X167579188Y-84919482D01*
X167615498Y-85039180D01*
X167674463Y-85149494D01*
X167753815Y-85246185D01*
X167850506Y-85325537D01*
X167960820Y-85384502D01*
X168080518Y-85420812D01*
X168205000Y-85433072D01*
X168894250Y-85430000D01*
X169053000Y-85271250D01*
X169053000Y-83947000D01*
X169307000Y-83947000D01*
X169307000Y-85271250D01*
X169465750Y-85430000D01*
X170155000Y-85433072D01*
X170279482Y-85420812D01*
X170399180Y-85384502D01*
X170509494Y-85325537D01*
X170606185Y-85246185D01*
X170685537Y-85149494D01*
X170744502Y-85039180D01*
X170780812Y-84919482D01*
X170793072Y-84795000D01*
X170790000Y-84105750D01*
X170631250Y-83947000D01*
X169307000Y-83947000D01*
X169053000Y-83947000D01*
X167728750Y-83947000D01*
X167570000Y-84105750D01*
X167566928Y-84795000D01*
X156642946Y-84795000D01*
X156681406Y-84702150D01*
X156730700Y-84454335D01*
X156730700Y-84201665D01*
X156681406Y-83953850D01*
X156584714Y-83720414D01*
X156444338Y-83510327D01*
X156265673Y-83331662D01*
X156055586Y-83191286D01*
X155822150Y-83094594D01*
X155638182Y-83058000D01*
X155822150Y-83021406D01*
X156055586Y-82924714D01*
X156265673Y-82784338D01*
X156444338Y-82605673D01*
X156584714Y-82395586D01*
X156681406Y-82162150D01*
X156682894Y-82154665D01*
X159093000Y-82154665D01*
X159093000Y-82437335D01*
X159148147Y-82714574D01*
X159256320Y-82975727D01*
X159413363Y-83210759D01*
X159613241Y-83410637D01*
X159848273Y-83567680D01*
X160109426Y-83675853D01*
X160386665Y-83731000D01*
X160669335Y-83731000D01*
X160946574Y-83675853D01*
X161207727Y-83567680D01*
X161442759Y-83410637D01*
X161642637Y-83210759D01*
X161799680Y-82975727D01*
X161853828Y-82845000D01*
X167566928Y-82845000D01*
X167570000Y-83534250D01*
X167728750Y-83693000D01*
X169053000Y-83693000D01*
X169053000Y-82368750D01*
X169307000Y-82368750D01*
X169307000Y-83693000D01*
X170631250Y-83693000D01*
X170790000Y-83534250D01*
X170793072Y-82845000D01*
X170780812Y-82720518D01*
X170744502Y-82600820D01*
X170685537Y-82490506D01*
X170606185Y-82393815D01*
X170509494Y-82314463D01*
X170399180Y-82255498D01*
X170279482Y-82219188D01*
X170155000Y-82206928D01*
X169465750Y-82210000D01*
X169307000Y-82368750D01*
X169053000Y-82368750D01*
X168894250Y-82210000D01*
X168205000Y-82206928D01*
X168080518Y-82219188D01*
X167960820Y-82255498D01*
X167850506Y-82314463D01*
X167753815Y-82393815D01*
X167674463Y-82490506D01*
X167615498Y-82600820D01*
X167579188Y-82720518D01*
X167566928Y-82845000D01*
X161853828Y-82845000D01*
X161907853Y-82714574D01*
X161963000Y-82437335D01*
X161963000Y-82154665D01*
X161907853Y-81877426D01*
X161799680Y-81616273D01*
X161642637Y-81381241D01*
X161442759Y-81181363D01*
X161207727Y-81024320D01*
X160946574Y-80916147D01*
X160669335Y-80861000D01*
X160386665Y-80861000D01*
X160109426Y-80916147D01*
X159848273Y-81024320D01*
X159613241Y-81181363D01*
X159413363Y-81381241D01*
X159256320Y-81616273D01*
X159148147Y-81877426D01*
X159093000Y-82154665D01*
X156682894Y-82154665D01*
X156730700Y-81914335D01*
X156730700Y-81661665D01*
X156681406Y-81413850D01*
X156584714Y-81180414D01*
X156444338Y-80970327D01*
X156265673Y-80791662D01*
X156055586Y-80651286D01*
X155822150Y-80554594D01*
X155638182Y-80518000D01*
X155822150Y-80481406D01*
X156055586Y-80384714D01*
X156265673Y-80244338D01*
X156444338Y-80065673D01*
X156584714Y-79855586D01*
X156681406Y-79622150D01*
X156730700Y-79374335D01*
X156730700Y-79121665D01*
X156681406Y-78873850D01*
X156593419Y-78661429D01*
X167570000Y-78661429D01*
X167570000Y-78978571D01*
X167631871Y-79289620D01*
X167753237Y-79582621D01*
X167929431Y-79846315D01*
X168153685Y-80070569D01*
X168417379Y-80246763D01*
X168710380Y-80368129D01*
X169021429Y-80430000D01*
X169338571Y-80430000D01*
X169649620Y-80368129D01*
X169942621Y-80246763D01*
X170206315Y-80070569D01*
X170430569Y-79846315D01*
X170606763Y-79582621D01*
X170728129Y-79289620D01*
X170790000Y-78978571D01*
X170790000Y-78661429D01*
X170728129Y-78350380D01*
X170606763Y-78057379D01*
X170430569Y-77793685D01*
X170206315Y-77569431D01*
X169942621Y-77393237D01*
X169649620Y-77271871D01*
X169338571Y-77210000D01*
X169021429Y-77210000D01*
X168710380Y-77271871D01*
X168417379Y-77393237D01*
X168153685Y-77569431D01*
X167929431Y-77793685D01*
X167753237Y-78057379D01*
X167631871Y-78350380D01*
X167570000Y-78661429D01*
X156593419Y-78661429D01*
X156584714Y-78640414D01*
X156444338Y-78430327D01*
X156265673Y-78251662D01*
X156055586Y-78111286D01*
X155822150Y-78014594D01*
X155638182Y-77978000D01*
X155822150Y-77941406D01*
X156055586Y-77844714D01*
X156265673Y-77704338D01*
X156444338Y-77525673D01*
X156584714Y-77315586D01*
X156681406Y-77082150D01*
X156730700Y-76834335D01*
X156730700Y-76581665D01*
X156681406Y-76333850D01*
X156584714Y-76100414D01*
X156444338Y-75890327D01*
X156265673Y-75711662D01*
X156055586Y-75571286D01*
X155822150Y-75474594D01*
X155634192Y-75437206D01*
X155774084Y-75414975D01*
X156011092Y-75327399D01*
X156099168Y-75280321D01*
X156152277Y-75051882D01*
X155448000Y-74347605D01*
X154743723Y-75051882D01*
X154796832Y-75280321D01*
X155026347Y-75385985D01*
X155249995Y-75439556D01*
X155073850Y-75474594D01*
X154840414Y-75571286D01*
X154630327Y-75711662D01*
X154451662Y-75890327D01*
X154311286Y-76100414D01*
X154214594Y-76333850D01*
X154165300Y-76581665D01*
X152760000Y-76581665D01*
X152760000Y-74244546D01*
X154161369Y-74244546D01*
X154201025Y-74494084D01*
X154288601Y-74731092D01*
X154335679Y-74819168D01*
X154564118Y-74872277D01*
X155268395Y-74168000D01*
X155627605Y-74168000D01*
X156331882Y-74872277D01*
X156560321Y-74819168D01*
X156665985Y-74589653D01*
X156679156Y-74534665D01*
X159093000Y-74534665D01*
X159093000Y-74817335D01*
X159148147Y-75094574D01*
X159256320Y-75355727D01*
X159413363Y-75590759D01*
X159613241Y-75790637D01*
X159848273Y-75947680D01*
X160109426Y-76055853D01*
X160386665Y-76111000D01*
X160669335Y-76111000D01*
X160946574Y-76055853D01*
X161207727Y-75947680D01*
X161442759Y-75790637D01*
X161642637Y-75590759D01*
X161799680Y-75355727D01*
X161907853Y-75094574D01*
X161963000Y-74817335D01*
X161963000Y-74534665D01*
X161907853Y-74257426D01*
X161799680Y-73996273D01*
X161642637Y-73761241D01*
X161542825Y-73661429D01*
X167570000Y-73661429D01*
X167570000Y-73978571D01*
X167631871Y-74289620D01*
X167753237Y-74582621D01*
X167929431Y-74846315D01*
X168153685Y-75070569D01*
X168417379Y-75246763D01*
X168710380Y-75368129D01*
X169021429Y-75430000D01*
X169338571Y-75430000D01*
X169649620Y-75368129D01*
X169942621Y-75246763D01*
X170206315Y-75070569D01*
X170430569Y-74846315D01*
X170606763Y-74582621D01*
X170728129Y-74289620D01*
X170790000Y-73978571D01*
X170790000Y-73661429D01*
X170728129Y-73350380D01*
X170606763Y-73057379D01*
X170430569Y-72793685D01*
X170206315Y-72569431D01*
X169942621Y-72393237D01*
X169649620Y-72271871D01*
X169338571Y-72210000D01*
X169021429Y-72210000D01*
X168710380Y-72271871D01*
X168417379Y-72393237D01*
X168153685Y-72569431D01*
X167929431Y-72793685D01*
X167753237Y-73057379D01*
X167631871Y-73350380D01*
X167570000Y-73661429D01*
X161542825Y-73661429D01*
X161442759Y-73561363D01*
X161207727Y-73404320D01*
X160946574Y-73296147D01*
X160669335Y-73241000D01*
X160386665Y-73241000D01*
X160109426Y-73296147D01*
X159848273Y-73404320D01*
X159613241Y-73561363D01*
X159413363Y-73761241D01*
X159256320Y-73996273D01*
X159148147Y-74257426D01*
X159093000Y-74534665D01*
X156679156Y-74534665D01*
X156724843Y-74343934D01*
X156734631Y-74091454D01*
X156694975Y-73841916D01*
X156607399Y-73604908D01*
X156560321Y-73516832D01*
X156331882Y-73463723D01*
X155627605Y-74168000D01*
X155268395Y-74168000D01*
X154564118Y-73463723D01*
X154335679Y-73516832D01*
X154230015Y-73746347D01*
X154171157Y-73992066D01*
X154161369Y-74244546D01*
X152760000Y-74244546D01*
X152760000Y-73284118D01*
X154743723Y-73284118D01*
X155448000Y-73988395D01*
X156152277Y-73284118D01*
X156099168Y-73055679D01*
X155869653Y-72950015D01*
X155623934Y-72891157D01*
X155371454Y-72881369D01*
X155121916Y-72921025D01*
X154884908Y-73008601D01*
X154796832Y-73055679D01*
X154743723Y-73284118D01*
X152760000Y-73284118D01*
X152760000Y-70037333D01*
X152763677Y-70000000D01*
X152749003Y-69851014D01*
X152705546Y-69707753D01*
X152634974Y-69575724D01*
X152563799Y-69488997D01*
X152540001Y-69459999D01*
X152511003Y-69436201D01*
X151563804Y-68489002D01*
X151540001Y-68459999D01*
X151424276Y-68365026D01*
X151292247Y-68294454D01*
X151148986Y-68250997D01*
X151037333Y-68240000D01*
X151037322Y-68240000D01*
X151000000Y-68236324D01*
X150962678Y-68240000D01*
X145037322Y-68240000D01*
X144999999Y-68236324D01*
X144962676Y-68240000D01*
X144962667Y-68240000D01*
X144851014Y-68250997D01*
X144707753Y-68294454D01*
X144575723Y-68365026D01*
X144492083Y-68433668D01*
X144459999Y-68459999D01*
X144436201Y-68488997D01*
X142489003Y-70436196D01*
X142459999Y-70459999D01*
X142404871Y-70527174D01*
X142365026Y-70575724D01*
X142333356Y-70634974D01*
X142294454Y-70707754D01*
X142250997Y-70851015D01*
X142240000Y-70962668D01*
X142240000Y-70962678D01*
X142236324Y-71000000D01*
X142240000Y-71037323D01*
X142240001Y-74364196D01*
X141998899Y-74493068D01*
X141780392Y-74672392D01*
X141601068Y-74890899D01*
X141467818Y-75140192D01*
X141385764Y-75410691D01*
X141358057Y-75692000D01*
X113660000Y-75692000D01*
X113660000Y-75342961D01*
X118548096Y-75342961D01*
X118670085Y-75565000D01*
X120013000Y-75565000D01*
X120013000Y-74412526D01*
X120267000Y-74412526D01*
X120267000Y-75565000D01*
X121609915Y-75565000D01*
X121731904Y-75342961D01*
X121721444Y-75285270D01*
X121615551Y-75023579D01*
X121460639Y-74787575D01*
X121262662Y-74586327D01*
X121029227Y-74427570D01*
X120769306Y-74317404D01*
X120492887Y-74260063D01*
X120267000Y-74412526D01*
X120013000Y-74412526D01*
X119787113Y-74260063D01*
X119510694Y-74317404D01*
X119250773Y-74427570D01*
X119017338Y-74586327D01*
X118819361Y-74787575D01*
X118664449Y-75023579D01*
X118558556Y-75285270D01*
X118548096Y-75342961D01*
X113660000Y-75342961D01*
X113660000Y-64779872D01*
X114765000Y-64779872D01*
X114765000Y-65220128D01*
X114850890Y-65651925D01*
X115019369Y-66058669D01*
X115263962Y-66424729D01*
X115575271Y-66736038D01*
X115941331Y-66980631D01*
X116348075Y-67149110D01*
X116779872Y-67235000D01*
X117220128Y-67235000D01*
X117651925Y-67149110D01*
X118058669Y-66980631D01*
X118424729Y-66736038D01*
X118736038Y-66424729D01*
X118980631Y-66058669D01*
X119149110Y-65651925D01*
X119235000Y-65220128D01*
X119235000Y-64779872D01*
X169765000Y-64779872D01*
X169765000Y-65220128D01*
X169850890Y-65651925D01*
X170019369Y-66058669D01*
X170263962Y-66424729D01*
X170575271Y-66736038D01*
X170941331Y-66980631D01*
X171348075Y-67149110D01*
X171779872Y-67235000D01*
X172220128Y-67235000D01*
X172651925Y-67149110D01*
X173058669Y-66980631D01*
X173424729Y-66736038D01*
X173736038Y-66424729D01*
X173980631Y-66058669D01*
X174149110Y-65651925D01*
X174235000Y-65220128D01*
X174235000Y-64779872D01*
X174149110Y-64348075D01*
X173980631Y-63941331D01*
X173736038Y-63575271D01*
X173424729Y-63263962D01*
X173058669Y-63019369D01*
X172651925Y-62850890D01*
X172220128Y-62765000D01*
X171779872Y-62765000D01*
X171348075Y-62850890D01*
X170941331Y-63019369D01*
X170575271Y-63263962D01*
X170263962Y-63575271D01*
X170019369Y-63941331D01*
X169850890Y-64348075D01*
X169765000Y-64779872D01*
X119235000Y-64779872D01*
X119149110Y-64348075D01*
X118980631Y-63941331D01*
X118736038Y-63575271D01*
X118424729Y-63263962D01*
X118058669Y-63019369D01*
X117651925Y-62850890D01*
X117220128Y-62765000D01*
X116779872Y-62765000D01*
X116348075Y-62850890D01*
X115941331Y-63019369D01*
X115575271Y-63263962D01*
X115263962Y-63575271D01*
X115019369Y-63941331D01*
X114850890Y-64348075D01*
X114765000Y-64779872D01*
X113660000Y-64779872D01*
X113660000Y-64032279D01*
X113707670Y-63546107D01*
X113839489Y-63109502D01*
X114053600Y-62706815D01*
X114341848Y-62353388D01*
X114693261Y-62062673D01*
X115094439Y-61845758D01*
X115530113Y-61710894D01*
X116014344Y-61660000D01*
X172967721Y-61660000D01*
X173453893Y-61707670D01*
G37*
G04 #@! TD.AperFunction*
M02*
