M48
INCH,TZ
T1C0.0310
T2C0.0315
T3C0.0394
T4C0.0512
%
G90
G05
T1
X58200Y-29200
X58200Y-30200
X58200Y-31200
X58200Y-32200
X58200Y-33200
X58200Y-34200
X58200Y-35200
X61200Y-29200
X61200Y-30200
X61200Y-31200
X61200Y-32200
X61200Y-33200
X61200Y-34200
X61200Y-35200
T2
X63200Y-29400
X63200Y-32400
T3
X47299Y-29800
X47299Y-30800
X47299Y-31800
X47299Y-32800
X47299Y-33800
X47299Y-34800
X47299Y-35800
X47299Y-36800
X56299Y-29800
X56299Y-30800
X56299Y-31800
X56299Y-32800
X56299Y-33800
X56299Y-34800
X56299Y-35800
X56299Y-36800
X58600Y-38600
X59600Y-38600
X60600Y-38600
T4
X66606Y-29063
X66606Y-31031
X66606Y-33000
X66606Y-35433
X66606Y-37402
T0
M30
