<?xml version="1.0" encoding="UTF-8" standalone="no"?>
<!-- Created with Inkscape (http://www.inkscape.org/) -->

<svg
   width="50mm"
   height="50mm"
   viewBox="0 0 50 50"
   version="1.1"
   id="svg5"
   inkscape:version="1.1 (c68e22c387, 2021-05-23)"
   sodipodi:docname="outline.svg"
   xmlns:inkscape="http://www.inkscape.org/namespaces/inkscape"
   xmlns:sodipodi="http://sodipodi.sourceforge.net/DTD/sodipodi-0.dtd"
   xmlns="http://www.w3.org/2000/svg"
   xmlns:svg="http://www.w3.org/2000/svg">
  <sodipodi:namedview
     id="namedview7"
     pagecolor="#ffffff"
     bordercolor="#666666"
     borderopacity="1.0"
     inkscape:pageshadow="2"
     inkscape:pageopacity="0.0"
     inkscape:pagecheckerboard="0"
     inkscape:document-units="mm"
     showgrid="false"
     inkscape:zoom="0.97035431"
     inkscape:cx="70.592771"
     inkscape:cy="-2.5763785"
     inkscape:window-width="1920"
     inkscape:window-height="1017"
     inkscape:window-x="-8"
     inkscape:window-y="-8"
     inkscape:window-maximized="1"
     inkscape:current-layer="layer1"
     width="50mm" />
  <defs
     id="defs2">
    <linearGradient
       id="linearGradient852"
       inkscape:swatch="solid">
      <stop
         style="stop-color:#ff0000;stop-opacity:1;"
         offset="0"
         id="stop850" />
    </linearGradient>
    <clipPath
       clipPathUnits="userSpaceOnUse"
       id="clipPath1682">
      <path
         id="path1684"
         style="fill:#ff0000;fill-opacity:1;fill-rule:nonzero;stroke:none;stroke-width:0.264583"
         d="M 53.056192,103.38904 V 226.80941 H 176.47605 V 103.38904 Z m 117.005778,89.14907 c 0.0225,-5.2e-4 0.0328,2.7e-4 0.0584,0.0119 0.0711,0.0322 0.0369,0.10533 -0.0336,0.0718 -0.004,-0.002 -0.006,-0.003 -0.008,-0.004 h -0.0269 -0.0661 -0.25477 l -5.2e-4,-5.3e-4 c -0.0781,0 -0.0781,-0.0785 0,-0.0785 h 0.25476 0.0667 c 0.004,-1.1e-4 0.007,-5.3e-4 0.0104,-5.3e-4 z m -110.681099,0.0207 v 0.001 c 0.0073,-5.3e-4 0.0155,5.3e-4 0.02376,0.001 0.003,1.6e-4 0.0058,5.2e-4 0.0088,0.001 0.01035,0.001 0.01913,0.004 0.02635,0.007 0.02045,-0.002 0.04126,-0.003 0.06046,0.006 0.0011,0 0.0019,0.002 0.0031,0.002 0.0026,5.3e-4 0.0051,0 0.0078,0 0.01675,1e-5 0.0339,2e-5 0.05064,0 0.01355,-1e-5 0.05476,-2e-5 0.06046,0 0.02824,-0.002 0.05653,-5.3e-4 0.08475,0.001 0.0016,-5.3e-4 0.003,-7.9e-4 0.0047,-0.001 0.01413,-0.002 0.02765,-0.003 0.04134,-0.003 2.64e-4,1e-5 7.94e-4,-1e-5 0.0011,0 0.02376,-0.004 0.04624,-0.005 0.07028,-0.004 0.03084,0.001 0.06125,0.001 0.09199,-0.002 0.02204,0.002 0.03158,2.3e-4 0.04806,0.0263 0.0062,0.01 0.0068,0.0197 0.0036,0.0289 0.01119,3e-5 0.02238,2e-5 0.03359,0 0.0241,0 0.01532,-7.9e-4 0.0062,0.0408 0.0042,0.0193 0.0074,0.0277 0.0083,0.0331 0.01085,0.002 0.02169,0.004 0.03256,0.007 0.02994,0.006 0.04562,0.007 0.03772,0.0413 0.0024,0.01 1.16e-4,0.0184 -0.0072,0.0264 -1.4e-4,2.6e-4 -2.52e-4,5.3e-4 -5.29e-4,10e-4 -0.0016,0.004 -0.0033,0.009 -0.0052,0.0134 -5.29e-4,0.001 -0.0087,0.001 -0.01913,5.3e-4 -0.0013,0.003 -0.0061,0.002 -0.01138,-0.001 0,0 -5.29e-4,0 -5.29e-4,0 -0.0042,2.6e-4 -0.006,0.003 -0.01085,0.003 -0.0026,-1.3e-4 -0.0052,9e-5 -0.0078,0 5.3e-4,0.006 5.3e-4,0.0115 0.0011,0.017 -0.01021,0.006 -0.02143,0.013 -0.03256,0.0171 -0.01352,0.004 -0.02777,0.007 -0.04186,0.009 -0.01106,0.001 -0.02196,-2.4e-4 -0.03307,-5.3e-4 -0.05401,-0.001 -0.04089,-0.001 -0.08681,-0.002 -0.01484,8e-5 -0.02962,-8e-4 -0.04444,0 -0.0082,0 -0.01619,0.002 -0.02429,0.003 -0.05335,0.007 -0.106503,0.0151 -0.160197,0.0191 v -5.3e-4 c -0.06117,0.004 -0.07907,-0.0436 -0.04599,-0.0667 -0.01775,10e-6 -0.03547,-2e-5 -0.05323,0 -0.03301,0 -0.01897,2e-5 -0.04186,0 -0.02852,-4e-5 -0.04657,-0.0105 -0.05426,-0.0238 -0.02719,-0.001 -0.05429,-0.006 -0.08165,-0.004 -0.01804,0.004 -0.02852,7.9e-4 -0.04547,-0.008 -5.29e-4,-2.6e-4 -0.0011,-8e-4 -0.0016,-0.001 -0.0029,-10e-4 -0.0048,-0.004 -0.0078,-0.005 -0.0021,0 0.0035,0.003 0.0052,0.005 7.94e-4,-10e-4 5.29e-4,0.001 0.0011,0.001 5.29e-4,0 0.0013,1.3e-4 0.0021,0 -0.0029,7.9e-4 -0.0058,0.002 -0.0088,0.002 -0.005,8e-4 -0.01,2.6e-4 -0.01498,0 -0.0167,-0.002 -0.04674,0.007 -0.05943,-0.009 -0.01027,-0.0128 -0.01199,-0.0307 -0.0181,-0.046 0.01765,-0.0104 0.03467,-0.021 0.05271,-0.031 0.0011,-1.2e-4 0.0026,0.001 0.0036,0.001 0.0029,2e-5 0.0059,-0.001 0.0088,-0.001 0.005,-1.7e-4 0.0096,5.3e-4 0.01447,0 0.0077,-10e-4 0.01908,-0.005 0.02687,-0.007 0.0061,-0.002 0.01204,-0.004 0.0181,-0.006 0.02164,-0.007 0.01101,-0.006 0.04806,-0.007 0.0049,0 0.01003,1.7e-4 0.01497,5.3e-4 -5.29e-4,-0.004 -0.0011,-0.009 -0.0016,-0.0129 -0.01228,-0.007 -0.02188,-0.0162 -0.0186,-0.0305 0.0078,-0.0341 0.02066,-0.042 0.03669,-0.0429 z m 2.101165,1.52394 c 0.0108,0 0.02146,2.6e-4 0.03204,0.002 0.008,5.3e-4 0.01614,10e-4 0.02376,0.003 -0.0059,0.0254 -0.0071,0.0522 -0.01757,0.076 1.6e-5,2.7e-4 -1.9e-5,8e-4 0,0.001 h -5.29e-4 c -1.54e-4,2.6e-4 -2.25e-4,8e-4 -5.3e-4,0.001 -2.19e-4,5.3e-4 -0.02689,4e-5 -0.03049,0 -0.01826,-1.8e-4 -0.03657,-0.002 -0.05478,-5.3e-4 -0.01101,0.001 -0.02212,0.003 -0.03307,0.004 -0.07086,0.0133 -0.142092,0.0214 -0.213942,0.0264 -0.02561,0.002 -0.05134,0.003 -0.077,0.003 -0.04715,0.009 -0.09451,0.0184 -0.141594,0.0279 -0.134969,0.0272 -0.269655,0.0563 -0.405143,0.0806 -0.0039,0.001 -0.0053,0.004 -0.0098,0.004 -0.01053,0.001 -0.02117,0.002 -0.03152,0.004 -0.03178,0.007 -0.04944,0.0143 -0.07906,0.0243 -0.04976,0.0161 -0.100349,0.0313 -0.150379,0.0465 -0.08197,0.0274 -0.168693,0.0371 -0.254764,0.0341 -0.0045,-0.001 -0.0089,-0.002 -0.01344,-0.002 -0.05882,-0.007 -0.06666,-0.0541 -0.03359,-0.0718 0.0044,-0.0156 0.02077,-0.0298 0.05116,-0.0341 0.0092,-0.001 0.01881,-0.002 0.0279,-0.004 0.02773,-0.003 0.05424,-0.0121 0.08165,-0.0171 0.07005,-0.0129 0.141393,-0.0215 0.211873,-0.0315 0.174017,-0.0231 0.34543,-0.0598 0.517282,-0.0951 -0.0054,-0.0221 0.01416,-0.0471 0.05839,-0.046 0.05354,0.001 0.107135,0.003 0.160714,0.003 0.005,-0.001 0.01005,-0.002 0.01497,-0.003 0.102087,-0.0247 0.207417,-0.0316 0.312124,-0.0326 0.0172,0 0.03625,-0.001 0.0553,-0.001 z" />
    </clipPath>
  </defs>
  <g
     inkscape:label="Layer 1"
     inkscape:groupmode="layer"
     id="layer1">
    <path
       id="path2411"
       style="fill:none;fill-rule:evenodd;stroke:#000000;stroke-width:0.403755;stroke-miterlimit:4;stroke-dasharray:none;stroke-opacity:1"
       d="M 25.268034,9.241882 A 23.998099,23.998099 0 0 0 1.2699603,33.239956 23.998099,23.998099 0 0 0 2.0809744,39.36104 H 48.455092 A 23.998099,23.998099 0 0 0 49.266107,33.239956 23.998099,23.998099 0 0 0 25.268034,9.241882 Z" />
  </g>
</svg>
